<?xml version="1.0" encoding="UTF-8"?>
<!DOCTYPE svg PUBLIC "-//W3C//DTD SVG 1.1//EN" "http://www.w3.org/Graphics/SVG/1.1/DTD/svg11.dtd">
<svg version="1.1" xmlns="http://www.w3.org/2000/svg" xmlns:xlink="http://www.w3.org/1999/xlink" x="0" y="0" width="345" height="285" viewBox="0, 0, 345, 285">
  <g id="layer1">
    <path d="M47.621,44.55 L152.93,44.55 L152.93,149.859 L47.621,149.859 z" fill-opacity="0" stroke="#000000" stroke-width="0.991" id="rect2383"/>
    <path d="M47.621,150.85 L152.93,150.85 L152.93,256.158 L47.621,256.158 z" fill-opacity="0" stroke="#000000" stroke-width="0.991" id="rect2385"/>
    <path d="M153.921,44.55 L259.229,44.55 L259.229,149.859 L153.921,149.859 z" fill-opacity="0" stroke="#000000" stroke-width="0.991" id="rect2387"/>
    <path d="M153.921,150.85 L259.229,150.85 L259.229,256.158 L153.921,256.158 z" fill-opacity="0" stroke="#000000" stroke-width="0.991" id="rect2389"/>
    <g>
      <path d="M47.657,256.126 L47.657,16.203" fill-opacity="0" stroke="#000000" stroke-width="1.022" id="path3161"/>
      <g id="path3169">
        <path d="M47.657,19.268 L51.744,23.354 L47.657,9.051 L43.571,23.354 L47.657,19.268 z" fill="#000000"/>
        <path d="M47.657,19.268 L51.744,23.354 L47.657,9.051 L43.571,23.354 L47.657,19.268 z" fill-opacity="0" stroke="#000000" stroke-width="0.8"/>
      </g>
    </g>
    <g>
      <g id="path3941">
        <path d="M47.637,256.143 L287.56,256.143" fill="#0000FF"/>
        <path d="M47.637,256.143 L287.56,256.143" fill-opacity="0" stroke="#000000" stroke-width="1.022"/>
      </g>
      <g id="path3169">
        <path d="M284.495,256.143 L280.409,260.229 L294.712,256.143 L280.409,252.056 L284.495,256.143 z" fill="#000000"/>
        <path d="M284.495,256.143 L280.409,260.229 L294.712,256.143 L280.409,252.056 L284.495,256.143 z" fill-opacity="0" stroke="#000000" stroke-width="0.8"/>
      </g>
    </g>
    <g>
      <text transform="matrix(1, 0, 0, 1, 315.71, 248.303)" id="tspan4975">
        <tspan x="-18.337" y="4" font-family="Helvetica" font-size="12" fill="#0000FF">Market</tspan>
      </text>
      <text transform="matrix(1, 0, 0, 1, 315.71, 263.303)" id="tspan4977">
        <tspan x="-16.011" y="4" font-family="Helvetica" font-size="12" fill="#0000FF">Share</tspan>
      </text>
    </g>
    <text transform="matrix(1, 0, 0, 1, 49.617, 6.876)" id="tspan4981">
      <tspan x="-42.509" y="4" font-family="Helvetica" font-size="12" fill="#008000">Market Growth</tspan>
    </text>
    <g id="g2385">
      <path d="M112.112,223.854 L111.866,223.889 L111.629,223.92 L111.401,223.945 L111.183,223.964 L110.971,223.979 L110.769,223.988 L110.575,223.992 L110.387,223.992 L110.209,223.986 L110.038,223.976 L109.875,223.961 L109.719,223.942 L109.568,223.917 L109.427,223.889 L109.291,223.857 L109.163,223.82 L109.041,223.779 L108.925,223.733 L108.816,223.683 L108.711,223.63 L108.614,223.572 L108.521,223.51 L108.434,223.446 L108.353,223.376 L108.276,223.304 L108.206,223.228 L108.139,223.148 L108.078,223.066 L108.02,222.979 L107.967,222.889 L107.874,222.7 L107.796,222.5 L107.733,222.288 L107.681,222.065 L107.641,221.831 L107.613,221.588 L107.593,221.336 L107.58,221.075 L107.572,220.806 L107.571,220.53 L107.574,220.247 L107.577,219.959 L107.583,219.666 L107.59,219.062 L107.591,218.755 L107.269,211.939 L105.925,218.232 C105.642,219.399 105.324,220.495 107.021,221.379 C108.223,222.441 106.88,223.891 105.572,223.714 C101.647,223.854 102.213,221.239 102.566,219.399 L102.779,216.712 L103.415,211.232 L102.885,209.853 C98.607,208.757 95.707,207.944 92.419,206.176 L90.086,206.494 C88.99,206.671 89.273,207.908 89.167,208.721 L88.813,210.95 L86.869,216.006 L86.727,216.429 C86.586,216.783 86.621,218.161 87.116,218.869 L88.177,220.991 C88.954,222.157 89.167,225.127 86.975,224.172 L87.01,224.172 L85.384,223.5 C84.217,223.007 83.262,219.789 82.838,217.456 L82.909,214.131 C81.883,213.85 81.459,219.752 81.883,220.991 L82.909,224.066 C83.192,225.056 82.025,225.411 81.212,225.411 C79.302,225.411 78.454,223.465 78.065,221.838 L77.782,220.601 C77.287,218.727 77.535,215.863 78.489,214.202 L78.984,213.176 C79.797,211.126 78.737,209.676 78.489,208.615 C77.676,205.292 77.004,202.075 79.302,198.893 L79.515,198.647 C79.408,198.398 78.737,197.869 78.348,196.63 C77.464,193.801 76.686,189.17 77.782,189.17 L78.525,189.569 C80.363,189.569 79.797,196.771 82.025,196.276 L97.935,196.453 L100.763,195.677 C101.753,195.392 103.29,194.212 104.209,193.646 L105.047,192.972 L106.364,191.73 C107.907,190.085 110.372,194.822 113.377,195.918 C114.19,202.14 112.183,205.152 111.405,208.863 L111.123,210.383 C110.521,213.036 110.345,215.793 110.486,218.55 L110.557,219.823 C110.486,221.131 111.264,221.239 112.289,221.557 C112.961,221.909 113.421,223.217 112.112,223.854 L112.148,223.854 L112.112,223.854 z" fill="#1E1916" id="path12"/>
      <path d="M115.507,185.74 L115.586,185.799 L115.669,185.858 L115.835,185.986 L116.008,186.123 L116.183,186.269 L116.361,186.422 L116.541,186.581 L116.723,186.746 L116.908,186.916 L117.092,187.091 L117.276,187.268 L117.64,187.63 L117.818,187.813 L117.995,187.996 L118.167,188.177 L118.335,188.358 L119.466,189.559 C120.174,190.301 121.27,190.195 122.224,190.407 L122.613,190.443 C123.638,191.01 123.32,192.141 122.967,192.988 L122.755,193.52 C121.729,195.958 118.759,196.135 116.638,195.003 L115.719,194.508 L115.401,194.508 L114.729,194.933 L113.421,195.995 C110.663,194.793 108.436,193.377 106.668,191.468 L110.769,186.306 L112.148,184.326 L112.431,183.654 L112.749,182.913 C112.749,182.913 114.022,181.321 114.764,181.639 C115.507,181.959 115.966,183.336 115.789,184.043 L115.577,184.892 L115.507,185.74 L115.542,185.74" fill="#1E1916" id="path14"/>
    </g>
    <text transform="matrix(1, 0, 0, 1, 100.699, 274.931)" id="tspan5090">
      <tspan x="-19.508" y="4" font-family="Helvetica" font-size="12" fill="#0000FF">Low</tspan>
    </text>
    <text transform="matrix(1, 0, 0, 1, 22.137, 202.536)" id="tspan5102">
      <tspan x="-19.508" y="4" font-family="Helvetica" font-size="12" fill="#008000">Low</tspan>
    </text>
    <text transform="matrix(1, 0, 0, 1, 17.089, 97.429)" id="tspan5106">
      <tspan x="-14.507" y="4" font-family="Helvetica" font-size="12" fill="#008000">High</tspan>
    </text>
    <g>
      <text transform="matrix(1, 0, 0, 1, 100.536, 173.904)" id="tspan5112">
        <tspan x="-26.687" y="4" font-family="Helvetica" font-size="12" fill="#000000">poor dogs</tspan>
      </text>
    </g>
    <g>
      <text transform="matrix(1, 0, 0, 1, 206.434, 174.487)" id="tspan5122">
        <tspan x="-28.342" y="4" font-family="Helvetica" font-size="12" fill="#000000">cash-cows</tspan>
      </text>
    </g>
    <path d="M238.762,206.409 C238.717,206.182 238.717,205.933 238.739,205.706 C238.739,205.547 238.739,205.411 238.739,205.274 C238.739,205.138 238.739,204.979 238.739,204.843 C238.717,204.571 238.739,204.298 238.785,204.026 C238.921,203.3 239.012,202.619 239.057,201.915 C239.102,201.416 239.125,200.916 239.148,200.417 L239.193,199.645 L239.329,198.578 L239.466,197.216 C239.488,197.126 239.488,197.035 239.488,196.967 C239.488,196.876 239.488,196.785 239.466,196.717 L239.329,195.4 C239.466,196.013 239.602,196.626 239.67,197.239 L240.01,199.464 L240.033,199.759 L240.101,200.394 L240.147,200.871 L240.147,201.597 L240.124,202.233 L240.192,203.322 L240.26,204.684 L240.328,205.706 L240.305,207.431 L240.26,208.044 L240.215,208.588 L240.101,209.269 C240.101,209.406 240.124,209.565 240.124,209.701 C240.124,209.882 240.101,210.087 240.101,210.291 C240.101,210.314 240.101,210.336 240.101,210.359 C240.101,210.495 240.124,210.631 240.147,210.745 C240.237,210.995 240.283,211.244 240.305,211.517 C240.351,211.789 240.374,212.061 240.442,212.334 C240.51,212.606 240.555,212.879 240.555,213.174 L240.578,213.741 C240.578,213.855 240.646,213.968 240.737,214.014 C240.873,214.104 241.055,214.172 241.236,214.172 C241.259,214.172 241.281,214.195 241.304,214.195 C241.44,214.195 241.554,214.15 241.667,214.104 C241.894,214.036 242.008,213.832 242.008,213.605 L242.008,212.47 C242.008,211.971 241.962,211.471 241.872,210.972 C241.804,210.563 241.804,210.132 241.849,209.701 C241.872,209.587 241.894,209.451 241.94,209.315 C241.962,209.179 241.962,209.042 241.962,208.884 L241.962,208.884 C241.962,208.77 241.94,208.657 241.872,208.588 C241.735,208.407 241.645,208.248 241.577,208.044 C241.463,207.794 241.372,207.544 241.304,207.272 C241.236,207.068 241.191,206.841 241.213,206.614 C241.236,206.25 241.236,205.887 241.236,205.524 L241.236,205.501 C241.236,205.025 241.281,204.548 241.35,204.071 C241.418,203.663 241.463,203.232 241.463,202.8 L241.463,199.94 L241.508,196.308 L241.463,194.697 C241.44,194.424 241.44,194.152 241.418,193.88 C241.395,192.994 241.236,192.154 240.941,191.337 C240.646,190.543 240.237,189.839 239.67,189.204 C239.148,188.636 238.58,188.114 237.945,187.66 C237.536,187.365 237.105,187.115 236.651,186.934 C235.993,186.661 235.289,186.412 234.585,186.23 C234.109,186.094 233.632,186.026 233.133,186.003 C232.792,185.98 232.361,185.98 231.952,185.958 C231.68,185.958 231.566,185.958 231.476,185.958 C230.795,185.958 230.136,186.003 229.478,186.117 C229.16,186.185 228.865,186.23 228.547,186.275 C228.093,186.344 227.662,186.389 227.231,186.434 C226.164,186.548 225.074,186.639 223.985,186.707 C222.078,186.798 219.99,186.979 217.879,187.183 C216.994,187.297 216.267,187.365 215.541,187.41 C215.359,187.433 215.042,187.456 214.746,187.478 C214.406,187.501 214.156,187.501 213.907,187.456 C213.702,187.433 213.498,187.41 213.271,187.388 C212.499,187.274 211.75,187.229 211.001,187.229 C209.004,187.229 206.983,187.093 204.986,186.798 C202.784,186.48 200.628,186.298 198.426,186.298 C198.335,186.298 198.267,186.298 198.222,186.298 C197.654,186.298 197.087,186.298 196.542,186.344 C195.952,186.389 195.316,186.457 194.681,186.525 C194.113,186.593 193.5,186.639 192.865,186.684 C192.07,186.752 191.344,186.775 190.617,186.752 C190.095,186.729 189.573,186.684 189.029,186.639 C188.438,186.593 187.848,186.48 187.258,186.321 C186.554,186.139 185.851,185.912 185.17,185.617 C184.897,185.526 184.648,185.39 184.398,185.254 L183.989,185.004 L184.171,184.573 C184.239,184.505 184.262,184.414 184.262,184.301 C184.262,184.278 184.262,184.255 184.262,184.233 C184.216,184.051 184.126,183.915 183.944,183.847 C183.74,183.779 183.513,183.688 183.263,183.62 C183.104,183.552 182.922,183.483 182.764,183.415 C182.537,183.302 182.287,183.211 182.037,183.166 C181.788,183.12 181.561,182.984 181.402,182.78 L180.494,181.668 C180.448,181.622 180.403,181.599 180.357,181.577 C180.335,181.577 180.312,181.577 180.289,181.577 C180.221,181.577 180.176,181.622 180.131,181.69 C180.108,181.758 180.108,181.826 180.108,181.895 C180.108,181.963 180.108,182.031 180.131,182.076 L180.244,182.348 L180.471,182.961 L180.743,183.688 L180.721,183.688 C180.335,183.71 179.994,183.801 179.677,183.96 C179.518,184.051 179.268,184.187 179.041,184.323 C178.723,184.482 178.542,184.641 178.383,184.845 C178.315,184.913 178.246,184.982 178.156,185.027 C178.042,185.095 177.906,185.118 177.77,185.072 C177.566,185.027 177.361,184.891 177.225,184.709 L176.226,183.415 C176.158,183.347 176.09,183.302 175.999,183.302 C175.977,183.279 175.954,183.279 175.954,183.279 C175.863,183.279 175.795,183.325 175.75,183.393 C175.704,183.483 175.682,183.574 175.682,183.665 C175.682,183.71 175.682,183.779 175.704,183.847 L175.863,184.21 L176.158,184.936 L176.385,185.39 L176.635,185.731 L176.816,186.003 L177.202,186.661 C177.225,186.707 177.248,186.752 177.248,186.798 C177.248,186.866 177.225,186.911 177.18,186.956 C177.021,187.161 176.839,187.365 176.635,187.569 C176.476,187.728 176.272,187.842 176.067,187.887 C175.818,187.955 175.613,188.159 175.545,188.409 C175.477,188.636 175.409,188.886 175.386,189.113 C175.341,189.499 175.159,189.839 174.91,190.112 C174.705,190.293 174.547,190.497 174.41,190.724 C174.183,191.065 173.956,191.405 173.684,191.723 C173.48,191.973 173.321,192.268 173.185,192.54 C173.048,192.881 172.867,193.199 172.617,193.448 L171.187,194.992 C171.164,195.105 171.142,195.219 171.142,195.332 C171.142,195.423 171.142,195.491 171.164,195.559 C171.21,195.877 171.301,196.195 171.391,196.49 C171.482,196.74 171.618,196.944 171.777,197.148 C171.936,197.33 172.095,197.511 172.299,197.67 C172.504,197.829 172.753,197.965 173.003,198.056 C173.117,198.079 173.23,198.102 173.344,198.102 C173.525,198.102 173.707,198.056 173.866,197.965 C174.024,197.875 174.183,197.829 174.365,197.784 C174.615,197.716 174.887,197.716 175.159,197.761 C175.545,197.829 175.886,197.897 176.204,197.965 C176.09,197.943 176.272,197.943 176.453,197.943 C176.635,197.943 176.839,197.92 177.043,197.897 C177.384,197.806 177.724,197.738 178.042,197.693 C178.224,197.648 178.519,197.557 178.791,197.443 C178.996,197.353 179.223,197.353 179.45,197.421 C179.699,197.511 179.949,197.625 180.199,197.761 C180.766,198.079 181.379,198.283 182.015,198.397 C182.242,198.442 182.469,198.487 182.673,198.533 C182.968,198.578 183.331,198.624 183.672,198.624 C183.921,198.646 184.171,198.692 184.421,198.805 C184.875,199.032 185.283,199.373 185.578,199.804 C185.964,200.371 186.305,200.962 186.6,201.597 C186.827,202.074 187.099,202.573 187.371,203.05 C187.576,203.39 187.757,203.799 187.916,204.208 C188.143,204.775 188.37,205.274 188.62,205.797 C188.779,206.16 188.938,206.523 189.074,206.909 C189.119,207.022 189.187,207.136 189.255,207.227 C189.891,208.089 190.754,208.725 191.752,209.042 L192.365,209.247 L191.73,209.814 L190.436,210.972 L189.755,211.63 L189.21,212.22 C189.051,212.47 188.892,212.742 188.688,212.992 C188.529,213.242 188.393,213.446 188.302,213.673 C188.211,213.877 188.166,214.082 188.166,214.309 C188.166,214.399 188.189,214.49 188.189,214.581 C188.257,214.921 188.393,215.239 188.552,215.534 L188.892,216.102 L189.301,216.647 L190.527,217.804 L191.071,218.349 L191.571,218.871 L191.843,219.212 L192.66,220.233 L194.09,221.754 L194.839,222.458 L195.43,222.912 L195.906,223.229 L196.247,223.388 L196.428,223.411 C196.633,223.933 196.973,224.41 197.382,224.773 C197.541,224.932 197.745,225.045 197.972,225.091 C198.176,225.136 198.358,225.181 198.562,225.227 C198.607,225.227 198.653,225.227 198.698,225.227 C198.789,225.227 198.857,225.227 198.948,225.204 L199.084,225.159 L198.017,221.504 C197.972,221.368 197.881,221.255 197.722,221.232 L196.746,221.005 C196.655,220.959 196.61,220.869 196.633,220.801 C196.701,220.596 196.769,220.392 196.837,220.188 C196.86,220.142 196.882,220.051 196.882,219.983 C196.882,219.779 196.769,219.597 196.587,219.507 C196.428,219.416 196.247,219.348 196.065,219.28 C195.815,219.234 195.589,219.098 195.384,218.962 C195.112,218.758 194.839,218.553 194.567,218.326 C194.204,218.031 193.886,217.645 193.659,217.237 C193.455,216.851 193.251,216.465 193.024,216.102 C192.819,215.739 192.728,215.421 192.683,215.08 C192.638,214.717 192.728,214.354 192.955,214.036 C193.182,213.718 193.5,213.446 193.841,213.287 C194.272,213.083 194.703,212.879 195.135,212.674 C195.52,212.493 195.906,212.311 196.315,212.152 C196.701,212.016 197.041,211.812 197.382,211.585 C197.609,211.403 197.836,211.267 198.085,211.131 C198.585,210.813 198.971,210.404 199.266,209.882 L199.402,209.633 L199.969,210.79 L200.196,211.29 L200.378,211.676 L200.741,212.198 L201.195,212.856 L201.876,213.832 L202.444,214.74 L203.056,215.739 L203.352,216.215 L204.214,217.736 L204.555,218.394 L204.986,219.257 L205.213,219.779 L205.372,220.256 C205.485,220.505 205.553,220.755 205.599,221.028 C205.621,221.232 205.667,221.436 205.712,221.663 C205.712,221.754 205.735,221.845 205.735,221.935 C205.735,222.253 205.621,222.548 205.394,222.775 L204.668,223.592 L204.555,223.774 C203.851,223.956 203.329,224.546 203.215,225.272 L203.193,225.431 L207.074,225.431 C207.392,225.091 207.574,224.659 207.574,224.205 C207.574,223.933 207.505,223.661 207.392,223.411 L207.278,223.207 C207.256,223.116 207.301,223.048 207.369,223.048 L207.369,223.048 L207.823,223.048 C208.118,223.002 208.3,222.753 208.3,222.48 C208.3,222.435 208.3,222.412 208.277,222.367 L208.096,221.459 L207.778,220.347 L207.415,219.007 L207.051,217.759 L206.824,216.851 L206.62,216.011 L206.484,215.466 L206.348,214.921 L206.257,214.422 L206.144,213.9 L206.053,213.514 L205.803,212.561 C205.667,212.13 205.508,211.676 205.394,211.244 C205.213,210.586 204.963,209.928 204.645,209.338 L204.441,208.952 L206.212,208.906 C206.348,208.906 206.461,208.906 206.598,208.906 C207.097,208.906 207.642,208.906 208.164,208.861 C209.004,208.815 209.889,208.884 210.751,209.088 C211.977,209.338 213.203,209.474 214.451,209.496 C214.588,209.519 214.701,209.519 214.837,209.519 C216.199,209.519 217.538,209.383 218.855,209.111 C219.786,208.929 220.467,208.793 221.148,208.657 L221.284,208.634 C221.783,209.042 222.328,209.406 222.918,209.678 L222.986,209.723 L222.668,211.517 C222.691,211.88 222.986,212.175 223.349,212.175 C223.644,212.175 223.917,212.016 224.008,211.744 L224.575,210.246 L225.415,210.427 L225.211,211.903 C225.211,211.948 225.211,211.993 225.211,212.039 C225.211,212.175 225.233,212.311 225.301,212.425 C225.415,212.606 225.574,212.697 225.778,212.72 C225.824,212.72 225.846,212.72 225.869,212.72 C226.005,212.72 226.141,212.697 226.277,212.674 C226.459,212.629 226.618,212.493 226.641,212.288 L226.958,210.631 L227.73,210.677 C227.776,210.972 227.798,211.29 227.798,211.607 C227.798,211.653 227.798,211.698 227.798,211.744 C227.798,212.198 227.753,212.629 227.708,213.083 C227.662,213.469 227.571,213.832 227.435,214.172 C227.117,214.899 226.754,215.648 226.346,216.352 L226.073,216.828 L225.574,217.713 C225.37,218.19 225.074,218.621 224.734,219.007 L224.462,219.325 L224.144,219.643 L223.327,220.324 L222.691,220.869 L221.897,221.527 C221.806,221.595 221.715,221.686 221.624,221.754 C221.102,222.231 220.694,222.821 220.421,223.456 L220.353,223.661 C220.013,223.797 219.695,223.978 219.422,224.183 C219.082,224.478 218.81,224.818 218.628,225.227 L218.537,225.431 L222.078,225.431 L222.396,225.431 L222.487,225.408 L223.599,223.343 C223.622,223.275 223.69,223.229 223.758,223.229 C223.803,223.229 223.849,223.252 223.871,223.275 L224.166,223.524 C224.212,223.57 224.28,223.615 224.325,223.615 C224.371,223.615 224.393,223.592 224.416,223.592 C224.53,223.524 224.643,223.456 224.734,223.366 L224.847,223.229 L225.279,222.73 L225.619,222.276 L226.845,220.21 C227.027,219.938 227.185,219.711 227.344,219.484 C227.503,219.257 227.753,218.985 228.048,218.758 L228.684,218.281 L231.09,216.488 C231.18,216.374 231.271,216.238 231.294,216.079 L231.975,213.128 L232.111,212.606 L232.429,211.834 L232.769,211.244 L233.042,210.972 C233.405,211.676 233.882,212.334 234.404,212.901 C234.721,213.242 235.017,213.537 235.312,213.832 C235.675,214.218 235.993,214.626 236.242,215.103 C236.742,216.056 237.105,217.123 237.309,218.19 C237.423,218.78 237.513,219.37 237.627,219.961 C237.65,220.188 237.672,220.46 237.672,220.732 C237.672,221.005 237.65,221.277 237.604,221.55 C237.582,221.731 237.513,221.89 237.4,222.026 C237.286,222.162 237.173,222.321 237.082,222.48 C237.014,222.594 236.991,222.73 236.969,222.889 L236.946,223.32 L236.515,223.774 L236.061,224.183 C235.902,224.41 235.811,224.637 235.766,224.886 L235.675,225.408 L239.534,225.408 L239.897,224.796 C239.988,224.659 240.01,224.5 240.01,224.342 C240.01,224.273 240.01,224.183 239.988,224.115 C239.965,223.978 239.897,223.819 239.806,223.683 C239.761,223.592 239.715,223.479 239.67,223.366 C239.624,223.229 239.602,223.093 239.579,222.957 C239.579,222.866 239.602,222.775 239.647,222.707 C239.715,222.616 239.806,222.571 239.897,222.548 L240.328,222.458 C240.396,222.458 240.442,222.412 240.487,222.367 C240.578,222.253 240.623,222.117 240.623,221.981 C240.623,221.89 240.601,221.799 240.578,221.731 C240.532,221.64 240.51,221.55 240.487,221.459 C240.374,220.619 240.215,219.711 240.033,218.826 L239.897,218.077 L239.647,216.215 C239.602,215.966 239.534,215.671 239.511,215.375 C239.466,215.058 239.466,214.763 239.534,214.468 C239.647,213.923 239.738,213.355 239.806,212.788 C239.874,212.266 239.942,211.766 240.01,211.267 C240.033,211.131 240.033,210.995 240.033,210.836 C240.033,210.722 240.033,210.586 240.033,210.472 C239.988,210.087 239.851,209.723 239.647,209.428 C239.556,209.269 239.466,209.111 239.397,208.929 L239.148,208.203 C239.125,208.112 239.08,208.044 239.057,207.976 C238.898,207.454 238.785,206.931 238.762,206.409 L238.762,206.409 z" fill="#000000" id="path5200"/>
    <g id="polygon5277">
      <path d="M206.575,76.631 L211.855,92.289 L228.241,92.289 L215.132,102.121 L219.866,117.778 L206.575,108.493 L193.284,117.778 L198.018,102.121 L184.909,92.289 L201.295,92.289 L206.575,76.631 z" fill="#FDFF00"/>
      <path d="M206.575,76.631 L211.855,92.289 L228.241,92.289 L215.132,102.121 L219.866,117.778 L206.575,108.493 L193.284,117.778 L198.018,102.121 L184.909,92.289 L201.295,92.289 L206.575,76.631 z" fill-opacity="0" stroke="#605A00" stroke-width="2.731"/>
    </g>
    <text transform="matrix(1, 0, 0, 1, 206.537, 57.625)" id="tspan5292">
      <tspan x="-14.004" y="4" font-family="Helvetica" font-size="12" fill="#000000">Stars</tspan>
    </text>
    <text transform="matrix(1, 0, 0, 1, 100.961, 96.965)" id="tspan5298">
      <tspan x="-16.741" y="21.5" font-family="Helvetica" font-size="58.404" fill="#B3B3B3">?</tspan>
    </text>
    <text transform="matrix(1, 0, 0, 1, 100.276, 65.125)" id="tspan5302">
      <tspan x="-42.015" y="-3.5" font-family="Helvetica" font-size="12" fill="#000000">Question Marks</tspan>
    </text>
    <text transform="matrix(1, 0, 0, 1, 206.575, 273.726)" id="tspan5090">
      <tspan x="-19.508" y="4" font-family="Helvetica" font-size="12" fill="#0000FF">High</tspan>
    </text>
  </g>
</svg>
