<svg width="758.4" height="444.7" xmlns="http://www.w3.org/2000/svg">
 <style type="text/css">.st0{fill:#B2D5F1;}
	.st1{fill:none;stroke:#010101;stroke-width:2;}
	.st2{fill:#010101;}
	.st3{font-family:'ArialMT';}
	.st4{font-size:36px;}
	.st5{fill:#4C87C6;}
	.st6{font-size:18.6388px;}
	.st7{fill:#0A090B;}
	.st8{fill:#23201F;}
	.st9{fill:#A2A0A0;}
	.st10{fill:#090909;}
    .st11{fill:#0101ff;}</style>
 <g>
  <title>Layer 1</title>
  <g id="Layer_1">
   <g id="XMLID_2_">
    <path id="XMLID_6_" class="st0" d="m119.199997,63.799999c-43.899994,-0.799999 -129,16.399998 -117.099999,53.399998c12,37 69.200005,45.199997 93.099999,34.5c23.900002,-10.699997 -37.199997,51.699997 79.800003,68.199997c117.100006,16.399994 176.899994,-9.900009 159.600006,-28.800003c-17.299988,-18.899994 102.399994,44.400009 158.300018,8.199997c55.899963,-36.099991 -57.200012,-70.599991 -33.300018,-65.699982c23.899994,4.899994 97.100006,-1.600006 73.199982,-63.300003c-23.899963,-61.600002 -239.499969,-14.000004 -215.499969,-23.000004c23.899994,-9 -35.899994,-54.200001 -110.400009,-45.200001c-74.400009,9.100001 -79.700012,25.5 -87.700012,61.700001l0,0z"/>
    <path id="XMLID_5_" class="st1" d="m119.199997,63.799999c-43.899994,-0.799999 -129,16.399998 -117.099999,53.399998c12,37 69.200005,45.199997 93.099999,34.5c23.900002,-10.699997 -37.199997,51.699997 79.800003,68.199997c117.100006,16.399994 176.899994,-9.900009 159.600006,-28.800003c-17.299988,-18.899994 102.399994,44.400009 158.300018,8.199997c55.899963,-36.099991 -57.200012,-70.599991 -33.300018,-65.699982c23.899994,4.899994 97.100006,-1.600006 73.199982,-63.300003c-23.899963,-61.600002 -239.499969,-14.000004 -215.499969,-23.000004c23.899994,-9 -35.899994,-54.200001 -110.400009,-45.200001c-74.400009,9.100001 -79.700012,25.5 -87.700012,61.700001l0,0"/>
    <text id="XMLID_4_" transform="matrix(1,0,0,1,181.9382,120.757) " class="st11 st3 st4" y="-77" x="-7">Github</text>
   </g>
  </g>
  <line fill="none" stroke="#000000" stroke-width="5" x1="84.599976" y1="380.299988" x2="101.599976" y2="102.299988" id="svg_2"/>
  <line fill="none" stroke="#000000" stroke-width="5" x1="336.599976" y1="393.299988" x2="333.599976" y2="126.299988" id="svg_3"/>
  <line fill="none" stroke="#000000" stroke-width="5" x1="615.599976" y1="401.299988" x2="334.599976" y2="121.299988" id="svg_4"/>
  <text fill="#000000" stroke="#000000" stroke-width="0" x="159.599976" y="275.299988" id="svg_5" font-size="24" font-family="serif" text-anchor="middle" xml:space="preserve">git push/pull</text>
  <text fill="#000000" stroke="#000000" stroke-width="0" x="411.614044" y="324.803112" font-size="24" font-family="serif" text-anchor="middle" xml:space="preserve" id="svg_6">git push/pull</text>
  <text fill="#000000" stroke="#000000" stroke-width="0" x="577.614044" y="269.803112" font-size="24" font-family="serif" text-anchor="middle" xml:space="preserve" id="svg_7">git push/pull</text>
  <line fill="none" stroke="#000000" stroke-width="5" x1="109.599976" y1="77.299988" x2="327.599976" y2="96.299988" id="svg_9"/>
  <text fill="#000000" stroke="#000000" stroke-width="0" x="300" y="77.299988" id="svg_10" font-size="24" font-family="serif" text-anchor="middle" xml:space="preserve">fork on github/pull request</text>
 </g>
 <g>
  <title>Layer 4</title>
  <g id="Layer_2">
   <g id="XMLID_7_">
    <rect id="XMLID_14_" x="74.4" y="77.1" class="st5" width="49.5" height="43.7"/>
    <ellipse id="XMLID_13_" class="st5" cx="99.2" cy="120.8" rx="24.8" ry="7.3"/>
    <ellipse id="XMLID_12_" class="st5" cx="99.2" cy="77.1" rx="24.8" ry="7.3"/>
    <ellipse id="XMLID_11_" class="st1" cx="99.2" cy="77.1" rx="24.8" ry="7.3"/>
    <path id="XMLID_10_" class="st1" d="m123.900002,77.099998l0,43.700005c0,4 -11.099998,7.300003 -24.800003,7.300003s-24.799995,-3.300003 -24.799995,-7.300003l0,-43.700005"/>
    <text id="XMLID_9_" transform="matrix(1,0,0,1,41.1302,145.5113) " class="st11 st3 st6" x="65" y="0">rhildred/coop-postings</text>
   </g>
   <g id="XMLID_15_">
    <rect id="XMLID_22_" x="299.4" y="97.5" class="st5" width="49.5" height="43.7"/>
    <ellipse id="XMLID_21_" class="st5" cx="324.2" cy="141.1" rx="24.8" ry="7.3"/>
    <ellipse id="XMLID_20_" class="st5" cx="324.2" cy="97.5" rx="24.8" ry="7.3"/>
    <ellipse id="XMLID_19_" class="st1" cx="324.2" cy="97.5" rx="24.8" ry="7.3"/>
    <path id="XMLID_18_" class="st1" d="m348.899994,97.5l0,43.699997c0,4 -11.100006,7.300003 -24.800018,7.300003c-13.699982,0 -24.799988,-3.300003 -24.799988,-7.300003l0,-43.699997"/>
    <text id="XMLID_17_" transform="matrix(1,0,0,1,276.1302,165.8973) " class="st11 st3 st6" x="75" y="-60">yourteam/coop-postings</text>
   </g>
  </g>
  <g id="Layer_3">
   <g id="XMLID_23_" transform="translate(0,300) scale(0.10000000149011612,-0.10000000149011612) ">
    <path id="node1" class="st7" d="m223.899994,-260.299988l0,-52l8.599991,-5.799988c4.900009,-3.200012 9.600006,-5.100006 10.700012,-4.5c1.299988,0.899994 2.099991,20.099976 2.099991,47.299988l0,45.800003l225.899994,0l225.899994,0l0,-154.199997l0,-154.199982l-107.699951,0c-119.899994,0 -110.100006,1.299988 -118,-14.299988l-3.600006,-7.100037l125.500031,0l125.299988,0l0,175.600006l0,175.699982l-247.400024,0l-247.300018,0l0,-52.299988z"/>
    <path id="node2" class="st7" d="m152.600006,-318.100006c-35.499992,-15 -55.199997,-47.100006 -52.199997,-86.300018c2.099998,-29.5 20.599998,-55.899994 48.199997,-68.699982c9.600006,-4.5 16.300003,-5.800018 30.800003,-6.399994c28.299988,-1.300018 46.699997,6 65.099991,25.5c12.200012,13.099976 17.100006,22.5 21.200012,41.299988c3.399994,15 3.399994,17.600006 0.199982,31.299988c-4.5,20.300018 -11.799988,33.600006 -24.599991,45.600006c-17.100006,16.100006 -31.300003,21.600006 -55.900009,22.5c-17.599991,0.300018 -22.099991,-0.299988 -32.799988,-4.799988z"/>
    <path id="node3" class="st7" d="m540.599976,-349.799988c-1.299988,-2.799988 -11.599976,-20.799988 -22.900024,-40.299988c-11.099976,-19.5 -25.299957,-44.100006 -31.499969,-54.800018c-8.399994,-14.299988 -10.700012,-20.299988 -9,-22.100006c5.100006,-5.099976 9.200012,-1.699982 18.600006,15.200012c5.399994,9.600006 16.700012,29.5 25.299988,43.899994c8.400024,14.600006 15.400024,27 15.400024,27.399994c0,0.600006 3.899963,7.300018 8.399963,14.800018c8.100037,13.100006 8.400024,13.899994 4.700012,17.100006c-5,4.599976 -6.099976,4.399963 -9,-1.200012z"/>
    <path id="node4" class="st7" d="m231.800003,-475c-6.900009,-4.700012 -8.100006,-6.600006 -7.5,-12.200012s1.699997,-6.599976 9,-8.099976c4.699997,-1.100006 9.399994,-0.900024 10.300003,0c2.599991,2.599976 1.299988,24.599976 -1.5,25.299988c-1.100006,0.299988 -5.800003,-2 -10.300003,-5z"/>
    <path id="node5" class="st7" d="m446.600006,-475c-6.899994,-3.600006 -12.600006,-10.700012 -22.699982,-27.799988c-14.800018,-24.799988 -39,-63.799988 -42.800018,-68.5l-4.299988,-5.600037l-19.300018,10.300049c-10.5,5.799988 -27,15 -36.799988,20.799988c-9.600006,5.599976 -18,10.299988 -18.399994,10.299988c-0.600006,0 -7.899994,4.099976 -16.700012,9.200012c-25.699982,15 -34,18.199982 -54,21.799988c-65.099991,11.299988 -116.499992,-5.100006 -134.199997,-42.599976c-8.400002,-17.800049 -9.199997,-26.100037 -6.400002,-68.300049c2.100006,-32.099976 4.900002,-90.799988 10.300003,-204.299988l1.300003,-30.599976l56.999992,0c31.300003,0 72.199997,0.599976 90.800003,1.5l33.599991,1.299988l0,29.099976c0,16.100037 -0.899994,45 -1.899994,64.400024c-3.399994,61.700012 -5.100006,156.299988 -2.600006,156.299988c2.100006,0 16.900024,-6.899963 69.800018,-32.099976c31,-14.799988 37.899994,-16.700012 49,-12.799988c9,2.799988 11.600006,6.199951 34.899994,44.699951c9.600006,16.100037 23.100006,38.100037 30,49.200012c27.800018,45 29.5,51.600006 16.300018,66.400024c-10.200043,10.699982 -21.200043,13.299988 -32.900024,7.299988z"/>
    <path id="node6" class="st7" d="m331.399994,-540.299988c1.699982,-4.900024 30.399994,-18.799988 39.199982,-18.799988c7.700012,0 9.200012,0.899963 14.300018,9c3.199982,4.899963 5.100006,9.799988 4.699982,10.700012c-1.899963,2.699951 -59.099976,2.099976 -58.199982,-0.900024z"/>
   </g>
   <g transform="translate(0,300) scale(0.10000000149011612,-0.10000000149011612) " id="svg_1"/>
   <g id="XMLID_55_" transform="translate(0,300) scale(0.10000000149011612,-0.10000000149011612) ">
    <path id="node1_1_" class="st8" d="m2685.699951,-226.600006c-2.399902,-0.900009 -3.899902,-6.699997 -3.899902,-14.300003c0,-15.199997 -3.900146,-20.000015 -17,-20.000015c-8.5,0 -10.900146,2.100006 -19.400146,15.500015c-8.800049,14.600006 -10,15.5 -14.599854,10.600006c-4.5,-4.5 -4.200195,-5.800003 1.799805,-18.800003c6.700195,-13.300018 6.700195,-14.300018 1.5,-18.200012c-7.599854,-5.5 -7.299805,-5.799988 -21.799805,6.700012c-11.5,10 -13.300049,10.599991 -17.600098,6.699982c-3.899902,-4.199982 -3.300049,-6.099976 6.100098,-16.399994c10.599854,-11.799988 10.599854,-11.799988 4.899902,-18.799988l-5.5,-7l-14.300049,6.100006c-17.899902,7.899994 -22.399902,7.899994 -22.399902,0c0,-4.200012 3.599854,-7.600006 12.099854,-11.200012c14.900146,-6.399994 15.5,-9.699982 1.5,-9.699982c-24.299805,0 -30.899902,-28.200012 -8.5,-36.700012c6.400146,-2.399994 7.600098,-4.200012 6.100098,-12.700012c-2.399902,-16.100006 3.600098,-48.199982 12.100098,-65.199982c13.299805,-26.700012 36.099854,-44.299988 70,-54c1.799805,-0.600006 3.599854,-4.200012 3.599854,-8.200012c0,-6.099976 -1.800049,-7.599976 -10.300049,-9.099976c-5.799805,-0.900024 -23.699951,-6.700012 -40.299805,-12.700012c-16.400146,-6.099976 -43.100098,-15.799988 -59.700195,-21.799988l-29.699951,-10.900024l1.800049,-15.200012c1.5,-14.299988 0.899902,-16.099976 -8.800049,-26.699951c-5.800049,-6.400024 -13,-16.700012 -16.099854,-23c-8.800049,-17.600037 -15.800049,-52.5 -15.800049,-79.700012l0,-24.900024l-17.600098,2.100037c-13.899902,1.5 -18.5,0.899963 -21.5,-2.700012c-3,-3.600037 -2.699951,-4.900024 2.400146,-7.600037c3.299805,-1.799988 8.199951,-3.299988 10.599854,-3.299988c8.199951,0 5.5,-5.200012 -4.199951,-8.799988c-5.199951,-1.799988 -9.100098,-5.200012 -9.100098,-8.200012c0,-3.899963 2.100098,-4.899963 10.600098,-3.299988c12.100098,2.099976 12.399902,1.5 5.800049,-8.799988c-3.900146,-5.799988 -4.199951,-8.5 -1.800049,-10.900024c2.699951,-2.700012 5.5,-1.799988 11.199951,3.600037l7.600098,7l0,-7.600037c0,-7.899963 6.699951,-16.099976 10,-12.399963c1.199951,0.899963 2.099854,10 2.099854,19.699951c0,9.700012 0.600098,17.600037 1.5,17.600037s4.200195,-2.700012 7.900146,-6.400024c6.399902,-6.399963 18.199951,-7 20,-0.599976c0.899902,2.099976 -4.199951,9.700012 -10.900146,17c-11.199951,12.099976 -12.399902,15.200012 -12.399902,28.799988c0,41.5 11.199951,84 25.800049,97.599976c8.199951,7.600037 9.099854,6.400024 11.800049,-13c3.299805,-21.799988 8.199951,-21.199951 32.399902,2.700012l20.899902,20.600037l0,-11.900024c0,-6.700012 -2.099854,-39.400024 -4.5,-72.799988c-5.799805,-77.600037 -5.799805,-83.400024 0,-83.400024s5.800049,1.799988 -1.5,-133.399963c-8.5,-162.5 -8.5,-146.400024 0.300049,-148.900024l7.300049,-1.800049l-8.5,-3.599976c-4.899902,-1.799927 -9.699951,-3.299927 -10.899902,-3.299927s-8.200195,-4.200073 -15.200195,-9.100098c-13.599854,-10 -19.699951,-21.5 -17.299805,-32.099976c4.5,-17.900024 38.5,-37.599976 64.899902,-37.599976c13.600098,0 17.600098,1.199951 24.899902,8.5c10.600098,10.599976 13.900146,28.800049 9.100098,49.099976c-2.100098,8.5 -4.899902,16.099976 -6.399902,17c-6.100098,3.599976 -2.100098,7 9.699951,7.900024l12.099854,0.900024l-0.299805,119.200012l0,118.899963l7,0c5.5,0 7.599854,-2.399963 10.299805,-11.200012c9.100098,-32.099976 39.400146,-144.299988 49.700195,-183.699951c6.399902,-24.600037 12.399902,-46.100037 13.299805,-47.600037c0.900146,-1.800049 5.5,-3 9.700195,-3c7.299805,0 7,-0.599976 -6.100098,-15.199951c-30.899902,-34.600098 -16.100098,-61.200073 34.300049,-61.600098c50.599854,0 65.199951,34.900024 33,79.700073c-3,4.199951 -19.699951,65.5 -39.100098,143.700012c-27.300049,110.399963 -33,137.699951 -30.599854,144c1.5,4.199951 3.599854,37.299988 4.899902,73.099976c1.199951,35.799988 2.399902,65.799988 3.300049,66.400024c0.599854,0.599976 10.599854,-7 22.099854,-17.300049c23.300049,-20.899963 23.700195,-20.899963 36.100098,4.200012l6.399902,12.400024l24.400146,-12.400024c13.600098,-6.700012 24.600098,-13.299988 24.600098,-14.599976c0,-0.900024 -9.400146,-10.900024 -20.900146,-22.100037c-12.699951,-12.099976 -20.599854,-21.799988 -19.399902,-24.599976c1.199951,-3.299988 16.099854,-3.900024 90.099854,-2.400024c48.5,1.200012 92.800049,2.700012 98.200195,3.900024c9.699951,1.799988 11.5,4.899963 46.399902,72.5c19.699951,39.099976 36.100098,71.299988 36.100098,71.899963c0,1.5 -66.400146,48.200012 -74.600098,52.500031c-5.199951,2.699982 -7.300049,2.699982 -9.399902,-0.300018c-3,-3.599976 -28.200195,-107.299988 -28.200195,-115.200012c0,-8.199951 -6.099854,-10.299988 -23.699951,-7.899963c-55.800049,7 -53.699951,7.299988 -67.599854,-5.5l-12.400146,-11.200012l-25.800049,13.299988c-14.299805,7.600037 -26.399902,14.600037 -27,15.799988s0.900146,7 3.900146,12.700012c3,7 3.899902,12.100037 2.099854,13.600037c-4.199951,4.5 -119.199951,70 -134,76.699982c-11.199951,5.199982 -13,7 -12.099854,13.600006c0.899902,7.299988 3,8.5 20,11.799988c23.699951,4.899994 40.899902,14.600006 57.899902,33c17.600098,19.100006 28.199951,43.100006 30,68.200012c1.199951,19.699982 1.800049,20.599976 11.5,25.199982c6.100098,3 10.900146,7.899994 12.100098,12.700012c2.699951,10.299988 -5.800049,22.699982 -15.5,22.699982c-10.600098,0 -9.400146,3.900024 3,10c11.5,5.5 13,8.5 6.399902,13.900024c-3.300049,3 -7,2.399994 -16.699951,-2.400024c-15.5,-8.199982 -17.899902,-7.899994 -22.100098,1.200012c-2.699951,6.399994 -2.099854,8.799988 6.400146,18.200012c10.300049,11.799988 11.800049,18.799988 4.5,21.799988c-3.300049,1.200012 -8.5,-2.399994 -15.800049,-10.899994l-11.199951,-12.700012l-8.199951,7l-8.5,7l5.199951,14.300003c3.899902,10.900009 4.5,15.199997 1.800049,17.900009c-6.100098,6.099991 -12.700195,0.599991 -16.400146,-13.900009s-4.5,-15.199997 -16.099854,-10.599991c-7.300049,2.699982 -7.600098,3.899994 -6.100098,16.099991c2,13.400009 -2.199951,21 -9.800049,18.199997zm34.300049,-57.899994c13.300049,-7 31.5,-25.5 39.100098,-40c5.799805,-10.899994 3.299805,-17.600006 -3.900146,-11.200012c-3.300049,3 -15.800049,5.5 -34.599854,6.700012l-29.400146,2.100006l-1.800049,-7.600006c-3,-10.899994 -10,-12.700012 -13.599854,-3.299988c-1.800049,4.199982 -3,9.099976 -3,10.599976c0,3.600006 -59.699951,3.600006 -62.199951,-0.299988c-3.300049,-5.5 -7.600098,-3.299988 -7.600098,3.600006c0,9.399994 29.399902,37 45.800049,42.799988c18.399902,6.899994 54.5,5.100006 71.199951,-3.399994zm-138.300049,-45.200012c0,-6.100006 -5.199951,-15.200012 -7.300049,-13c-1.5,1.799988 -2.699951,9.100006 -2.099854,14.600006c0.599854,5.700012 9.399902,4.200012 9.399902,-1.600006zm207.699951,-11.5c0,-8.5 -8.800049,-7.600006 -10,0.899994c-0.899902,5.800018 0,7 4.5,6.100006c3.100098,-0.599976 5.5,-3.699982 5.5,-7zm-185.899902,-12.399994c4.199951,-30.600006 37.300049,-45.5 59.399902,-27c5.200195,4.199982 10,11.799988 11.200195,16.699982c2.099854,9.400024 10.599854,12.700012 10.599854,4.200012c0,-10.600006 10,-25.200012 20.300049,-30c21.5,-10.299988 45.5,2.700012 52.5,28.5c5.5,20.299988 10.600098,13.899994 10.300049,-12.100006c-0.300049,-50.299988 -37.300049,-92.199982 -84.900146,-96.099976c-25.799805,-1.800018 -45.5,5.199982 -64.599854,23c-18.5,17.299988 -27.900146,37.899994 -30,64.299988c-1.5,21.800018 3.599854,46.700012 9.399902,44.600006c2.199951,-0.700012 4.600098,-7.899994 5.800049,-16.100006zm62.5,4.5c1.199951,-14.899994 -9.699951,-27.899994 -23,-27.899994c-18.5,0 -33.699951,16.700012 -29.699951,32.700012c2.099854,7.899994 2.099854,7.899994 27,7l24.899902,-0.900024l0.800049,-10.899994zm73.399902,6.700012c17.899902,-4.899994 7.300049,-34.600006 -13.600098,-38.5c-19.099854,-3.299988 -34.599854,13.300018 -30.299805,32.700012c1.799805,8.199982 2.699951,8.5 19.099854,8.199982c9.300049,-0.299988 20.500244,-1.200012 24.800049,-2.399994zm-67.299805,-178.000031c5.199951,-1.5 4.5,-6.400024 -1.199951,-8.5c-5.800049,-2.099976 -23.300049,6.400024 -20.900146,10.299988c1.800049,2.800049 9.899902,2.200012 22.100098,-1.799988zm387.799805,-35.799988c3,-2.700012 -2.699951,-16.099976 -25.800049,-60.900024c-16.099854,-31.799988 -30.599854,-60 -32.399902,-62.5c-2.699951,-4.199951 -14.900146,-5.199951 -83.400146,-7l-80.399902,-2.099976l12.100098,12.700012c6.699951,6.700012 19.699951,18.799988 28.799805,26.700012l16.700195,14.599976l39.099854,-3.900024c21.5,-2.399963 39.699951,-3.599976 40.600098,-2.699951c1.800049,1.799988 13.599854,47.599976 21.800049,84.899963c3.599854,16.700012 7,32.100037 7.899902,34.299988c0.899902,2.700012 9.100098,-1.199951 26.399902,-13c13.700195,-9.799988 26.800293,-19.199951 28.600098,-21.099976zm-420,23.700012c6.399902,-4.5 11.5,-8.799988 11.5,-9.400024c0,-0.599976 -3.600098,-6.099976 -8.199951,-12.099976l-8.199951,-10.599976l7.899902,-6.700012l7.899902,-6.400024l-5.5,-10.599976c-8.5,-16.100037 -10.599854,-39.100037 -4.899902,-57.900024c5.199951,-18.5 25.800049,-53.099976 29.100098,-49.099976c1.199951,1.200012 6.099854,11.799988 10.899902,23.700012c12.100098,29.399963 12.399902,57 0.300049,79.699951l-8.5,16.100037l6.399902,7.899963l6.100098,7.900024l-6.100098,6.700012l-6.099854,6.399963l9.399902,9.100037l9.100098,8.799988l11.199951,-6.400024c6.099854,-3.299988 22.699951,-12.699951 37,-20.899963c14.300049,-7.900024 34.300049,-19.400024 44.899902,-24.900024c10.300049,-5.799988 18.800049,-11.799988 18.800049,-13.599976c0,-5.799988 -21.199951,-41.799988 -24.600098,-41.799988c-1.799805,0 -12.699951,9.099976 -24.299805,20c-12.100098,11.799988 -22.400146,19.399963 -24.900146,18.5c-5.5,-2.100037 -8.199951,-35.5 -8.199951,-99.100037c0,-25.799988 -1.199951,-48.5 -2.399902,-50.299988c-1.5,-2.400024 -19.700195,-3 -64.900146,-1.5c-34.599854,1.200012 -63.399902,2.700012 -64,3.599976c-0.899902,0.600037 1.800049,40 5.5,87.600037c8.199951,107 9.100098,104.899963 -25.5,71.299988c-15.800049,-15.200012 -24.899902,-22.099976 -25.800049,-19.400024c-3,10.300049 -7.899902,37 -7.899902,43.100037c0,5.799988 5.5,8.799988 43.399902,22.399963c23.700195,8.800049 44.300049,15.800049 45.800049,16.100037c2.100098,-0.299988 8.500244,-4 14.800049,-8.200012zm146.5,-529.400024c9.699951,-7.599976 16.699951,-22.400024 16.699951,-35.5c0,-7.300049 -2.099854,-10.300049 -9.699951,-14.300049c-12.699951,-6.699951 -40.600098,-6.699951 -53.100098,0c-18.199951,9.400024 -10.899902,24 24.600098,49.400024c11.800049,8.300049 11.5,8.300049 21.5,0.400024zm-170.099854,-6.699951c6.399902,-13.300049 6.399902,-36.400024 0,-42.400024c-6.399902,-6.699951 -27,-6.099976 -42.100098,0.900024c-14.299805,6.699951 -25.799805,17 -25.799805,23c0,8.800049 17.899902,20.300049 40.899902,25.800049c17.899902,4.499878 21.800049,3.599976 27,-7.300049z"/>
    <path id="node2_1_" class="st8" d="m2608.100098,-393.299988c-4.5,-4.5 -1.5,-18.799988 6.399902,-31.5c26.700195,-41.799988 93.400146,-42.399994 121.300049,-1.200012c10.900146,16.100006 11.199951,20.600006 1.5,22.100006c-4.199951,0.600006 -7,-1.199982 -8.5,-4.899994c-0.899902,-3.299988 -7.599854,-11.5 -14.899902,-18.200012c-15.5,-14.299988 -32.400146,-18.5 -53.100098,-12.699982c-17,4.5 -35.800049,21.799988 -39.699951,36.699982c-3,10.899994 -8.200195,14.799988 -13,9.700012z"/>
    <path id="node3_1_" class="st8" d="m2631.699951,-348.5c-2.699951,-9.399994 0.899902,-18.5 7.899902,-18.5c5.200195,0 6.100098,1.799988 5.200195,11.200012c-0.900146,13.099976 -9.699951,17.599976 -13.100098,7.299988z"/>
    <path id="node4_1_" class="st8" d="m2712.699951,-360c0.600098,-9.100006 2.100098,-11.5 7,-11.5s6.100098,2.100006 6.100098,10.600006c0,8.799988 -1.200195,10.899994 -7,11.5c-6.400146,0.899994 -7,0 -6.100098,-10.600006z"/>
    <path id="node5_1_" class="st8" d="m3008,-552.799988c-2.399902,-8.5 -8.800049,-34 -13.899902,-55.799988l-9.700195,-40.299988l6.700195,-10.600037l6.699951,-10.899963l25.5,53.099976c13.899902,29.099976 25.5,53.700012 25.5,54.599976c0,0.900024 -8.199951,7 -17.900146,13.900024l-18.199951,12.099976l-4.699951,-16.099976z"/>
    <path id="node6_1_" class="st8" d="m2888,-655c-13.300049,-18.5 0,-28.799988 13.600098,-10.900024c7,9.100037 7.599854,11.800049 4.5,15.5c-5.700195,6.900024 -10.900146,5.400024 -18.100098,-4.599976z"/>
   </g>
   <g id="XMLID_45_" transform="translate(0,300) scale(0.10000000149011612,-0.10000000149011612) ">
    <path id="node9" class="st9" d="m2648.699951,-281.200012c-16.399902,-5.799988 -45.800049,-33.399994 -45.800049,-42.799988c0,-7 4.199951,-9.100006 7.600098,-3.600006c2.399902,3.899994 62.199951,3.899994 62.199951,0.299988c0,-1.5 1.199951,-6.399994 3,-10.600006c3.600098,-9.399994 10.600098,-7.599976 13.600098,3.300018l1.799805,7.600006l29.400146,-2.100006c18.800049,-1.200012 31.199951,-3.600006 34.599854,-6.700012c7.300049,-6.399994 9.700195,0.300018 3.900146,11.200012c-7.600098,14.600006 -25.800049,33 -39.100098,40c-16.599854,8.600006 -52.699951,10.399994 -71.199951,3.399994z"/>
    <path id="node10" class="st9" d="m2572.300049,-328.100006c-0.600098,-5.5 0.600098,-12.700012 2.100098,-14.600006c2.099854,-2.100006 7.299805,7 7.299805,13c0,5.800018 -8.800049,7.300018 -9.399902,1.600006z"/>
    <path id="node11" class="st9" d="m2779.399902,-340.299988c0.600098,-3.600006 3,-7 5.5,-7c6.699951,0 5.800049,11.799988 -0.899902,13c-4.600098,1 -5.5,-0.200012 -4.600098,-6z"/>
    <path id="node12" class="st9" d="m2590.5,-349.399994c-4.899902,-17.899994 -1.800049,-49.399994 6.100098,-67.600006c8.799805,-20 32.399902,-42.099976 52.5,-48.799988c19.399902,-6.399994 47.599854,-4.5 64.899902,4.200012c17.899902,9.099976 35.800049,27.899994 45.199951,47.899994c7,14.600006 8.800049,22.100006 8.800049,40.299988c0.300049,26.100006 -4.899902,32.399994 -10.300049,12.100006c-7,-25.799988 -30.899902,-38.799988 -52.5,-28.5c-10.300049,4.899994 -20.300049,19.399994 -20.300049,30c0,8.5 -8.5,5.200012 -10.599854,-4.200012c-1.199951,-4.899994 -6.100098,-12.399994 -11.199951,-16.699982c-22.100098,-18.5 -55.200195,-3.600006 -59.400146,27c-2.899902,19.499969 -8.599854,21.299988 -13.199951,4.299988zm30.600098,-53.600006c3.899902,-14.899994 22.699951,-32.100006 39.699951,-36.700012c20.600098,-5.799988 37.600098,-1.5 53.100098,12.700012c7.300049,6.700012 13.899902,14.899994 14.899902,18.200012c1.5,3.599976 4.199951,5.5 8.5,4.899994c9.699951,-1.5 9.400146,-6.100006 -1.5,-22.100006c-27.899902,-41.200012 -94.599854,-40.600006 -121.300049,1.200012c-7.899902,12.699982 -10.899902,27 -6.399902,31.5c4.799805,5.099976 10,1.199982 13,-9.700012z"/>
    <path id="node13" class="st9" d="m2613.199951,-344.200012c-3.899902,-16.100006 11.199951,-32.700012 29.699951,-32.700012c13.300049,0 24.300049,13 23,27.900024l-0.899902,10.899994l-24.900146,0.899994c-24.699951,0.900024 -24.699951,0.900024 -26.899902,-7zm31.600098,-11.5c0.899902,-9.399994 0,-11.200012 -5.199951,-11.200012c-7,0 -10.600098,9.100006 -7.900146,18.5c3.400146,10.200012 12.199951,5.700012 13.100098,-7.299988z"/>
    <path id="node14" class="st9" d="m2695.399902,-348.200012c-2.399902,-11.5 2.399902,-23.299988 12.100098,-29.700012c16.699951,-10.899994 42.399902,4.200012 40.299805,24.300018c-1.199951,10.600006 -7,13 -33.399902,13.600006c-16.299805,0.299988 -17.199951,0 -19,-8.200012zm30.300049,-12.699982c0,-8.5 -1.199951,-10.600006 -6.100098,-10.600006s-6.399902,2.400024 -7,11.5c-0.899902,10.600006 -0.299805,11.5 6.100098,10.600006c5.800049,-0.600006 7,-2.700012 7,-11.5z"/>
    <path id="node15" class="st9" d="m2649.899902,-518.599976c-2.399902,-3.900024 15.199951,-12.400024 20.899902,-10.299988c5.800049,2.099976 6.400146,7 1.200195,8.5c-12.100098,3.999939 -20.199951,4.599976 -22.100098,1.799988z"/>
    <path id="node16" class="st9" d="m3005,-522.200012c-0.899902,-2.099976 -4.199951,-17.599976 -7.899902,-34.299988c-8.200195,-37.299988 -20,-83.100037 -21.800049,-84.900024c-0.900146,-0.899963 -19.100098,0.299988 -40.600098,2.700012l-39.099854,3.900024l-16.700195,-14.600037c-9.099854,-7.899963 -22.099854,-20 -28.799805,-26.700012l-12.100098,-12.699951l80.399902,2.099976c68.5,1.799988 80.700195,2.700012 83.400146,7c1.800049,2.400024 16.399902,30.599976 32.399902,62.5c23,44.900024 28.800049,58.200012 25.800049,60.900024c-1.800049,1.799988 -14.899902,11.199951 -28.5,20.899963c-17.399902,12 -25.600098,15.900024 -26.5,13.200012zm43.699951,-40.599976c0,-0.900024 -11.5,-25.5 -25.5,-54.599976l-25.5,-53.100037l-6.699951,10.900024l-6.699951,10.599976l9.699951,40.299988c5.199951,21.800049 11.5,47.300049 13.899902,55.800049l4.5,16.099976l18.199951,-12.099976c9.900146,-7.000061 18.100098,-13.000061 18.100098,-13.900024zm-142.599854,-87.700012c3,-3.599976 2.399902,-6.400024 -4.5,-15.5c-13.600098,-17.900024 -27,-7.599976 -13.600098,10.900024c7.199951,10.099976 12.399902,11.599976 18.100098,4.599976z"/>
    <path id="node17" class="st9" d="m2579.600098,-540.700012c-37.899902,-13.599976 -43.399902,-16.700012 -43.399902,-22.400024c0,-6.099976 4.899902,-32.699951 7.899902,-43.099976c0.899902,-2.700012 10,4.200012 25.800049,19.400024c34.599854,33.699951 33.699951,35.799988 25.5,-71.300049c-3.600098,-47.599976 -6.400146,-87 -5.5,-87.599976c0.599854,-0.900024 29.399902,-2.400024 64,-3.599976c45.199951,-1.5 63.399902,-0.900024 64.899902,1.5c1.199951,1.799988 2.400146,24.599976 2.400146,50.299988c0,63.700012 2.699951,97 8.199951,99.099976c2.399902,0.900024 12.699951,-6.700012 24.899902,-18.5c11.5,-10.899963 22.400146,-20 24.300049,-20c3.300049,0 24.600098,36.099976 24.600098,41.799988c0,1.799988 -8.5,7.900024 -18.800049,13.600037c-10.600098,5.5 -30.600098,17 -44.900146,24.899963c-14.299805,8.200012 -30.899902,17.600037 -37,20.900024l-11.199951,6.399963l-9.099854,-8.799988l-9.400146,-9.099976l6.100098,-6.400024l6.099854,-6.700012l-6.099854,-7.899963l-6.400146,-7.900024l8.5,-16.099976c12.100098,-22.700012 11.800049,-50.299988 -0.299805,-79.700012c-4.900146,-11.799988 -9.700195,-22.399963 -10.900146,-23.700012c-3.300049,-3.899963 -24,30.600037 -29.099854,49.100037c-5.800049,18.799988 -3.600098,41.799988 4.899902,57.899963l5.5,10.600037l-7.899902,6.399963l-7.900146,6.700012l8.199951,10.600037c4.5,6.099976 8.200195,11.5 8.200195,12.099976c0,2.099976 -22.700195,17.299988 -26.100098,17.299988c-1.700195,0 -22.400146,-7 -46,-15.799988z"/>
    <path id="node20" class="st9" d="m2764.899902,-1062.199951c-35.5,-25.5 -42.800049,-40 -24.600098,-49.400024c12.400146,-6.699951 40.300049,-6.699951 53.100098,0c7.600098,3.900024 9.699951,7 9.699951,14.300049c0,13 -7,27.900024 -16.699951,35.5c-10,7.799927 -9.699951,7.799927 -21.5,-0.400024z"/>
    <path id="node21" class="st9" d="m2589.300049,-1061.300049c-23,-5.5 -40.899902,-17 -40.899902,-25.800049c0,-6.099976 11.5,-16.399902 25.799805,-23c15.200195,-7 35.800049,-7.599976 42.100098,-0.899902c6.399902,6.099976 6.399902,29.099976 0,42.399902c-5.199951,10.900146 -9.100098,11.800049 -27,7.300049z"/>
   </g>
   <g id="XMLID_47_" transform="translate(0,300) scale(0.10000000149011612,-0.10000000149011612) ">
    <path id="node1_2_" class="st10" d="m5329.100098,-375.700012c-3.5,-1.5 -10.600098,-4.299988 -15.899902,-6.5c-12.600098,-5.299988 -31.200195,-25.899994 -35,-39c-10.300293,-36 4,-70.899994 35.699707,-87.600006c14.800293,-7.800018 46.800293,-8.600006 60.400391,-1.299988c28.199707,15.100006 40.799805,35.199982 41,65.399994c0,20.899994 -5,34 -19.100098,48.799988c-17.300293,18.200012 -49,27.700012 -67.100098,20.200012z"/>
    <path id="node2_2_" class="st10" d="m4914,-508.600006c-7.5,-2.300018 -14.100098,-5.500031 -14.299805,-6.800018c-0.5,-1.5 2.799805,-15.299988 7,-31.200012s9.599609,-34.199951 11.299805,-41.299988c9.299805,-34.700012 14.299805,-54.599976 18.899902,-71.5c2.5,-10.299988 5.5,-19.599976 6.5,-20.599976c1.300293,-1.299988 7.800293,-0.5 14.600098,1.5c14.799805,4.5 16.399902,3.299988 16.399902,-15.600037l0,-13.299988l78,0l78,0l0,17.600037l0,17.599976l-77.199707,0.5l-77.200195,0.799988l-7,25.200012c-3.799805,13.799988 -9.299805,34.200012 -12.299805,45.299988c-9.800293,37 -17.600098,65.400024 -21.100098,77.700012c-2,6.5 -3.800293,13.799988 -3.800293,15.600006c-0.199707,4.300018 -0.199707,4.300018 -17.799805,-1.5z"/>
    <path id="node3_2_" class="st10" d="m5402.100098,-520.400024c-14.100098,-2.5 -29.700195,-8.799988 -34.700195,-14.099976c-2.799805,-3 -9.799805,-14.800049 -15.299805,-26.400024c-12.600098,-24.900024 -26.200195,-40.5 -45.299805,-51.799988c-24.700195,-14.299988 -35.200195,-16.900024 -90.800293,-20.600037c-28.399902,-1.799988 -54.600098,-4 -58.399902,-5l-7,-1.5l0,-24.699951c0,-13.600037 1,-25.400024 2.299805,-26.400024c1.300293,-0.799988 28.900391,-2 61.100098,-2.799988c54.100098,-1.5 60.399902,-1 81.300293,3.799988c28.899902,7 59.399902,22.099976 77,38c7.5,6.799988 14.299805,12.599976 15.099609,12.599976c7.300293,0.300049 28.700195,-87 30.400391,-125.299988c0.799805,-13.099976 0.799805,-13.099976 -8.100098,-15.599976c-4.800293,-1.5 -12.100098,-2.5 -16.399902,-2.5c-4,0 -25.900391,-2.799988 -48.300293,-6c-32,-4.799988 -42.299805,-7.299988 -48.299805,-11.799988c-7.300293,-5.5 -10.100098,-10.800049 -51.800293,-106.700012c-2,-4 -13.099609,-30.200012 -25.199707,-57.900024c-11.800293,-27.700012 -27.399902,-63.700012 -34.5,-79.999939c-7,-16.100098 -12.300293,-29.900024 -11.800293,-30.200073c2.5,-2.299927 50.600098,-24.400024 52.600098,-24.400024c1,0 10.300293,13.600098 20.600098,30.200073c10.100098,16.599976 19.100098,30.199951 19.899902,30.199951c0.800293,0 2.300293,-14.799927 2.800293,-33c0.799805,-17.900024 1.799805,-33.199951 2.299805,-33.699951c0.5,-0.5 12.799805,-1.300049 27.399902,-1.800049l26.399902,-0.799927l1.800293,11.299927c1,6.300049 4,29.900024 6.799805,52.800049c3,22.899963 7.5,59.099976 10.300293,80.5c2.799805,21.399963 6,49.799988 7.5,62.899963c4,36.700012 2.799805,34.200012 20.599609,37.5c8.800293,1.5 31.200195,4.5 49.800293,6.5c83.5,9.100037 94.600098,12.600037 105.699707,31.700012c10.800293,19.599976 5,103.700012 -11.299805,159.799988c-17.399902,60.100037 -37.5,104.700012 -54.799805,122c-17.400391,17.400024 -40.800293,26.500061 -59.700195,23.200012z"/>
    <path id="node4_2_" class="st10" d="m5570.200195,-581.799988c-14.100098,-5.5 -14.799805,-10.799988 -14.100098,-110.700012l0.800293,-90.799988l9.799805,-8.599976l9.799805,-8.300049l-1.299805,-27.699951c-1.5,-37.200012 -7,-43.800049 -23.100098,-26.700012c-9.299805,9.799988 -20.100098,11.599976 -30.199707,5c-9.800293,-6.5 -21.100098,-9.100037 -61.900391,-13.799988c-21.399902,-2.5 -51.099609,-6 -65.899902,-7.800049l-26.899902,-3.299988l-1.5,-7.5c-1,-4.299988 -2.299805,-9.799988 -2.799805,-12.099976c-1.300293,-4.299988 1.799805,-4.5 40.5,-4.5l41.5,0l-0.5,-60.900024l-0.800293,-61.099976l-13.600098,-3.299988c-15.899902,-4.000061 -28.199707,-11.299988 -41,-24.700012c-9.299805,-10.099976 -19.599609,-27.400024 -19.599609,-33.200073c0,-2 -3.300293,-6.799927 -7.5,-10.599976c-10.300293,-9.599976 -10.300293,-19.900024 0.299805,-28.699951c9.299805,-7.800049 13.100098,-8.099976 22.600098,-1.300049c5.799805,4 7.299805,7 7.299805,14.599976c0,5.5 -1.5,11.100098 -3.799805,12.800049c-5.300293,4.300049 -4.800293,8.800049 2.5,21.099976c10.799805,18.599976 32.5,34.200073 47,34.200073l7,0l0,-23.600098c0,-21.899902 -0.5,-24.399902 -6.300293,-30.699951c-10.099609,-10.800049 -7.5,-23.900024 5.5,-30.699951c8.600098,-4.5 13.100098,-3.5 21.100098,4.299927c9.300293,9.300049 9.300293,15.599976 -0.299805,26.200073c-7,8.099976 -7.5,10.099976 -7.5,28.899902c0,24.700073 1,27.900024 8.299805,26.400024c20.100098,-4.5 38.5,-19.099976 48.300293,-38.199951l5.5,-11.300049l-5,-6.799927c-6.800293,-9.600098 -4.300293,-22.400024 5.5,-28.200073c9.599609,-5.5 13.299805,-5.299927 21.399902,1c9.299805,7.300049 9.100098,20.099976 -1,31.700073c-4,4.5 -7.5,10.299927 -7.5,12.799927c-0.300293,7 -18.100098,31.200073 -29.700195,40c-6,4.5 -17.399902,10.099976 -25.199707,12.300049c-7.800293,2 -15.900391,4.299988 -17.400391,4.799988c-2.5,0.799988 -3.299805,14.599976 -3.299805,57.599976c0,30.900024 0.799805,58.100037 1.5,60.400024c1.299805,3.5 7.5,4 42.5,4c44.299805,0 47.799805,1 54.799805,15.099976c1.800293,3.5 5.800293,6.800049 9.300293,7c16.899902,2.5 22.600098,16.100037 22.600098,54.300049l0,20.899963l10.099609,8.100037l10.100098,8.099976l0,95.400024c0,95.399963 0,95.399963 -5.799805,101.899963c-6.000488,7.700012 -21.100098,10.5 -32.100098,6.200012z"/>
    <path id="node5_2_" class="st10" d="m4863.700195,-747.599976l0,-22.599976l210.100098,0l210.100098,0l0,22.599976l0,22.599976l-210.100098,0l-210.100098,0l0,-22.599976z"/>
   </g>
   <g id="XMLID_46_" transform="translate(0,300) scale(0.10000000149011612,-0.10000000149011612) "/>
   <g id="XMLID_75_">
    <rect id="XMLID_82_" x="57.8" y="369.2" class="st5" width="49.5" height="43.7"/>
    <ellipse id="XMLID_81_" class="st5" cx="82.5" cy="412.9" rx="24.8" ry="7.3"/>
    <ellipse id="XMLID_80_" class="st5" cx="82.5" cy="369.2" rx="24.8" ry="7.3"/>
    <ellipse id="XMLID_79_" class="st1" cx="82.5" cy="369.2" rx="24.8" ry="7.3"/>
    <path id="XMLID_78_" class="st1" d="m107.300003,369.200012l0,43.700012c0,4 -11.100006,7.299988 -24.800003,7.299988s-24.799999,-3.299988 -24.799999,-7.299988l0,-43.700012"/>
    <text id="XMLID_77_" transform="matrix(1,0,0,1,24.4967,437.6165) " class="st11 st3 st6">workspace/coop-postings</text>
   </g>
   <g id="XMLID_83_">
    <rect id="XMLID_90_" x="312.2" y="369.2" class="st5" width="49.5" height="43.7"/>
    <ellipse id="XMLID_89_" class="st5" cx="337" cy="412.9" rx="24.8" ry="7.3"/>
    <ellipse id="XMLID_88_" class="st5" cx="337" cy="369.2" rx="24.8" ry="7.3"/>
    <ellipse id="XMLID_87_" class="st1" cx="337" cy="369.2" rx="24.8" ry="7.3"/>
    <path id="XMLID_86_" class="st1" d="m361.700012,369.200012l0,43.700012c0,4 -11.100006,7.299988 -24.799988,7.299988s-24.800018,-3.299988 -24.800018,-7.299988l0,-43.700012"/>
    <text id="XMLID_85_" transform="matrix(1,0,0,1,278.9432,437.6165) " class="st11 st3 st6">workspace/coop-postings</text>
   </g>
   <g id="XMLID_91_">
    <rect id="XMLID_98_" x="581.4" y="370.2" class="st5" width="49.5" height="43.7"/>
    <ellipse id="XMLID_97_" class="st5" cx="606.1" cy="413.9" rx="24.8" ry="7.3"/>
    <ellipse id="XMLID_96_" class="st5" cx="606.1" cy="370.2" rx="24.8" ry="7.3"/>
    <ellipse id="XMLID_95_" class="st1" cx="606.1" cy="370.2" rx="24.8" ry="7.3"/>
    <path id="XMLID_94_" class="st1" d="m630.900024,370.200012l0,43.700012c0,4 -11.099976,7.299988 -24.799988,7.299988c-13.700012,0 -24.799988,-3.299988 -24.799988,-7.299988l0,-43.700012"/>
    <text id="XMLID_93_" transform="matrix(1,0,0,1,548.1262,438.6363) " class="st11 st3 st6">workspace/coop-postings</text>
   </g>
  </g>
 </g>
</svg>