<?xml version="1.0" encoding="UTF-8"?>
<!DOCTYPE svg PUBLIC "-//W3C//DTD SVG 1.1//EN" "http://www.w3.org/Graphics/SVG/1.1/DTD/svg11.dtd">
<svg version="1.1" xmlns="http://www.w3.org/2000/svg" xmlns:xlink="http://www.w3.org/1999/xlink" x="0" y="0" width="480" height="480" viewBox="0, 0, 480, 480">
  <g id="Layer_1">
    <g>
      <g id="layer1">
        <g id="g3125">
          <g id="path3106">
            <path d="M146.841,10.21 C140.589,10.224 136.212,9.104 128.556,11.095 C122.18,12.837 121.058,13.528 115.898,19.861 C112.233,26.456 112.571,30.078 111.679,33.217 C111.625,39.286 111.956,39.992 113.909,44.706 C117.069,55.103 122.109,56.569 126.42,63.69 C124.264,69.496 111.392,71.916 104.178,73.534 C98.291,74.792 100.001,74.363 93.816,75.857 C85.166,77.198 86.514,75.649 73.78,75.981 C66.25,74.363 55.554,74.004 51.2,76.161 C47.369,81.511 46.541,83.558 44.401,91.411 C41.839,98.628 40.613,101.144 37.605,107.048 C34.678,110.09 34.819,118.4 32.448,123.916 C30.941,127.069 30.111,133.11 28.696,136.359 C29.368,141.988 26.383,141.697 23.775,148.678 C21.356,155.606 21.289,158.717 22.603,161.081 C24.69,166.888 22.536,165.187 25.415,167.303 C27.372,171.603 32.837,169.349 36.434,172.115 C44.157,169.169 35.062,160.528 43.231,157.251 C44.851,149.384 37.249,150.117 38.543,142.554 C37.376,135.129 40.919,132.779 42.293,128.742 C45.051,124.414 47.131,118.234 49.794,113.837 C51.723,108.652 53.835,108.389 56.357,103.329 C58.624,98.075 56.529,93.25 60.849,93.9 C69.614,96.748 77.351,101.49 84.487,102.444 C91.187,105.569 99.393,107.698 106.99,110.768 C110.286,115.386 112.918,116.409 113.992,121.953 C114.814,126.046 116.743,127.304 117.539,133.124 C119.484,137.397 122.347,141.822 124.103,146.452 C122.902,150.159 127.6,154.79 122.93,159.408 C116.057,161.676 116.773,161.746 111.444,167.732 C109.154,170.359 109.588,172.917 105.584,176.94 C101.067,180.686 96.043,184.489 91.051,187.241 C88.531,188.485 89.332,176.981 90.113,170.994 C90.113,165.672 89.878,160.142 88.004,156.338 C85.019,151.749 76.036,150.767 76.631,154.237 C70.385,157.971 62.589,165.216 63.859,173.109 C63.859,182.926 67.374,189.688 67.376,199.504 C68.444,205.436 65.947,215.155 76.048,215.5 C87.027,216.869 84.632,207.247 90.816,209.804 C96.201,210.385 98.226,210.551 104.941,210.455 C117.014,208.781 120.323,207.772 123.739,207.288 C131.547,209.403 133.487,210.993 138.145,212.114 C143.406,213.358 146.283,213.675 152.552,213.219 C161.276,212.998 160.09,212.556 165.359,212.21 C171.093,211.602 172.367,211.353 177.547,212.431 C182.849,213.358 182.731,214.34 189.738,218.127 C192.764,222.373 193.384,221.377 196.066,223.161 C200.204,225.939 200.223,226.534 206.147,229.949 C208.453,231.567 211.462,234.678 219.508,240.471 C226.314,244.854 224.467,244.011 229.737,246.264 C232.619,250.301 239.816,256.054 243.374,258.487 C251.187,264.101 254.346,267.184 260.296,270.488 C266.598,270.018 264.638,272.534 271.781,271.137 C278.455,271.413 281.457,267.736 284.439,264.57 C286.68,261.5 286.419,255.334 283.971,253.619 C283.045,249.196 280.752,246.36 279.934,244.314 C279.104,240.056 277.691,238.135 274.709,234.692 C272.426,230.71 271.031,228.76 268.031,223.603 C265.985,217.755 261.38,214.809 254.201,205.85 C250.555,200.818 250.033,202.545 242.956,194.831 C241.015,192.301 240.42,190.379 235.453,184.849 C233.094,180.921 230.548,178.709 227.947,174.963 C224.649,171.299 220.691,167.331 215.757,161.165 C213.853,158.634 212.79,156.311 208.256,151.528 C206.69,146.108 201.072,135.489 198.412,127.857 C197.742,126.156 208.583,132.06 211.641,125.188 C212.902,123.101 211.488,113.851 210.07,109.496 C209.329,103.108 207.091,98.836 205.504,95.393 C205.172,90.333 202.214,83.682 199.57,79.216 C197.399,72.856 192.625,67.409 188.098,63.897 C185.226,60.634 183.572,59.113 175.726,55.56 C171.662,54.896 161.375,56.306 160.202,52.933 C159.605,52.311 164.123,41.692 161.374,32.277 C162.396,26.096 159.466,23.566 158.562,19.197 C155.986,15.588 153.595,12.56 146.841,10.21 L146.841,10.21 L146.841,10.21 z" fill="#000000"/>
            <path d="M146.841,10.21 C140.589,10.224 136.212,9.104 128.556,11.095 C122.18,12.837 121.058,13.528 115.898,19.861 C112.233,26.456 112.571,30.078 111.679,33.217 C111.625,39.286 111.956,39.992 113.909,44.706 C117.069,55.103 122.109,56.569 126.42,63.69 C124.264,69.496 111.392,71.916 104.178,73.534 C98.291,74.792 100.001,74.363 93.816,75.857 C85.166,77.198 86.514,75.649 73.78,75.981 C66.25,74.363 55.554,74.004 51.2,76.161 C47.369,81.511 46.541,83.558 44.401,91.411 C41.839,98.628 40.613,101.144 37.605,107.048 C34.678,110.09 34.819,118.4 32.448,123.916 C30.941,127.069 30.111,133.11 28.696,136.359 C29.368,141.988 26.383,141.697 23.775,148.678 C21.356,155.606 21.289,158.717 22.603,161.081 C24.69,166.888 22.536,165.187 25.415,167.303 C27.372,171.603 32.837,169.349 36.434,172.115 C44.157,169.169 35.062,160.528 43.231,157.251 C44.851,149.384 37.249,150.117 38.543,142.554 C37.376,135.129 40.919,132.779 42.293,128.742 C45.051,124.414 47.131,118.234 49.794,113.837 C51.723,108.652 53.835,108.389 56.357,103.329 C58.624,98.075 56.529,93.25 60.849,93.9 C69.614,96.748 77.351,101.49 84.487,102.444 C91.187,105.569 99.393,107.698 106.99,110.768 C110.286,115.386 112.918,116.409 113.992,121.953 C114.814,126.046 116.743,127.304 117.539,133.124 C119.484,137.397 122.347,141.822 124.103,146.452 C122.902,150.159 127.6,154.79 122.93,159.408 C116.057,161.676 116.773,161.746 111.444,167.732 C109.154,170.359 109.588,172.917 105.584,176.94 C101.067,180.686 96.043,184.489 91.051,187.241 C88.531,188.485 89.332,176.981 90.113,170.994 C90.113,165.672 89.878,160.142 88.004,156.338 C85.019,151.749 76.036,150.767 76.631,154.237 C70.385,157.971 62.589,165.216 63.859,173.109 C63.859,182.926 67.374,189.688 67.376,199.504 C68.444,205.436 65.947,215.155 76.048,215.5 C87.027,216.869 84.632,207.247 90.816,209.804 C96.201,210.385 98.226,210.551 104.941,210.455 C117.014,208.781 120.323,207.772 123.739,207.288 C131.547,209.403 133.487,210.993 138.145,212.114 C143.406,213.358 146.283,213.675 152.552,213.219 C161.276,212.998 160.09,212.556 165.359,212.21 C171.093,211.602 172.367,211.353 177.547,212.431 C182.849,213.358 182.731,214.34 189.738,218.127 C192.764,222.373 193.384,221.377 196.066,223.161 C200.204,225.939 200.223,226.534 206.147,229.949 C208.453,231.567 211.462,234.678 219.508,240.471 C226.314,244.854 224.467,244.011 229.737,246.264 C232.619,250.301 239.816,256.054 243.374,258.487 C251.187,264.101 254.346,267.184 260.296,270.488 C266.598,270.018 264.638,272.534 271.781,271.137 C278.455,271.413 281.457,267.736 284.439,264.57 C286.68,261.5 286.419,255.334 283.971,253.619 C283.045,249.196 280.752,246.36 279.934,244.314 C279.104,240.056 277.691,238.135 274.709,234.692 C272.426,230.71 271.031,228.76 268.031,223.603 C265.985,217.755 261.38,214.809 254.201,205.85 C250.555,200.818 250.033,202.545 242.956,194.831 C241.015,192.301 240.42,190.379 235.453,184.849 C233.094,180.921 230.548,178.709 227.947,174.963 C224.649,171.299 220.691,167.331 215.757,161.165 C213.853,158.634 212.79,156.311 208.256,151.528 C206.69,146.108 201.072,135.489 198.412,127.857 C197.742,126.156 208.583,132.06 211.641,125.188 C212.902,123.101 211.488,113.851 210.07,109.496 C209.329,103.108 207.091,98.836 205.504,95.393 C205.172,90.333 202.214,83.682 199.57,79.216 C197.399,72.856 192.625,67.409 188.098,63.897 C185.226,60.634 183.572,59.113 175.726,55.56 C171.662,54.896 161.375,56.306 160.202,52.933 C159.605,52.311 164.123,41.692 161.374,32.277 C162.396,26.096 159.466,23.566 158.562,19.197 C155.986,15.588 153.595,12.56 146.841,10.21 L146.841,10.21 L146.841,10.21 z" fill-opacity="0" stroke="#000000" stroke-width="1"/>
          </g>
          <g id="path3111">
            <path d="M45.108,245.725 C40.167,251.408 38.086,257.629 47.004,265.897 L66.652,265.897 L65.728,442.914 L61.983,446.412 C58.409,463.39 61.074,471.216 63.878,478.82 L392.017,478.82 C394.114,469.253 394.557,459.478 390.168,449.053 L387.348,264.985 L407.043,265.897 C413.236,255.859 409.984,250.633 406.117,245.725 L45.108,245.725 z M79.319,265.33 L251.848,264.128 L375.144,264.128 L375.144,279.032 L376.114,446.854 L373.758,448.14 C371.97,453.353 369.624,458.053 372.324,467.455 L82.601,467.455 C82.854,461.441 84.372,455.814 79.319,448.14 L77.469,444.642 L79.319,265.33 z" fill="#000000"/>
            <path d="M45.108,245.725 C40.167,251.408 38.086,257.629 47.004,265.897 L66.652,265.897 L65.728,442.914 L61.983,446.412 C58.409,463.39 61.074,471.216 63.878,478.82 L392.017,478.82 C394.114,469.253 394.557,459.478 390.168,449.053 L387.348,264.985 L407.043,265.897 C413.236,255.859 409.984,250.633 406.117,245.725 L45.108,245.725 z M79.319,265.33 L251.848,264.128 L375.144,264.128 L375.144,279.032 L376.114,446.854 L373.758,448.14 C371.97,453.353 369.624,458.053 372.324,467.455 L82.601,467.455 C82.854,461.441 84.372,455.814 79.319,448.14 L77.469,444.642 L79.319,265.33 z" fill-opacity="0" stroke="#000000" stroke-width="1"/>
          </g>
        </g>
      </g>
    </g>
    <text transform="matrix(1, 0, 0, 1, 210.889, 364.5)">
      <tspan x="-78.384" y="-75" font-family="ArialMT" font-size="30" fill="#222222">whether the </tspan>
      <tspan x="-76.707" y="-41" font-family="ArialMT" font-size="30" fill="#222222">project is </tspan>
      <tspan x="-79.219" y="-7" font-family="ArialMT" font-size="30" fill="#222222">a better use </tspan>
      <tspan x="-81.724" y="27" font-family="ArialMT" font-size="30" fill="#222222">of cash than </tspan>
      <tspan x="-110.889" y="61" font-family="ArialMT" font-size="30" fill="#222222">other investment </tspan>
      <tspan x="-48.369" y="95" font-family="ArialMT" font-size="30" fill="#222222">options</tspan>
    </text>
  </g>
</svg>
