<?xml version="1.0" encoding="UTF-8"?>
<!DOCTYPE svg PUBLIC "-//W3C//DTD SVG 1.1//EN" "http://www.w3.org/Graphics/SVG/1.1/DTD/svg11.dtd">
<svg version="1.1" xmlns="http://www.w3.org/2000/svg" xmlns:xlink="http://www.w3.org/1999/xlink" x="0" y="0" width="480" height="180" viewBox="0, 0, 480, 180">
  <g id="Layer_1">
    <path d="M-11.5,0 L468.5,0 L468.5,180 L-11.5,180 z" fill="#FFFFFF" id="background"/>
    <g>
      <g id="grid" opacity="0.4">
        <g id="gridx">
          <path d="M34.5,148.5 L34.5,36 M84.5,148.5 L84.5,36 M134.5,148.5 L134.5,36 M184.5,148.5 L184.5,36 M284.5,148.5 L284.5,36 M334.5,148.5 L334.5,36 M384.5,148.5 L384.5,36 M434.5,148.5 L434.5,36" fill="#000000"/>
          <path d="M34.5,148.5 L34.5,36 M84.5,148.5 L84.5,36 M134.5,148.5 L134.5,36 M184.5,148.5 L184.5,36 M284.5,148.5 L284.5,36 M334.5,148.5 L334.5,36 M384.5,148.5 L384.5,36 M434.5,148.5 L434.5,36" fill-opacity="0" stroke="#000000" stroke-width="0.5"/>
        </g>
        <g id="gridy">
          <path d="M34.5,98.5 L434.5,98.5 M34.5,48.5 L434.5,48.5" fill="#000000"/>
          <path d="M34.5,98.5 L434.5,98.5 M34.5,48.5 L434.5,48.5" fill-opacity="0" stroke="#000000" stroke-width="0.5"/>
        </g>
      </g>
      <g id="ticks">
        <g id="ticksx">
          <path d="M34.5,153.5 L34.5,143.5 M84.5,153.5 L84.5,143.5 M134.5,153.5 L134.5,143.5 M184.5,153.5 L184.5,143.5 M234.5,153.5 L234.5,143.5 M284.5,153.5 L284.5,143.5 M334.5,153.5 L334.5,143.5 M384.5,153.5 L384.5,143.5 M434.5,153.5 L434.5,143.5" fill="#000000"/>
          <path d="M34.5,153.5 L34.5,143.5 M84.5,153.5 L84.5,143.5 M134.5,153.5 L134.5,143.5 M184.5,153.5 L184.5,143.5 M234.5,153.5 L234.5,143.5 M284.5,153.5 L284.5,143.5 M334.5,153.5 L334.5,143.5 M384.5,153.5 L384.5,143.5 M434.5,153.5 L434.5,143.5" fill-opacity="0" stroke="#000000" stroke-width="1" stroke-linecap="square"/>
        </g>
        <g id="ticksy">
          <path d="M229.5,98.5 L239.5,98.5 M229.5,48.5 L239.5,48.5" fill="#000000"/>
          <path d="M229.5,98.5 L239.5,98.5 M229.5,48.5 L239.5,48.5" fill-opacity="0" stroke="#000000" stroke-width="1" stroke-linecap="square"/>
        </g>
      </g>
      <g>
        <g id="x-axis">
          <path d="M6.5,148.5 L462.5,148.5" fill="#000000"/>
          <path d="M6.5,148.5 L462.5,148.5" fill-opacity="0" stroke="#000000" stroke-width="2"/>
        </g>
        <path d="M461.54,148.5 L456.5,153 L468.5,148.5 L456.5,144 z" fill="#000000"/>
      </g>
      <g>
        <g id="y-axis">
          <path d="M234.5,148.5 L234.5,21" fill="#000000"/>
          <path d="M234.5,148.5 L234.5,21" fill-opacity="0" stroke="#000000" stroke-width="2"/>
        </g>
        <path d="M234.5,21.96 L239,27 L234.5,15 L230,27 z" fill="#000000"/>
      </g>
      <g id="ylabels_s">
        <g id="y02_s">
          <g id="zero">
            <path d="M200.724,105.5 M209.144,99.1 C209.144,97.5 209.044,95.9 208.344,94.42 C207.424,92.5 205.784,92.18 204.944,92.18 C203.744,92.18 202.284,92.7 201.464,94.56 C200.824,95.94 200.724,97.5 200.724,99.1 C200.724,100.6 200.804,102.4 201.624,103.92 C202.484,105.54 203.944,105.94 204.924,105.94 C206.004,105.94 207.524,105.52 208.404,103.62 C209.044,102.24 209.144,100.68 209.144,99.1 z M209.144,99.1 M204.924,105.5 C204.144,105.5 202.964,105 202.604,103.08 C202.384,101.88 202.384,100.04 202.384,98.86 C202.384,97.58 202.384,96.26 202.544,95.18 C202.924,92.8 204.424,92.62 204.924,92.62 C205.584,92.62 206.904,92.98 207.284,94.96 C207.484,96.08 207.484,97.6 207.484,98.86 C207.484,100.36 207.484,101.72 207.264,103 C206.964,104.9 205.824,105.5 204.924,105.5 z" fill="#000000"/>
            <path d="M200.724,105.5 M209.144,99.1 C209.144,97.5 209.044,95.9 208.344,94.42 C207.424,92.5 205.784,92.18 204.944,92.18 C203.744,92.18 202.284,92.7 201.464,94.56 C200.824,95.94 200.724,97.5 200.724,99.1 C200.724,100.6 200.804,102.4 201.624,103.92 C202.484,105.54 203.944,105.94 204.924,105.94 C206.004,105.94 207.524,105.52 208.404,103.62 C209.044,102.24 209.144,100.68 209.144,99.1 z M209.144,99.1 M204.924,105.5 C204.144,105.5 202.964,105 202.604,103.08 C202.384,101.88 202.384,100.04 202.384,98.86 C202.384,97.58 202.384,96.26 202.544,95.18 C202.924,92.8 204.424,92.62 204.924,92.62 C205.584,92.62 206.904,92.98 207.284,94.96 C207.484,96.08 207.484,97.6 207.484,98.86 C207.484,100.36 207.484,101.72 207.264,103 C206.964,104.9 205.824,105.5 204.924,105.5 z" fill-opacity="0" stroke="#FFFFFF" stroke-width="6.2" stroke-linejoin="round"/>
          </g>
          <g id="dot">
            <path d="M213.784,97.94 M213.784,104.44 C213.784,103.86 213.304,103.38 212.724,103.38 C212.144,103.38 211.664,103.86 211.664,104.44 C211.664,105.02 212.144,105.5 212.724,105.5 C213.304,105.5 213.784,105.02 213.784,104.44 z" fill="#000000"/>
            <path d="M213.784,97.94 M213.784,104.44 C213.784,103.86 213.304,103.38 212.724,103.38 C212.144,103.38 211.664,103.86 211.664,104.44 C211.664,105.02 212.144,105.5 212.724,105.5 C213.304,105.5 213.784,105.02 213.784,104.44 z" fill-opacity="0" stroke="#FFFFFF" stroke-width="6.2" stroke-linejoin="round"/>
          </g>
          <g id="two">
            <path d="M216.5,105.5 M224.48,102.02 L223.98,102.02 C223.88,102.62 223.74,103.5 223.54,103.8 C223.4,103.96 222.08,103.96 221.64,103.96 L218.04,103.96 L220.16,101.9 C223.28,99.14 224.48,98.06 224.48,96.06 C224.48,93.78 222.68,92.18 220.24,92.18 C217.98,92.18 216.5,94.02 216.5,95.8 C216.5,96.92 217.5,96.92 217.56,96.92 C217.9,96.92 218.6,96.68 218.6,95.86 C218.6,95.34 218.24,94.82 217.54,94.82 C217.38,94.82 217.34,94.82 217.28,94.84 C217.74,93.54 218.82,92.8 219.98,92.8 C221.8,92.8 222.66,94.42 222.66,96.06 C222.66,97.66 221.66,99.24 220.56,100.48 L216.72,104.76 C216.5,104.98 216.5,105.02 216.5,105.5 L223.92,105.5 z" fill="#000000"/>
            <path d="M216.5,105.5 M224.48,102.02 L223.98,102.02 C223.88,102.62 223.74,103.5 223.54,103.8 C223.4,103.96 222.08,103.96 221.64,103.96 L218.04,103.96 L220.16,101.9 C223.28,99.14 224.48,98.06 224.48,96.06 C224.48,93.78 222.68,92.18 220.24,92.18 C217.98,92.18 216.5,94.02 216.5,95.8 C216.5,96.92 217.5,96.92 217.56,96.92 C217.9,96.92 218.6,96.68 218.6,95.86 C218.6,95.34 218.24,94.82 217.54,94.82 C217.38,94.82 217.34,94.82 217.28,94.84 C217.74,93.54 218.82,92.8 219.98,92.8 C221.8,92.8 222.66,94.42 222.66,96.06 C222.66,97.66 221.66,99.24 220.56,100.48 L216.72,104.76 C216.5,104.98 216.5,105.02 216.5,105.5 L223.92,105.5 z" fill-opacity="0" stroke="#FFFFFF" stroke-width="6.2" stroke-linejoin="round"/>
          </g>
        </g>
        <g id="y04_s">
          <g id="zero">
            <path d="M200.724,55.5 M209.144,49.1 C209.144,47.5 209.044,45.9 208.344,44.42 C207.424,42.5 205.784,42.18 204.944,42.18 C203.744,42.18 202.284,42.7 201.464,44.56 C200.824,45.94 200.724,47.5 200.724,49.1 C200.724,50.6 200.804,52.4 201.624,53.92 C202.484,55.54 203.944,55.94 204.924,55.94 C206.004,55.94 207.524,55.52 208.404,53.62 C209.044,52.24 209.144,50.68 209.144,49.1 z M209.144,49.1 M204.924,55.5 C204.144,55.5 202.964,55 202.604,53.08 C202.384,51.88 202.384,50.04 202.384,48.86 C202.384,47.58 202.384,46.26 202.544,45.18 C202.924,42.8 204.424,42.62 204.924,42.62 C205.584,42.62 206.904,42.98 207.284,44.96 C207.484,46.08 207.484,47.6 207.484,48.86 C207.484,50.36 207.484,51.72 207.264,53 C206.964,54.9 205.824,55.5 204.924,55.5 z" fill="#000000"/>
            <path d="M200.724,55.5 M209.144,49.1 C209.144,47.5 209.044,45.9 208.344,44.42 C207.424,42.5 205.784,42.18 204.944,42.18 C203.744,42.18 202.284,42.7 201.464,44.56 C200.824,45.94 200.724,47.5 200.724,49.1 C200.724,50.6 200.804,52.4 201.624,53.92 C202.484,55.54 203.944,55.94 204.924,55.94 C206.004,55.94 207.524,55.52 208.404,53.62 C209.044,52.24 209.144,50.68 209.144,49.1 z M209.144,49.1 M204.924,55.5 C204.144,55.5 202.964,55 202.604,53.08 C202.384,51.88 202.384,50.04 202.384,48.86 C202.384,47.58 202.384,46.26 202.544,45.18 C202.924,42.8 204.424,42.62 204.924,42.62 C205.584,42.62 206.904,42.98 207.284,44.96 C207.484,46.08 207.484,47.6 207.484,48.86 C207.484,50.36 207.484,51.72 207.264,53 C206.964,54.9 205.824,55.5 204.924,55.5 z" fill-opacity="0" stroke="#FFFFFF" stroke-width="6.2" stroke-linejoin="round"/>
          </g>
          <g id="four">
            <path d="M216.06,55.5 M216.06,52.2 L221.38,52.2 L221.38,53.94 C221.38,54.66 221.34,54.88 219.86,54.88 L219.44,54.88 L219.44,55.5 C220.26,55.44 221.3,55.44 222.14,55.44 C222.98,55.44 224.04,55.44 224.86,55.5 L224.86,54.88 L224.44,54.88 C222.96,54.88 222.92,54.66 222.92,53.94 L222.92,52.2 L224.92,52.2 L224.92,51.58 L222.92,51.58 L222.92,42.48 C222.92,42.08 222.92,41.96 222.6,41.96 C222.42,41.96 222.36,41.96 222.2,42.2 L216.06,51.58 z M216.06,51.58 M221.5,51.58 L216.62,51.58 L221.5,44.12 z" fill="#000000"/>
            <path d="M216.06,55.5 M216.06,52.2 L221.38,52.2 L221.38,53.94 C221.38,54.66 221.34,54.88 219.86,54.88 L219.44,54.88 L219.44,55.5 C220.26,55.44 221.3,55.44 222.14,55.44 C222.98,55.44 224.04,55.44 224.86,55.5 L224.86,54.88 L224.44,54.88 C222.96,54.88 222.92,54.66 222.92,53.94 L222.92,52.2 L224.92,52.2 L224.92,51.58 L222.92,51.58 L222.92,42.48 C222.92,42.08 222.92,41.96 222.6,41.96 C222.42,41.96 222.36,41.96 222.2,42.2 L216.06,51.58 z M216.06,51.58 M221.5,51.58 L216.62,51.58 L221.5,44.12 z" fill-opacity="0" stroke="#FFFFFF" stroke-width="6.2" stroke-linejoin="round"/>
          </g>
        </g>
      </g>
      <g id="ylabels">
        <g id="y04">
          <path d="M213.784,47.94 M213.784,54.44 C213.784,53.86 213.304,53.38 212.724,53.38 C212.144,53.38 211.664,53.86 211.664,54.44 C211.664,55.02 212.144,55.5 212.724,55.5 C213.304,55.5 213.784,55.02 213.784,54.44 z" fill="#000000" id="dot"/>
        </g>
      </g>
      <path d="M34.5,148.467 C50,148.425 61.525,148.323 71.188,148.019 C83.511,147.632 93.915,146.882 103.3,145.311 C116.094,143.169 127.419,139.43 138.503,132.709 C146.704,127.736 154.183,121.488 161.526,114.12 C169.898,105.718 177.603,96.351 185.089,87.294 C195.241,75.014 204.898,63.421 214.777,56.23 C221.344,51.449 227.803,48.764 234.5,48.764 C241.197,48.764 247.656,51.449 254.223,56.23 C264.102,63.421 273.759,75.014 283.911,87.294 C291.397,96.351 299.102,105.718 307.474,114.12 C314.817,121.488 322.296,127.736 330.497,132.709 C341.581,139.43 352.906,143.169 365.7,145.311 C375.085,146.882 385.489,147.632 397.812,148.019 C407.475,148.323 419,148.425 434.5,148.467" fill-opacity="0" stroke="#FF0000" stroke-width="3.2" id="ndist-curve"/>
    </g>
    <text transform="matrix(1, 0, 0, 1, 233.08, 165.5)">
      <tspan x="-25.08" y="8.5" font-family="HelveticaNeue-Bold" font-size="24" fill="#000000">time</tspan>
    </text>
    <text transform="matrix(1, 0, 0, 1, 82.984, 84.25)">
      <tspan x="-77.984" y="8.5" font-family="HelveticaNeue-Bold" font-size="24" fill="#000000">new customers</tspan>
    </text>
  </g>
</svg>
