<?xml version="1.0" encoding="UTF-8"?>
<!DOCTYPE svg PUBLIC "-//W3C//DTD SVG 1.1//EN" "http://www.w3.org/Graphics/SVG/1.1/DTD/svg11.dtd">
<svg version="1.1" xmlns="http://www.w3.org/2000/svg" xmlns:xlink="http://www.w3.org/1999/xlink" x="0" y="0" width="794" height="595" viewBox="0, 0, 794, 595">
  <g id="Layer_1">
    <path d="M-0,-0 L793.7,-0 L793.7,595.2 L-0,595.2 L-0,-0 z" fill="#FFFFFF"/>
    <path d="M376.4,11.3 C446.9,11.3 500.7,34.1 500.7,64 C500.7,93.9 446.9,116.8 376.4,116.8 C306,116.8 252.2,93.9 252.2,64 C252.2,34.1 306,11.3 376.4,11.3 z" fill="#D4FEFF"/>
    <path d="M376.4,11.3 C446.9,11.3 500.7,34.1 500.7,64 C500.7,93.9 446.9,116.8 376.4,116.8 C306,116.8 252.2,93.9 252.2,64 C252.2,34.1 306,11.3 376.4,11.3 z" fill-opacity="0" stroke="#000000" stroke-width="2.745" stroke-linecap="square"/>
    <text transform="matrix(1, 0, 0, 1, 410.54, 56.9)">
      <tspan x="-117.54" y="-5" font-family="Arial-BoldMT" font-size="18" fill="#000000">1. Preliminary</tspan>
      <tspan x="-117.54" y="16" font-family="Arial-BoldMT" font-size="18" fill="#000000">Investigation</tspan>
    </text>
    <path d="M149.5,151.5 C229.9,151.5 291.4,175.5 291.4,207 C291.4,238.5 229.9,262.5 149.5,262.5 C69.1,262.5 7.7,238.5 7.7,207 C7.7,175.5 69.1,151.5 149.5,151.5 z" fill="#D4FEFF"/>
    <path d="M149.5,151.5 C229.9,151.5 291.4,175.5 291.4,207 C291.4,238.5 229.9,262.5 149.5,262.5 C69.1,262.5 7.7,238.5 7.7,207 C7.7,175.5 69.1,151.5 149.5,151.5 z" fill-opacity="0" stroke="#000000" stroke-width="2.745" stroke-linecap="square"/>
    <text transform="matrix(1, 0, 0, 1, 128.845, 197)">
      <tspan x="-104.545" y="5.5" font-family="Arial-BoldMT" font-size="18" fill="#000000">6. Systems Maintenance</tspan>
    </text>
    <path d="M663.8,133.9 C734.2,133.9 788,156.8 788,186.7 C788,216.6 734.2,239.4 663.8,239.4 C593.4,239.4 539.6,216.6 539.6,186.7 C539.6,156.8 593.4,133.9 663.8,133.9 z" fill="#D4FEFF"/>
    <path d="M663.8,133.9 C734.2,133.9 788,156.8 788,186.7 C788,216.6 734.2,239.4 663.8,239.4 C593.4,239.4 539.6,216.6 539.6,186.7 C539.6,156.8 593.4,133.9 663.8,133.9 z" fill-opacity="0" stroke="#000000" stroke-width="2.745" stroke-linecap="square"/>
    <text transform="matrix(1, 0, 0, 1, 676.466, 186.65)">
      <tspan x="-111.166" y="5" font-family="Arial-BoldMT" font-size="18" fill="#000000">2. Systems Analysis</tspan>
    </text>
    <path d="M138.8,344.1 C214.2,344.1 271.8,366.9 271.8,396.8 C271.8,426.6 214.2,449.5 138.8,449.5 C63.3,449.5 5.7,426.6 5.7,396.8 C5.7,366.9 63.3,344.1 138.8,344.1 z" fill="#D4FEFF"/>
    <path d="M138.8,344.1 C214.2,344.1 271.8,366.9 271.8,396.8 C271.8,426.6 214.2,449.5 138.8,449.5 C63.3,449.5 5.7,426.6 5.7,396.8 C5.7,366.9 63.3,344.1 138.8,344.1 z" fill-opacity="0" stroke="#000000" stroke-width="2.745" stroke-linecap="square"/>
    <text transform="matrix(1, 0, 0, 1, 84.53, 378.1)">
      <tspan x="-47.53" y="5.5" font-family="Arial-BoldMT" font-size="18" fill="#000000">5. Systems</tspan>
    </text>
    <text transform="matrix(1, 0, 0, 1, 106.107, 403.9)">
      <tspan x="-67.007" y="5.5" font-family="Arial-BoldMT" font-size="18" fill="#000000">Implementation</tspan>
    </text>
    <path d="M663.8,344.1 C734.2,344.1 788,366.9 788,396.8 C788,426.6 734.2,449.5 663.8,449.5 C593.4,449.5 539.6,426.6 539.6,396.8 C539.6,366.9 593.4,344.1 663.8,344.1 z" fill="#D4FEFF"/>
    <path d="M663.8,344.1 C734.2,344.1 788,366.9 788,396.8 C788,426.6 734.2,449.5 663.8,449.5 C593.4,449.5 539.6,426.6 539.6,396.8 C539.6,366.9 593.4,344.1 663.8,344.1 z" fill-opacity="0" stroke="#000000" stroke-width="2.745" stroke-linecap="square"/>
    <text transform="matrix(1, 0, 0, 1, 668.53, 379.1)">
      <tspan x="-47.53" y="5.5" font-family="Arial-BoldMT" font-size="18" fill="#000000">3. Systems</tspan>
    </text>
    <text transform="matrix(1, 0, 0, 1, 649.481, 405.9)">
      <tspan x="-30.281" y="5.5" font-family="Arial-BoldMT" font-size="18" kerning="-0.09" fill="#000000">Design</tspan>
    </text>
    <path d="M380.2,484.2 C450.6,484.2 504.4,507 504.4,536.9 C504.4,566.7 450.6,589.6 380.2,589.6 C309.7,589.6 255.9,566.7 255.9,536.9 C255.9,507 309.7,484.2 380.2,484.2 z" fill="#44FEFF"/>
    <path d="M380.2,484.2 C450.6,484.2 504.4,507 504.4,536.9 C504.4,566.7 450.6,589.6 380.2,589.6 C309.7,589.6 255.9,566.7 255.9,536.9 C255.9,507 309.7,484.2 380.2,484.2 z" fill-opacity="0" stroke="#000000" stroke-width="2.745" stroke-linecap="square"/>
    <text transform="matrix(1, 0, 0, 1, 365.33, 519.2)">
      <tspan x="-47.53" y="5.5" font-family="Arial-BoldMT" font-size="18" fill="#000000">4. Systems</tspan>
    </text>
    <text transform="matrix(1, 0, 0, 1, 371.664, 546)">
      <tspan x="-56.564" y="5.5" font-family="Arial-BoldMT" font-size="18" kerning="-0.09" fill="#000000">Development</tspan>
    </text>
    <path d="M504.3,62.1 L503.9,66.1 L538,70.1 L538.2,67.9 L537.3,69.7 L580.4,84.2 L581.2,82.4 L580.2,84.2 L609.5,98.9 L610.6,97.1 L609.1,98.5 L630.1,120.5 L633,117.6 L612,95.7 L612,95.7 L611.4,95.5 L582,80.8 L581.8,80.6 L538.8,66.1 L538.4,66.1 L504.3,62.1 L504.3,62.1 z" fill="#000000"/>
    <path d="M623.1,126.1 L646,134.4 L638.8,111.4 L623.1,126.1 L623.1,126.1 z" fill="#000000"/>
    <path d="M663.8,323.3 L661.7,323.3 L661.7,239 L665.8,239 L665.8,323.3 L663.8,323.3 z" fill="#000000"/>
    <path d="M652.9,322.9 L663.9,344.5 L674.6,322.9 L652.9,322.9 L652.9,322.9 z" fill="#000000"/>
    <path d="M132,344.1 L130,344.1 L130,277.4 L134.1,277.4 L134.1,344.1 L132,344.1 z" fill="#000000"/>
    <path d="M142.8,278.1 L132,256.5 L121.2,278.1 L142.8,278.1 L142.8,278.1 z" fill="#000000"/>
    <path d="M235.1,67.3 L234.9,63.2 L230.6,63.4 L230,63.4 L230,63.6 L193.7,79.9 L193.5,79.9 L159.9,102.1 L159.5,102.3 L159.5,102.5 L146.3,119.8 L146,120 L130.2,150.6 L133.8,152.4 L149.5,121.8 L147.7,120.8 L149.3,122 L162.6,104.7 L160.9,103.7 L162.1,105.3 L195.6,83.4 L194.6,81.8 L195.4,83.6 L231.6,67.3 L230.6,65.3 L230.9,67.5 L235.1,67.3 L235.1,67.3 z" fill="#000000"/>
    <path d="M234.9,76 L256,64.3 L233.7,54.6 L234.9,76 L234.9,76 z" fill="#000000"/>
    <path d="M665.5,450.1 L661.9,448.3 L646.4,479.3 L648,480.3 L646.8,478.9 L627.8,493.6 L629.1,495 L628.2,493.4 L604.2,509.3 L605.2,510.9 L604.6,508.9 L580.4,518.2 L553.5,527.4 L554.3,529.2 L553.9,527.4 L524.7,531.6 L525.1,535.7 L554.5,531.4 L554.9,531.2 L581.8,521.8 L606,512.7 L606.4,512.5 L630.3,496.6 L630.3,496.6 L649.2,481.9 L649.4,481.7 L649.8,481.1 L665.5,450.1 L665.5,450.1 z" fill="#000000"/>
    <path d="M523.9,523 L504.2,536.7 L527.2,544.3 L523.9,523 L523.9,523 z" fill="#000000"/>
    <path d="M256,538.5 L256,534.5 L230.7,533.9 L230.7,535.9 L231.1,533.9 L208.3,530.1 L207.9,531.9 L208.7,530.2 L179.3,514.3 L178.5,516 L179.9,514.5 L163.8,500.1 L162.4,501.4 L164,500.7 L152,481.9 L150.4,482.7 L152,481.9 L143.3,466.4 L140,468.5 L148.8,483.7 L148.8,483.9 L160.8,502.7 L161,502.9 L161.2,502.9 L177.3,517.4 L177.5,517.8 L206.8,533.7 L207,533.7 L207.4,533.7 L230.5,537.7 L230.7,537.9 L256,538.5 L256,538.5 z" fill="#000000"/>
    <path d="M151.8,463.2 L132,449.5 L132.8,473.3 L151.8,463.2 L151.8,463.2 z" fill="#000000"/>
    <path d="M565.3,11.3 L482.5,29.5" fill-opacity="0" stroke="#000000" stroke-width="2.009" stroke-linecap="square"/>
    <path d="M477.2,30.7 L482,24.5 L484.2,34.3 L477.2,30.7 z" fill="#000000"/>
  </g>
</svg>
