<?xml version="1.0" encoding="UTF-8" standalone="yes"?>
<svg xmlns="http://www.w3.org/2000/svg" xmlns:xlink="http://www.w3.org/1999/xlink" xmlns:svg="http://www.w3.org/2000/svg" xmlns:dc="http://purl.org/dc/elements/1.1/" xmlns:cc="http://web.resource.org/cc/" xmlns:rdf="http://www.w3.org/1999/02/22-rdf-syntax-ns#" width="300" height="225">
<path style="fill:#fdfdfd; stroke:none;" d="M0 0L0 225L300 225L300 0L0 0z"/>
<path style="fill:#c5c5c5; stroke:none;" d="M97 3L98 7L102 7L107 8C105.445 3.57687 101.095 3.98676 97 3M269 3L257 11C257.514 15.8582 259.144 17.0111 264 16C261.648 18.0132 254.076 18.6491 256 14L256 13L250 12L251 18L248 17L247 22L256 23L257 23L259 20L260 20L263 22L262 26L260 25L256 28C254.602 23.224 249.994 24.0755 248 28L252 27L251 31L254 32L254 33L248 34L249 38L246 38L246 39L250 47L247 45L245 59C249.66 61.4568 253.437 64.2328 254 57L257 58L254 55L254 54L256 53C255.138 51.9861 254.935 50.107 256 52L257 52C257.033 40.5733 264.921 30.5729 269 20L268 19L263 20L263 19L267 18L263 15L263 12L267 11L264 10L264 9L271 7L269 3z"/>
<path style="fill:#656565; stroke:none;" d="M270.333 3.66667L270.667 4.33333L270.333 3.66667z"/>
<path style="fill:#fdfdfd; stroke:none;" d="M99 5L98 13L99 13L99 11L100 11L99 16C102.803 16 102 20.9864 102 24L103 24L104 19L107 20C107.5 17.0871 108.123 15.6832 105 15L105 16L107 17L104 18L102 5L99 5z"/>
<path style="fill:#9a9a9a; stroke:none;" d="M93 6C97.4814 14.3422 94.006 21.8925 94 31L100 30L99 26L101 34L104 35L104 36L100 37L101 40L106 38L106 41L107 41L110 38L114 39L114 40L108 41L110 47L107 49L108 50C110.467 48.7664 112.535 46.4 113 50L114 50L114 47L115 49L115 50L117 51C113.676 57.8057 123.446 55.4121 126 51L122 52L129 35L128 35L124 41L118 40L116 38L117 35L113 33L111 34L110 35L111 37L106 38C106.706 34.6632 106.826 33.0583 104 31L104 30L108 31L103 24C111.846 23.7095 108.49 17.569 110 11L105 11L105 10L109 10L108 6L106 8L103 6L104 18L107 17L105 16L105 15L107 20L104 19L103 24L102 24C102 20.6373 102.716 17.7963 99 17L100 11L99 11L99 13L98 13L99 7L93 6M116 9L118 7C114.816 5.17456 111.279 8.00742 116 9z"/>
<path style="fill:#c5c5c5; stroke:none;" d="M115 7L113 10L113 11C117.247 11.8024 119.168 10.3819 119 6L115 7z"/>
<path style="fill:#9a9a9a; stroke:none;" d="M268 6L264 9L264 10L267 10L265 19L269 20L267 15L268 6M253 13L256 10L259 11L261 8C256.5 6.25766 254.168 8.76894 253 13z"/>
<path style="fill:#656565; stroke:none;" d="M269 7L268 12L269 12L271 7L269 7M124 9L125 10L124 9M248 13L254 9L248 13z"/>
<path style="fill:#333333; stroke:none;" d="M105 10L105 11L109 11L105 10z"/>
<path style="fill:#9a9a9a; stroke:none;" d="M119 10L116 17C111.405 17.9279 110.916 22.9578 115 25L119 10z"/>
<path style="fill:#656565; stroke:none;" d="M256 10L254 14L254 15L254 16C257.333 17.7344 261.242 19.1568 264 16C259.141 16.5436 257.362 14.8931 258 10L256 10M124.667 11.3333L125.333 11.6667L124.667 11.3333z"/>
<path style="fill:#010101; stroke:none;" d="M261 11L261 14L262 14L261 11z"/>
<path style="fill:#c5c5c5; stroke:none;" d="M269 11L267 14L267 15L275 15L269 11z"/>
<path style="fill:#9a9a9a; stroke:none;" d="M247 13L249 15L249 16L246 16L245 16C245.517 18.4584 246.583 19.5234 248 17L251 18L250 12L247 13z"/>
<path style="fill:#fdfdfd; stroke:none;" d="M263 15L267 12L263 15z"/>
<path style="fill:#9a9a9a; stroke:none;" d="M122 13L121 15L121 16L123 16L119 22L119 23L123 26L127 13L122 13z"/>
<path style="fill:#333333; stroke:none;" d="M268.667 13.3333L269.333 13.6667L268.667 13.3333M247 14L246 18L247 18L249 14L247 14z"/>
<path style="fill:#9a9a9a; stroke:none;" d="M270 16L270 17L278 18L277 14L270 16z"/>
<path style="fill:#fdfdfd; stroke:none;" d="M97 15L97 18L98 18L97 15z"/>
<path style="fill:#010101; stroke:none;" d="M100 15L99 17L101 17L100 15z"/>
<path style="fill:#333333; stroke:none;" d="M269 15L269 16L272 16L269 15z"/>
<path style="fill:#656565; stroke:none;" d="M117 16L115 25L116 25L117 16z"/>
<path style="fill:#333333; stroke:none;" d="M278.333 16.6667L278.667 17.3333L278.333 16.6667z"/>
<path style="fill:#9a9a9a; stroke:none;" d="M130 17L128 19L128 20L131 24L132 24L130 17z"/>
<path style="fill:#fdfdfd; stroke:none;" d="M252 17C252.37 19.9826 254.084 19.8629 257 20L257 19L252 17z"/>
<path style="fill:#c5c5c5; stroke:none;" d="M87 19L90 33L91 33L89 19L87 19z"/>
<path style="fill:#656565; stroke:none;" d="M245 19C244.044 22.0406 243.469 24.2577 247 25L247 24L245 24L245 23L248 22L247 19L245 19z"/>
<path style="fill:#333333; stroke:none;" d="M263 19L263 20L266 20L263 19z"/>
<path style="fill:#fdfdfd; stroke:none;" d="M97 20L97 27L98 27L97 20M100 20L99 22L101 22L100 20M248 22L248 23C252.302 23.1409 254.462 23.8179 256 28L260 25L262 26L263 22L256 25C254.569 20.8439 251.893 20.7475 248 22z"/>
<path style="fill:#656565; stroke:none;" d="M259 20L256 25L259 20M88 21L89 30L90 30L88 21z"/>
<path style="fill:#c5c5c5; stroke:none;" d="M128 21L126 30L130 29L132 24L128 21z"/>
<path style="fill:#333333; stroke:none;" d="M129 21L129 23L131 23L129 21z"/>
<path style="fill:#010101; stroke:none;" d="M121 23L122 24L121 23z"/>
<path style="fill:#9a9a9a; stroke:none;" d="M245 23L245 24L247 24L247 25L244 26C245.475 30.0352 243.89 36.9106 249 38L248 26L255 25L245 23z"/>
<path style="fill:#c5c5c5; stroke:none;" d="M103 24L107 27L106 24L103 24z"/>
<path style="fill:#333333; stroke:none;" d="M106 24L108 29L109 24L106 24M112 24L111 32L115 25L112 24z"/>
<path style="fill:#9a9a9a; stroke:none;" d="M118 24L120 26L120 27L116 27L116 29L122 30L118 24z"/>
<path style="fill:#656565; stroke:none;" d="M129.667 25.3333L130.333 25.6667L129.667 25.3333z"/>
<path style="fill:#333333; stroke:none;" d="M99 26L100 30L97 32L100 31L100 36L97 35L94 40L100 39L100 42L102 42L100 37L104 36L104 35L101 34L99 26z"/>
<path style="fill:#fdfdfd; stroke:none;" d="M249 28L249 34L254 33L254 32L251 31L252 27L249 28z"/>
<path style="fill:#333333; stroke:none;" d="M127.667 28.3333L128.333 28.6667L127.667 28.3333M118 29L116 31L116 32L119 34L121 29L118 29z"/>
<path style="fill:#fdfdfd; stroke:none;" d="M255 29L257 36L260 34L260 33L256 30L264 31L255 29z"/>
<path style="fill:#333333; stroke:none;" d="M104 30L107 32L104 30z"/>
<path style="fill:#9a9a9a; stroke:none;" d="M124 30L120 36L125 37L123 34L129 31L124 30M89 31C88.2325 33.3755 87.0652 36.5103 90 37L88 41L89 44C92.7717 41.0286 91.4556 34.5894 89 31z"/>
<path style="fill:#656565; stroke:none;" d="M94 31L91 42L97 35L100 36L100 31L94 31z"/>
<path style="fill:#333333; stroke:none;" d="M114 32L118 35L118 34L114 32z"/>
<path style="fill:#c5c5c5; stroke:none;" d="M134 32L131 38L134 32z"/>
<path style="fill:#656565; stroke:none;" d="M107 34L107 36L111 37L112 33L107 34z"/>
<path style="fill:#333333; stroke:none;" d="M123 35L123 36L126 36L123 35M106 38L109 37L106 38M118 40L123 39C120.94 36.346 119.513 37.364 118 40M130.333 37.6667L130.667 38.3333L130.333 37.6667z"/>
<path style="fill:#fdfdfd; stroke:none;" d="M254 37L249 38L253 41C253.517 43.4584 254.583 44.5234 256 42L254 43L254 42L254 37z"/>
<path style="fill:#010101; stroke:none;" d="M105 38L100 42L100 39L99 39C91.0876 42.2042 91.9868 44.6113 89 52L88 49L87 49L88 53C80.2556 73.7709 69.3829 99.2444 46 107L46 108L58 112L44 115C53.2141 113.836 61.451 113.631 70 117.996C78.1166 122.141 84.4846 130.485 94 131L95 124L116 119L99 127L101 134L113 130C119.182 137.753 130.012 133.156 138 133.948C145.898 134.73 152.872 138.831 161 139L159 134L163 134L161 131L164 130L163 125L151 123C154.118 114.505 152.733 108.351 150 100L147 102C146.423 98.5256 145.474 97.5765 142 97L144 92L130 97L130 98L133 99L110 109L112 106L105 102L102 103L105 100L104 96L98 100L96 96L100 90L95 91L96 94L91 92L91 89L95 90L99 85L99 84L95 85L94 81L99 82L101 77L96 80L98 78L98 77L96 75L100 72L98 73L98 72C100.997 68.9751 102.72 67.1637 101 63L104 64L104 60L105 60L106 63L107 63L107 59L103 58L103 57L107 57L107 54L112 52L109 51L104 54L104 53L108 51L104 47L105 38z"/>
<path style="fill:#333333; stroke:none;" d="M110 38L105 41L104 47L110 47L108 41L114 40L110 38z"/>
<path style="fill:#9a9a9a; stroke:none;" d="M245 38L246 47L247 47L250 47L245 38z"/>
<path style="fill:#c5c5c5; stroke:none;" d="M87 39L89 49L90 49L91 46L90 41L87 39M126 39L122 52L128 50L126 45L131 42L128 39L126 39z"/>
<path style="fill:#010101; stroke:none;" d="M244 41L244 48C238.022 50.8215 237.882 54.0559 238 60L241 61L241 62L237 62L237 63L240 63L238 66L243 64L249 64L249 66L253 64L249 60L247 62C245.192 60.3803 244.175 59.769 246 58L246 41L244 41M112.333 42.6667L112.667 43.3333L112.333 42.6667M121.333 42.6667L121.667 43.3333L121.333 42.6667z"/>
<path style="fill:#656565; stroke:none;" d="M89 46L90 49L91 49L91 46L89 46z"/>
<path style="fill:#333333; stroke:none;" d="M87 47L90 52L87 47z"/>
<path style="fill:#9a9a9a; stroke:none;" d="M96.3333 47.6667L96.6667 48.3333L96.3333 47.6667z"/>
<path style="fill:#333333; stroke:none;" d="M97 47L94 48L99 52L99 47L97 47z"/>
<path style="fill:#656565; stroke:none;" d="M112 47L110 49L111 57L118 58L115 50L115 49L117 48C114.604 47.4254 114.513 47.5249 114 50L113 50L112 47M240 50L244 48L240 50z"/>
<path style="fill:#010101; stroke:none;" d="M110.667 48.3333L111.333 48.6667L110.667 48.3333z"/>
<path style="fill:#9a9a9a; stroke:none;" d="M245 48L244 54L247 53L245 48z"/>
<path style="fill:#333333; stroke:none;" d="M109 49L104 53L104 54C106.931 53.1926 109.498 52.3751 109 49z"/>
<path style="fill:#9a9a9a; stroke:none;" d="M248 51L252 55L252 50L248 51M255 50L254 54L254 55C257.345 54.2796 257.036 52.3319 255 50M87 53L85 61L86 61L87 53z"/>
<path style="fill:#333333; stroke:none;" d="M110 53L109 54L110 58L103 57L103 58L107 59L107 63L106 63L105 60L104 60L104 64L101 63L103 65L98 73L100 72L100 73L96 75L98 77L98 78L96 80L106 77L105 74L106 72L109 68L112 69L111 66L115 61L111 61L112 53L110 53z"/>
<path style="fill:#9a9a9a; stroke:none;" d="M106 55L110 58L106 55z"/>
<path style="fill:#c5c5c5; stroke:none;" d="M118 59L128 55C124.832 53.2588 118.613 55.1578 118 59z"/>
<path style="fill:#333333; stroke:none;" d="M236 54L234 64L231 62L232 67L229 66L231 71L238 72L235 70L235 69L240 69L240 68L235 67L235 66C237.53 65.6743 241.637 63.9225 237 63L237 62L241 62L241 61L238 60L236 54z"/>
<path style="fill:#656565; stroke:none;" d="M234 56L234 59L236 56L234 56z"/>
<path style="fill:#010101; stroke:none;" d="M111 57L111 61L115 59L111 57z"/>
<path style="fill:#9a9a9a; stroke:none;" d="M115 57L113 58L115 61L111 66L110 71L113 71L115 63L119 63L120 66L123 65L123 64L116 62L118 58L115 57M254 57L254 62L255 62L256 57L254 57z"/>
<path style="fill:#656565; stroke:none;" d="M116 62L122 59C118.752 58.3705 116.975 58.6701 116 62z"/>
<path style="fill:#010101; stroke:none;" d="M235 58L233 64L234 64L237 58L235 58z"/>
<path style="fill:#9a9a9a; stroke:none;" d="M243.333 58.6667L243.667 59.3333L243.333 58.6667z"/>
<path style="fill:#fdfdfd; stroke:none;" d="M244 58L247 62L244 58z"/>
<path style="fill:#9a9a9a; stroke:none;" d="M84 61L84 64L85 64L84 61M109 61L109 65L110 65L109 61M253 62L250 65L250 69L254 69L253 62z"/>
<path style="fill:#333333; stroke:none;" d="M115 63L113 70L114 70L115 65L120 65L115 63z"/>
<path style="fill:#9a9a9a; stroke:none;" d="M231 64L232 67L231 64M243 64L235 66L235 67L240 68L240 69L235 69L235 70L238 72L232 72L232 73L236 75L235 78L238 76L233 81L245 80L245 79L243 78L246 75L246 74L243 72L246 72L245 70L247 69L244 67L247 66L243 64z"/>
<path style="fill:#333333; stroke:none;" d="M248 64L244 67L247 69L246 72L245 73L243 72L248 77L251 67L248 64z"/>
<path style="fill:#9a9a9a; stroke:none;" d="M89 65L90 66L89 65z"/>
<path style="fill:#656565; stroke:none;" d="M115 65L113 71L121 71L121 70L119 68L124 66L115 65z"/>
<path style="fill:#333333; stroke:none;" d="M100 66L96 68L96 69L100 66z"/>
<path style="fill:#c5c5c5; stroke:none;" d="M119 70L125 72L120 72L120 76L118 77L113 75L111 73L112 70L110 71L111 68L106 72L108 78L109 78L119 78L117 79L117 80L123 80L118 81L115 82L113 78C113 81.2573 109.565 79.2025 107 79L108 82L117 86L116 87L109 84C110.726 86.8756 114.514 89.3565 111 92L111 91L112 88L108 90L108 100L110 99C108.81 109.752 119.265 106.71 124 101C119.381 101.393 114.655 98.2312 113 104L111 99C115.909 100.636 113.346 94.4691 111 94L111 93L117 96L118 93L121 93L121 95L126 95L123 90C128.723 86.2446 125.201 71.9944 125 66L119 70z"/>
<path style="fill:#656565; stroke:none;" d="M229 68L225 77L224 78L214 84L214 85L222 81L226 84C229.748 80.8569 230.493 77.7778 230 73L233 74L231 83L235 80L233 81L233 80L236 79L236 75L232 73L232 72L235 71L231 71L229 68M248 69L248 70L252 70L252 75L253 75L253 69L248 69z"/>
<path style="fill:#333333; stroke:none;" d="M87 69L88 75L89 75L87 69z"/>
<path style="fill:#fdfdfd; stroke:none;" d="M121 69L112 71L112 72L125 72L121 69z"/>
<path style="fill:#9a9a9a; stroke:none;" d="M249 70L249 77L252 77L252 70L249 70M111 72L111 73L113 75L118 77L120 76C118.558 71.6402 115.085 72.163 111 72z"/>
<path style="fill:#656565; stroke:none;" d="M121 73L124 77L121 73z"/>
<path style="fill:#9a9a9a; stroke:none;" d="M230 73L230 78C232.57 76.1914 232.451 74.8669 230 73z"/>
<path style="fill:#656565; stroke:none;" d="M105 74L106 77L101 80L106 79L104 83L109 83C108.113 80.4767 106.963 79.3919 110 79L110 78L105 74z"/>
<path style="fill:#010101; stroke:none;" d="M243 75L243 78L247 83L241 83L241 85L246 86L244 90L247 88L248 88L243 93L243 94L250 94L247 101L250 102L248 104L249 109C255.763 106.494 253.737 101.768 257 97L257 96L252 95L250 92L252 87L248 87L252 84L252 83L248 84L250 82L243 75z"/>
<path style="fill:#333333; stroke:none;" d="M252 75L252 81L253 81L254 79L254 83L258 88L259 88L252 75z"/>
<path style="fill:#9a9a9a; stroke:none;" d="M109 76C109.617 78.1996 113.027 82.0425 113 78L115 82L119 83C119.523 80.4599 119.595 80.3145 117 80L117 79L119 78L109 76z"/>
<path style="fill:#fdfdfd; stroke:none;" d="M237 76L236 79L237 76z"/>
<path style="fill:#656565; stroke:none;" d="M248 76L250 81L253 78L253 77L248 76M78 77L78 80L79 80L78 77z"/>
<path style="fill:#010101; stroke:none;" d="M230 78L227 86L232 78L230 78z"/>
<path style="fill:#c5c5c5; stroke:none;" d="M250 78L248 84L253 82L252 78L250 78z"/>
<path style="fill:#333333; stroke:none;" d="M99 82L94 81L95 85L101 84L100 81L106 82C105.135 77.9839 100.686 78.9957 99 82z"/>
<path style="fill:#c5c5c5; stroke:none;" d="M221.333 79.6667L221.667 80.3333L221.333 79.6667z"/>
<path style="fill:#656565; stroke:none;" d="M239 79L239 80L242 81L240 84L235 84L235 85L247 83L239 79M253 79L251 82L251 83L261 90L261 89L256 88L254 83L253 79z"/>
<path style="fill:#fdfdfd; stroke:none;" d="M119 83L123 80L119 83z"/>
<path style="fill:#c5c5c5; stroke:none;" d="M235 80L236 83L240 81L235 80z"/>
<path style="fill:#9a9a9a; stroke:none;" d="M238 83L228 86L228 91L232 93L235 90C232.58 95.8713 234.384 99.3653 241 98L240 96L243 95L238 87L242 88C241.031 83.4804 236.594 85.3205 233 86L233 85L240 84L242 81L238 83M100 81L101 84L98 86L103 87L104 87L104 81L100 81M108 103L110 102L110 99L108 100C108.867 94.7989 111.367 92.6937 108 90L112 88L111 91L111 92C117.061 90.6945 110.199 85.9144 109 83L116 87L117 86C108.22 73.1315 100.791 96.331 108 103M222 81C216.142 87.3392 199.032 86.308 205 99L210 98L210 97L204 95L211 90L215 94L217 89L221 88L222 88L222 91L223 91L226 85L223 87L225 82L222 81z"/>
<path style="fill:#fdfdfd; stroke:none;" d="M218.667 82.3333L219.333 82.6667L218.667 82.3333M232.667 82.3333L233.333 82.6667L232.667 82.3333z"/>
<path style="fill:#333333; stroke:none;" d="M104 83L104 87L103 87L102 85L96 86L95 90L91 89L91 92L96 94L97 88L105 90L104 93L99 91C101.944 99.8668 110.934 88.1655 104 83M109.667 83.3333L110.333 83.6667L109.667 83.3333M225 83L223 87L226 85L223 91L222 91L222 88L221 88L217 89L215 94C212.289 93.4234 211.605 93.2325 211 96L208 95L210 99L215 97L218 101L220 94L220 93L218 91L222 93L226 88L229 90L225 83z"/>
<path style="fill:#c5c5c5; stroke:none;" d="M229 86L232 83L229 86z"/>
<path style="fill:#9a9a9a; stroke:none;" d="M252 83L248 87L252 87L250 92L265 99L265 96L263 97L261 95L262 92L256 91L256 90L259 90L259 89L252 83z"/>
<path style="fill:#fdfdfd; stroke:none;" d="M233 85L233 86L236 86L233 85z"/>
<path style="fill:#333333; stroke:none;" d="M242 85L242 94L248 88L247 88L244 90L246 86L242 85z"/>
<path style="fill:#c5c5c5; stroke:none;" d="M256 86L256 88L258 88L258 86L256 86M238 87L241 89L238 87z"/>
<path style="fill:#333333; stroke:none;" d="M83 88L80 91L74 91C77.5196 93.7926 79.9391 93.4089 84 92L83 88z"/>
<path style="fill:#656565; stroke:none;" d="M97 88C99.0771 90.9574 102.308 93.1734 105 90L97 88M226 88L217 98L221 96L219 100L220 101L221 101L222 101L222 96L225 94L226 94L228 96L226 91L233 96L235 90L232 93L226 88M123.333 90.6667L123.667 91.3333L123.333 90.6667M204 95L211 96L214 94L211 90L204 95z"/>
<path style="fill:#010101; stroke:none;" d="M252.667 90.3333L253.333 90.6667L252.667 90.3333M256 90L256 91L262 92L261 95C264.986 91.4839 258.958 90.1639 256 90z"/>
<path style="fill:#9a9a9a; stroke:none;" d="M218 91L220 93L220 94L218 96L223 94L218 91M226 91L228 96L226 94L225 94L222 96L222 101L219 100L221 96L217 98L224 105L231 104L231 103L223 101L224 97L226 97L229 100L228 97C230.378 94.6027 228.207 92.831 226 91z"/>
<path style="fill:#656565; stroke:none;" d="M234 96L239 97L237 94L241 95C239.927 89.9935 236.056 93.2422 234 96z"/>
<path style="fill:#fdfdfd; stroke:none;" d="M252 92L254 94L254 92L252 92z"/>
<path style="fill:#656565; stroke:none;" d="M142 93L142 97L145 97L145 93L142 93z"/>
<path style="fill:#c5c5c5; stroke:none;" d="M145 93L148 101L150 100L151 106L155 105L154 112C158.052 109.289 157.894 98.8853 152 101C150.919 96.545 149.662 93.9945 145 93z"/>
<path style="fill:#9a9a9a; stroke:none;" d="M252.333 93.6667L252.667 94.3333L252.333 93.6667z"/>
<path style="fill:#656565; stroke:none;" d="M99 94L99 99L104 95L99 94M202 94C199.546 97.7507 192.561 105.488 197 109L197 104L203 105L202 100L214 100L211 114L209 116L206 115L204 128L209 128L210 134L210 131C212.889 129.329 213.209 128.098 212 125L221 131L221 136L218 131L213 133L215 132L215 133C213.253 135.046 213.355 135.474 216 136L214 139L218 140L218 137C222.286 139.073 224.351 137.714 228 135L223 131L224 127L221 122L223 122L222 120L227 124L226 124L224 122L225 126L231 122L230 127L233 126L236 122L236 121L234 121L234 120L238 120L238 119L235 119L235 118L237 118L237 117L232 120L229 120C228.736 116.525 228.952 114.824 232 113L232 112L228 111L227 116L223 116L225 111L221 109L221 114L220 114L220 112L219 112L217 116L216 116L218 109L215 109L215 104L220 104L223 108L227 107L227 106L224 103L221 104L215 97L205 99L202 94M243 94L240 96L241 98L230 99L230 100L236 102C236 98.2815 243.055 99.9225 246 100L246 101L240 101L239 103L239 104L248 107L248 108L243 108L243 109L247 109L247 110L242 111L242 112L248 112L248 113L244 113L245 122L246 122L245 117L250 116L253 108L249 109C248.616 105.088 246.682 104.008 243 103L243 102L250 104L247 101L243 94z"/>
<path style="fill:#333333; stroke:none;" d="M244 94L248 98L250 94L244 94M96 96L100 100L99 95L96 96M119.333 95.6667L119.667 96.3333L119.333 95.6667z"/>
<path style="fill:#9a9a9a; stroke:none;" d="M124 95L120 97L125 99L124 95z"/>
<path style="fill:#c5c5c5; stroke:none;" d="M230 95L228 97L228 98L229 100L234 98L230 95z"/>
<path style="fill:#333333; stroke:none;" d="M263.333 95.6667L263.667 96.3333L263.333 95.6667M84 96L83 101L88 98L89 101L91 100L93 104L94 104L97 98L90 99L89 96L84 96z"/>
<path style="fill:#9a9a9a; stroke:none;" d="M135 96L133 97L133 98L135 96z"/>
<path style="fill:#fdfdfd; stroke:none;" d="M224 97L224 102L232 101L232 100L226 97L224 97z"/>
<path style="fill:#c5c5c5; stroke:none;" d="M255 99L260 98L255 99z"/>
<path style="fill:#656565; stroke:none;" d="M123 106L133 99C128.022 97.3611 122.685 100.725 123 106M255 99L255 108L258 108L259 114L256 114L256 115L260 120L264 119L265 122L266 122C266.596 114.444 269.024 103.894 263 98L263 108L266 107L260 109L262 106L257 103L261 104C260.395 101.232 259.711 101.423 257 102L262 99L255 99M131 103L138 100L131 103z"/>
<path style="fill:#333333; stroke:none;" d="M207 99L202 100L203 105L197 104L197 109L205 107L207 99z"/>
<path style="fill:#c5c5c5; stroke:none;" d="M232.667 99.3333L233.333 99.6667L232.667 99.3333z"/>
<path style="fill:#9a9a9a; stroke:none;" d="M235 100L241 103L240 101L246 101L235 100z"/>
<path style="fill:#fdfdfd; stroke:none;" d="M257 102L264 102L263 99L257 102z"/>
<path style="fill:#333333; stroke:none;" d="M102 103L105 102L110 105L109 101L108 101L107 103C104.885 101.073 103.828 100.631 102 103z"/>
<path style="fill:#656565; stroke:none;" d="M147 100L147 102L149 102L147 100z"/>
<path style="fill:#010101; stroke:none;" d="M208 100L210 104C207.007 104.064 205.654 103.946 205 107L196 109L196 110L199 111L197 113L197 114L197 115L197 118L202 119L200 121L199 121L199 125L203 125L206 115L209 116L211 114L214 100L208 100z"/>
<path style="fill:#656565; stroke:none;" d="M141 101L123 111C126.605 110.447 142.487 104.949 141 101z"/>
<path style="fill:#333333; stroke:none;" d="M225.667 101.333L226.333 101.667L225.667 101.333z"/>
<path style="fill:#c5c5c5; stroke:none;" d="M230 101L231 104L228 105L228 106L231 105L248 108C243.282 103.698 236.292 101.553 230 101z"/>
<path style="fill:#333333; stroke:none;" d="M112 102L112 104L114 102L112 102z"/>
<path style="fill:#9a9a9a; stroke:none;" d="M207 102L210 104L207 102z"/>
<path style="fill:#fdfdfd; stroke:none;" d="M221 102L221 104L223 104L223 102L221 102z"/>
<path style="fill:#c5c5c5; stroke:none;" d="M243 102L243 103L249 104L249 103L243 102M261 104L257 103L262 106L260 109L263 110L264 102L261 104z"/>
<path style="fill:#9a9a9a; stroke:none;" d="M128 103L128 104L131 104L128 103z"/>
<path style="fill:#fdfdfd; stroke:none;" d="M226 106L229 103L226 106z"/>
<path style="fill:#333333; stroke:none;" d="M110 108L110 109L123 105L110 108M215 104L218 110C214.441 110.766 215.418 112.867 216 116L217 116L217 111L219 112L215 104z"/>
<path style="fill:#9a9a9a; stroke:none;" d="M217 104L220 114L221 114L221 109L226 113L223 116L227 116L229 111L227 108L247 110L247 109L231 105L226 109L220 104L217 104z"/>
<path style="fill:#656565; stroke:none;" d="M236.667 104.333L237.333 104.667L236.667 104.333z"/>
<path style="fill:#9a9a9a; stroke:none;" d="M255 104L252 120L254 119L254 127L255 127L257 119L260 120L256 114L259 114L259 113L258 108L255 108L255 104z"/>
<path style="fill:#333333; stroke:none;" d="M120 108L121 111L115 111L116 114L124 112L127 105L120 108z"/>
<path style="fill:#9a9a9a; stroke:none;" d="M133 110L133 111L144 110L144 108L148 106L133 110z"/>
<path style="fill:#333333; stroke:none;" d="M151 106L153 110L154 110L155 105L151 106z"/>
<path style="fill:#656565; stroke:none;" d="M239 105L239 106L243 106L239 105z"/>
<path style="fill:#fdfdfd; stroke:none;" d="M222 106L226 109L222 106z"/>
<path style="fill:#9a9a9a; stroke:none;" d="M17 116L28 115L28 114L23 114L23 113L30 113L30 110L27 107L17 116z"/>
<path style="fill:#333333; stroke:none;" d="M27.6667 107.333L28.3333 107.667L27.6667 107.333z"/>
<path style="fill:#c5c5c5; stroke:none;" d="M28 108L30 110L29 112C34.4426 114.498 40.29 114.692 46 113L46 112L33 112L32 110L32 109L39 110L28 108z"/>
<path style="fill:#9a9a9a; stroke:none;" d="M43 107L43 108L46 108L43 107z"/>
<path style="fill:#fdfdfd; stroke:none;" d="M215.333 107.667L215.667 108.333L215.333 107.667z"/>
<path style="fill:#9a9a9a; stroke:none;" d="M264 107L263 108L263 109L263 110L266 107L264 107z"/>
<path style="fill:#333333; stroke:none;" d="M25 108L27 111L25 108M38 108L42 111L48 109C49.9244 113.787 53.5563 112.822 58 112C53.4251 106.67 44.5698 108.001 38 108M194 108L194 113L191 112L189 118L192 114L199 117L197 115L197 114L197 113L199 111L194 108z"/>
<path style="fill:#fdfdfd; stroke:none;" d="M227 108C229.681 111.724 235.466 111.878 238 108L227 108z"/>
<path style="fill:#c5c5c5; stroke:none;" d="M238 108L230 111L233 115L238 114L239 114L243 111L238 108z"/>
<path style="fill:#333333; stroke:none;" d="M30 109L31 110L30 109z"/>
<path style="fill:#fdfdfd; stroke:none;" d="M32 109L32 110L33 112L40 112L32 109z"/>
<path style="fill:#656565; stroke:none;" d="M42 109C42.7636 112.582 45.6358 112.647 49 113L48 109L46 111L42 109z"/>
<path style="fill:#333333; stroke:none;" d="M102 112L106 109L102 112z"/>
<path style="fill:#656565; stroke:none;" d="M130 114L130 113L133 112L133 111L126 112L126 113L129 112C130.076 117.019 137.85 114.651 142 115L142 116L130 116L130 117C135.028 119.226 139.61 120.578 145 119L145 118L141 118L141 117L150 117L150 116L144 116L144 115L149 110L130 114z"/>
<path style="fill:#9a9a9a; stroke:none;" d="M153 110L151 123L155 124L157 111L153 110z"/>
<path style="fill:#010101; stroke:none;" d="M251 110L250 116L245 117L246 122L250 122L247 134C250.881 136.262 249.863 139.021 249 143L254 140L251.21 126L251 110z"/>
<path style="fill:#c5c5c5; stroke:none;" d="M260.333 110.667L260.667 111.333L260.333 110.667M217 111L218 115L219 115L217 111z"/>
<path style="fill:#9a9a9a; stroke:none;" d="M241 111L240 112L241 116L228 115L229 120L232 120C235.559 116.691 237.183 119.712 241 121L241 120C239.499 118.188 239.842 117.978 242 117L242 118L240 119L243 120L244 113L248 113L241 111z"/>
<path style="fill:#fdfdfd; stroke:none;" d="M255.333 111.667L255.667 112.333L255.333 111.667z"/>
<path style="fill:#9a9a9a; stroke:none;" d="M261 114L266 112L261 114z"/>
<path style="fill:#010101; stroke:none;" d="M27 112L23 113L23 114L27 112M224.667 112.333L225.333 112.667L224.667 112.333z"/>
<path style="fill:#fdfdfd; stroke:none;" d="M233 115L241 116L240 112L233 115z"/>
<path style="fill:#333333; stroke:none;" d="M235 112L235 113L238 113L235 112z"/>
<path style="fill:#656565; stroke:none;" d="M28 113L28 115L40 115L28 113z"/>
<path style="fill:#333333; stroke:none;" d="M120 114L120 115L130 117L127 116L127 115L129 115L120 114z"/>
<path style="fill:#fdfdfd; stroke:none;" d="M229 113L233 116L232 113L229 113z"/>
<path style="fill:#333333; stroke:none;" d="M242.333 113.667L242.667 114.333L242.333 113.667z"/>
<path style="fill:#656565; stroke:none;" d="M41 114L41 115L44 115L41 114z"/>
<path style="fill:#c5c5c5; stroke:none;" d="M45 115L45 116L61 115L45 115z"/>
<path style="fill:#010101; stroke:none;" d="M127 115L127 116L142 116L127 115z"/>
<path style="fill:#656565; stroke:none;" d="M192 114L191 118L189 116L188 116C187.337 119.979 185.274 133.069 181 132L181 138L182 138L182 136L183 136L186 141L186 133C191.926 131.718 192.214 127.287 191 122L196 119L194 133L195 133L199 121L200 121L201 123L202 119L192 114z"/>
<path style="fill:#fdfdfd; stroke:none;" d="M260 115L262 117L262 115L260 115z"/>
<path style="fill:#9a9a9a; stroke:none;" d="M141 117L141 118L149 118L141 117z"/>
<path style="fill:#fdfdfd; stroke:none;" d="M239 117L241 120L241 121L234 120L234 121L242 123L242 118L239 117z"/>
<path style="fill:#333333; stroke:none;" d="M129 118L128 122L131 124L129 118z"/>
<path style="fill:#fdfdfd; stroke:none;" d="M235 118L235 119L238 119L235 118z"/>
<path style="fill:#9a9a9a; stroke:none;" d="M248 118L247 120L249 120L248 118M110 120L113 123L114 123L116 119L110 120z"/>
<path style="fill:#333333; stroke:none;" d="M194 119L191 122L191 131L193 136L194 136L194 134L195 134L199 147L207 154L208 154L211 152L207 149L207 148L210 144L211 144L212 151L218 149L217 146L219 146L217 141L222 141C224.365 145.287 227.168 147.229 232 148L232 144L233 144C233.384 149.527 232.824 152.857 228 156L231 152L224 151L222 154L224 159L229 158L229 161L232 159L231 156L234 156L233 153L234 152L243 153C241.416 149.06 238.986 149.048 235 149L234 144L237 146L244 142C244.983 138.736 246.512 136.626 250 138L251 138L250 134L242 134L243 127L242 127C238.729 130.558 235.591 130.28 231 130L231 131L234 132L229 135L229 127L222 126L222 127L228 130L229 138L226 141L214 139L216 136L213 135L215 132L213 133L213 132L216 131L215 128L213 128L210 131L210 134L209 128L204 128L207 120L203 120L203 125C198.435 125.515 199.952 131.177 199 135L206 134L206 141L202 142L197 132L194 133L196 119L194 119z"/>
<path style="fill:#fdfdfd; stroke:none;" d="M209.667 119.333L210.333 119.667L209.667 119.333z"/>
<path style="fill:#656565; stroke:none;" d="M253 119C249.754 125.084 250.736 133.359 256 138L255 129L256 129L256 133L258 133L261 121L257 119L255 127L254 127L253 119z"/>
<path style="fill:#9a9a9a; stroke:none;" d="M262 119C262.144 121.662 262.819 122.636 260 123L260 124L262 124L262 125C256.212 126.693 257.668 135.123 257 140L255 137L254 137L255 144L256 144L256 141L257 141L258 143L261 143L261 141L264 143L258 135L261 130L260 127L264 123L265 125L266 125L264 119L262 119z"/>
<path style="fill:#656565; stroke:none;" d="M144.667 120.333L145.333 120.667L144.667 120.333z"/>
<path style="fill:#9a9a9a; stroke:none;" d="M222 120L221 125L225 126L224 122L226 124C226.688 120.955 224.758 120.451 222 120z"/>
<path style="fill:#c5c5c5; stroke:none;" d="M242 120L242 126L243 126L246 123L245 120L242 120M259 120L259 121L261 122C258.477 123.417 259.542 124.483 262 125L262 124L260 124L260 123L263 122L259 120z"/>
<path style="fill:#656565; stroke:none;" d="M105 121L105 122L108 122L105 121z"/>
<path style="fill:#c5c5c5; stroke:none;" d="M98 124L98 125L113 122L98 124z"/>
<path style="fill:#656565; stroke:none;" d="M132 121L132 125L133 125L149 125L132 121z"/>
<path style="fill:#333333; stroke:none;" d="M186 121L184 128L185 128L188 121L186 121z"/>
<path style="fill:#9a9a9a; stroke:none;" d="M214 121L217 127L221 127L214 121z"/>
<path style="fill:#656565; stroke:none;" d="M102.667 122.333L103.333 122.667L102.667 122.333z"/>
<path style="fill:#fdfdfd; stroke:none;" d="M221.667 122.333L222.333 122.667L221.667 122.333M229 122L230 125L231 125L231 122L229 122z"/>
<path style="fill:#9a9a9a; stroke:none;" d="M233 122L230 127L230 123L226 127L229 135L234 132L231 131L231 130L239 130L237 128L241 127L240 123L233 122z"/>
<path style="fill:#333333; stroke:none;" d="M243 126L248 125L248 130L250 122C246.53 122.248 244.039 122.449 243 126z"/>
<path style="fill:#656565; stroke:none;" d="M240.667 123.333L241.333 123.667L240.667 123.333z"/>
<path style="fill:#010101; stroke:none;" d="M264 123L263 128L264 123z"/>
<path style="fill:#9a9a9a; stroke:none;" d="M95 124C92.8898 135.553 112.114 141.367 113 130L101 134C100.56 129.26 99.9495 125.41 95 124z"/>
<path style="fill:#656565; stroke:none;" d="M105 124L105 125L108 125L105 124z"/>
<path style="fill:#9a9a9a; stroke:none;" d="M157.667 124.333L158.333 124.667L157.667 124.333z"/>
<path style="fill:#fdfdfd; stroke:none;" d="M239 124L239 125L241 127L237 128L241 130L242 124L239 124z"/>
<path style="fill:#9a9a9a; stroke:none;" d="M212 125L218 131L221 136L221 131L212 125z"/>
<path style="fill:#fdfdfd; stroke:none;" d="M222.667 125.333L223.333 125.667L222.667 125.333z"/>
<path style="fill:#c5c5c5; stroke:none;" d="M246 125L243 130L243 131C247.249 130.661 248.823 129.324 248 125L246 125z"/>
<path style="fill:#9a9a9a; stroke:none;" d="M242 126L242 134L248 135L248 131L243 131L243 130L246 126L242 126z"/>
<path style="fill:#656565; stroke:none;" d="M262 126L260 127L261 130L258 135L265 130L262 126z"/>
<path style="fill:#010101; stroke:none;" d="M199 127L195 133L198 136L199 127z"/>
<path style="fill:#656565; stroke:none;" d="M202 127L202 133L203 133L204 131L207 132L202 127z"/>
<path style="fill:#fdfdfd; stroke:none;" d="M95 128L95 131L96 131L95 128z"/>
<path style="fill:#333333; stroke:none;" d="M96.3333 128.667L96.6667 129.333L96.3333 128.667M183 128L182 133L183 133L183 128z"/>
<path style="fill:#9a9a9a; stroke:none;" d="M223 129L224 132L228 132L223 129z"/>
<path style="fill:#333333; stroke:none;" d="M255 129L256 140L257 140L255 129M262 130L260 138L261 138L264 130L262 130z"/>
<path style="fill:#656565; stroke:none;" d="M91 131L91 132L94 138L95 138L94 134L97 137L100 134L91 131z"/>
<path style="fill:#010101; stroke:none;" d="M186 133L191 144L192 144L195 134L194 134L194 136L193 136L193 131L186 133z"/>
<path style="fill:#fdfdfd; stroke:none;" d="M98.6667 133.333L99.3333 133.667L98.6667 133.333z"/>
<path style="fill:#656565; stroke:none;" d="M199 135L204 142L206 134L199 135z"/>
<path style="fill:#9a9a9a; stroke:none;" d="M94 134C95.0247 137.714 96.1949 139.178 100 140L100 136L97 137L94 134z"/>
<path style="fill:#c5c5c5; stroke:none;" d="M100 134C99.303 137.8 99.7208 139.835 103 142C103.858 138.237 102.925 136.464 100 134z"/>
<path style="fill:#9a9a9a; stroke:none;" d="M121.667 134.333L122.333 134.667L121.667 134.333z"/>
<path style="fill:#656565; stroke:none;" d="M140.667 134.333L141.333 134.667L140.667 134.333M159.667 134.333L160.333 134.667L159.667 134.333M126 135L126 136L130 136L126 135z"/>
<path style="fill:#010101; stroke:none;" d="M236 136L242 138L242 137L239 135L236 136z"/>
<path style="fill:#9a9a9a; stroke:none;" d="M239 137L245 136L239 137z"/>
<path style="fill:#c5c5c5; stroke:none;" d="M182 136L182 145L183 145L182 136z"/>
<path style="fill:#656565; stroke:none;" d="M207 137L209 142L213 137L207 137z"/>
<path style="fill:#9a9a9a; stroke:none;" d="M223 140L226 141L229 137C225.774 136.422 224.529 137.087 223 140z"/>
<path style="fill:#656565; stroke:none;" d="M244 138L250 140L250 136L244 138M196 137L194 142L200 146L200 140L196 137z"/>
<path style="fill:#c5c5c5; stroke:none;" d="M197.333 137.667L197.667 138.333L197.333 137.667z"/>
<path style="fill:#010101; stroke:none;" d="M217 139L220 139L219 137L217 139z"/>
<path style="fill:#656565; stroke:none;" d="M153.667 138.333L154.333 138.667L153.667 138.333z"/>
<path style="fill:#333333; stroke:none;" d="M186 138L186 141L185 141L184 139L183 139L183 157L184 157L195 142L190 143L187 145L185 150L185 142L189 143L186 138z"/>
<path style="fill:#656565; stroke:none;" d="M231 138L228 143L233 143L231 138M234 138L234 143L239 143L235 141L238 139L234 138z"/>
<path style="fill:#9a9a9a; stroke:none;" d="M235 141L241 138L235 141M157.667 139.333L158.333 139.667L157.667 139.333z"/>
<path style="fill:#010101; stroke:none;" d="M203.333 139.667L203.667 140.333L203.333 139.667z"/>
<path style="fill:#9a9a9a; stroke:none;" d="M204 139L204 141L206 141L204 139z"/>
<path style="fill:#010101; stroke:none;" d="M244 139L245 144L248 141L247 139L244 139z"/>
<path style="fill:#333333; stroke:none;" d="M252 139L249 143L250 140L246 140L246 141L248 142L246 146L243 144L242 144L238 147L238 148L243 147C245.314 151.101 248.541 152.562 253 151L253 150L247 150L247 149L256 146L252 139z"/>
<path style="fill:#9a9a9a; stroke:none;" d="M181 140L182 150L183 150L181 140z"/>
<path style="fill:#010101; stroke:none;" d="M217 141L220 148L221 148L221 145L225 145L225 144L222 141L217 141z"/>
<path style="fill:#c5c5c5; stroke:none;" d="M256 141L256 146L252 148L259 145L259 141L258 141L256 141z"/>
<path style="fill:#656565; stroke:none;" d="M185 142L185 150L187 145L190 142L185 142z"/>
<path style="fill:#010101; stroke:none;" d="M195 142C191.496 146.911 192.981 148.993 197 153C193.136 154.145 190.731 154.789 190 159L195 160L194 158L195 158L198 159L197 163L201 164L201 165L196 164L196 165L202 167L202 168L194 167L194 168L197 170L185 166L185 167L192 168C188.676 171.468 183.367 172.665 180 169C180.266 174.341 185.448 174.791 190 175L190 176L188 177L195 178L193 181L202 181L202 180L194 175C195.987 174.773 200.264 172.765 198 176L211 178L209 174C213.023 172.616 228.584 155.012 223 172C226.501 171.297 233.228 169.635 236.051 167.444C237.798 166.089 239.619 163.476 237 163L239 159C235.973 158.628 235.764 156.847 236 154L237 154C240.426 160.175 246.117 158.866 249 153L243 147L242 147L243 154L234 152L233 153L234 156L231 156L232 159L229 161L229 158L224 159L222 154L224 149L223 149L220 154L215 152L215 151L217 151L217 150L212 151L211 144L210 144L207 148L207 149L221 158L220 158C214.656 151.073 200.574 155.579 195 146L196 146L202 150L195 142z"/>
<path style="fill:#656565; stroke:none;" d="M237 146L234 144L235 149L239 149L242 144L243 144L246 146C243.899 140.767 240.075 142.367 237 146M200 143L202 147L203 147L203 143L200 143z"/>
<path style="fill:#9a9a9a; stroke:none;" d="M227 143L230 145L230 144L227 143z"/>
<path style="fill:#656565; stroke:none;" d="M232 144L232 148C228.277 147.218 222.151 142.629 221 148L220 148L217 146L215 149L215 150C216.96 150.653 217.554 151 215 151L215 152L223 149L228 152L234 148L232 144M191 145L187 152L191 155L197 153L191 145z"/>
<path style="fill:#c5c5c5; stroke:none;" d="M195 146L196 150L197 150L195 146z"/>
<path style="fill:#9a9a9a; stroke:none;" d="M244 147L244 149L246 149L246 147L244 147z"/>
<path style="fill:#010101; stroke:none;" d="M247 149L247 150C250.759 150.56 252.816 150.199 255 147L247 149z"/>
<path style="fill:#c5c5c5; stroke:none;" d="M239 148L239 149L242 149L239 148z"/>
<path style="fill:#656565; stroke:none;" d="M197 149L197 150C200.08 151.501 205.941 155.841 207 151L204 152L197 149z"/>
<path style="fill:#010101; stroke:none;" d="M228 149L231 153L228 156L234 150L228 149z"/>
<path style="fill:#9a9a9a; stroke:none;" d="M183 150L185 153L183 150z"/>
<path style="fill:#333333; stroke:none;" d="M218 151L219 154L220 154L222 150L218 151z"/>
<path style="fill:#9a9a9a; stroke:none;" d="M244 150L249 153L249 152L244 150z"/>
<path style="fill:#c5c5c5; stroke:none;" d="M185 156L188 159L185 157L183 161C188.15 159.863 189.864 158.15 191 153L185 156z"/>
<path style="fill:#656565; stroke:none;" d="M208 152L209 155L215 154L215 153L208 152z"/>
<path style="fill:#9a9a9a; stroke:none;" d="M250 152C246.804 156.524 245.432 159.443 246 165L249 165L251 160L252 152L250 152z"/>
<path style="fill:#656565; stroke:none;" d="M197 153C199.062 156.929 201.684 157.764 206 158L206 157L197 153z"/>
<path style="fill:#333333; stroke:none;" d="M210 154L210 155L220 158C221.221 152.854 213.262 153.26 210 154z"/>
<path style="fill:#656565; stroke:none;" d="M237 153L237 154L243 154L237 153z"/>
<path style="fill:#333333; stroke:none;" d="M236 154C235.725 157.083 235.827 158.633 239 159L237 163L238 169L235 172L240 166L245 166L246 158L236 154z"/>
<path style="fill:#9a9a9a; stroke:none;" d="M179 170L181 172L182 172L183 168L181 162L188 166L189 162L196 164C193.032 158.12 188.508 159.453 183 161L185 157L188 159C182.594 150.891 178.553 165.627 179 170z"/>
<path style="fill:#656565; stroke:none;" d="M213 157L215 160L215 157L213 157z"/>
<path style="fill:#9a9a9a; stroke:none;" d="M194 158L198 160L194 158z"/>
<path style="fill:#fdfdfd; stroke:none;" d="M247 158L247 164L248 164L247 158z"/>
<path style="fill:#656565; stroke:none;" d="M194 160L201 165L201 164L194 160z"/>
<path style="fill:#fdfdfd; stroke:none;" d="M185 163C187.396 163.575 187.487 163.475 188 161L185 163z"/>
<path style="fill:#c5c5c5; stroke:none;" d="M245 161L243 165L245 169L248 165L245 161M181 162L181 166L190 170L190 169L187 166L181 162z"/>
<path style="fill:#010101; stroke:none;" d="M189 162C189.968 165.445 191.628 165.579 195 165L195 164L189 162z"/>
<path style="fill:#9a9a9a; stroke:none;" d="M219 163L217 168L221 177L224 178L223 173C225.152 167.747 225.675 163.516 219 163z"/>
<path style="fill:#333333; stroke:none;" d="M188 165L188 166L197 170L194 168L194 167L202 168L188 165z"/>
<path style="fill:#656565; stroke:none;" d="M217 164L218 171L220 164L217 164z"/>
<path style="fill:#333333; stroke:none;" d="M180 165L183 168L183 173C186.454 169.287 184.071 166.758 180 165z"/>
<path style="fill:#656565; stroke:none;" d="M209 165L209 167L214 167L214 165L209 165z"/>
<path style="fill:#fdfdfd; stroke:none;" d="M207.667 166.333L208.333 166.667L207.667 166.333z"/>
<path style="fill:#9a9a9a; stroke:none;" d="M240 166L240 174L244 173L245 166L240 166z"/>
<path style="fill:#010101; stroke:none;" d="M72 167L69 182L72 177L73 177C76.115 182.936 81.2246 181.729 87 181L87 180L83 180L87 173C79.271 174.67 80.5425 180.515 72 176L72 167z"/>
<path style="fill:#9a9a9a; stroke:none;" d="M236 167L232 169L234 172L235 172L238 168L236 167z"/>
<path style="fill:#656565; stroke:none;" d="M68 168L71 170L68 168z"/>
<path style="fill:#333333; stroke:none;" d="M188 168L188 169C189.96 169.653 190.554 170 188 170L188 171L192 168L188 168z"/>
<path style="fill:#656565; stroke:none;" d="M230.667 168.333L231.333 168.667L230.667 168.333z"/>
<path style="fill:#010101; stroke:none;" d="M44 169L40 173L41 183L47 179L43 181L47 174L47 173L44 169z"/>
<path style="fill:#fdfdfd; stroke:none;" d="M217 169L222 179L223 190L224 190L225 176L224 176L221 177C221.608 173.396 220.2 170.839 217 169z"/>
<path style="fill:#c5c5c5; stroke:none;" d="M231 169L239 176L240 176L239 170L231 169z"/>
<path style="fill:#656565; stroke:none;" d="M197.667 170.333L198.333 170.667L197.667 170.333z"/>
<path style="fill:#fdfdfd; stroke:none;" d="M215 170L214 176C205.113 180.843 187.127 191.316 187 202L189 202C189.265 198.806 189.628 195.861 193 195L191 199L200 194L198 198L203 198L203 190L204 190L205 203L206 203L206 200L210 200C209.021 203.674 209.202 205.74 213 207L207 189L208 189C208.487 194.886 214.464 205.214 219.796 195.826C221.925 192.076 219.422 187.096 220 183L219 179L215 170z"/>
<path style="fill:#9a9a9a; stroke:none;" d="M227 170L229 172L229 170L227 170z"/>
<path style="fill:#333333; stroke:none;" d="M178 171L177 174L175 172L174 172L172 179L179 180L181 182L180 179L195 184L195 178L191 177L192 181L188 176L178 171z"/>
<path style="fill:#c5c5c5; stroke:none;" d="M179.333 171.667L179.667 172.333L179.333 171.667z"/>
<path style="fill:#9a9a9a; stroke:none;" d="M216 171L219 175L216 171z"/>
<path style="fill:#333333; stroke:none;" d="M226 171L225 177L226 177L226 171z"/>
<path style="fill:#656565; stroke:none;" d="M52 172L52 175L53 175L52 172M74 172L72 175L72 176L75 178L77 175L77 174L74 172z"/>
<path style="fill:#010101; stroke:none;" d="M75 172L76 174L77 174L78 172L75 172z"/>
<path style="fill:#656565; stroke:none;" d="M93 172L93 175L94 175L93 172z"/>
<path style="fill:#fdfdfd; stroke:none;" d="M223.667 172.333L224.333 172.667L223.667 172.333z"/>
<path style="fill:#9a9a9a; stroke:none;" d="M39 173L42 175L42 174L39 173z"/>
<path style="fill:#333333; stroke:none;" d="M48 174L50 182L54 178L50 173L48 174z"/>
<path style="fill:#010101; stroke:none;" d="M50 173L52 175L52 173L50 173M58 173L57 181L58 181L58 173M63 173L62 181L65 173L63 173z"/>
<path style="fill:#656565; stroke:none;" d="M65 176L69 174L65 176z"/>
<path style="fill:#010101; stroke:none;" d="M91 173L91 181L94 180L93 173L91 173M98 173L96 177L100 173L98 173z"/>
<path style="fill:#c5c5c5; stroke:none;" d="M180 173L180 174L184 175L184 174L180 173z"/>
<path style="fill:#333333; stroke:none;" d="M197 173L194 175C196.337 179.439 202.685 181.611 206 177L198 176L200 174L197 173z"/>
<path style="fill:#9a9a9a; stroke:none;" d="M209 174L209 176L213 177L214 176L214 174L213 173L209 174M84 174L84 176L86 176L86 174L84 174z"/>
<path style="fill:#c5c5c5; stroke:none;" d="M177.333 174.667L177.667 175.333L177.333 174.667z"/>
<path style="fill:#656565; stroke:none;" d="M183 175L183 176L190 176L183 175z"/>
<path style="fill:#9a9a9a; stroke:none;" d="M58 175L58 179L59 179L58 175z"/>
<path style="fill:#333333; stroke:none;" d="M217.667 175.333L218.333 175.667L217.667 175.333z"/>
<path style="fill:#9a9a9a; stroke:none;" d="M228 175L226 177L225 177L224 190L223 190L222 179L217 176L219 179L220 183L221 195L222 195L223 193L225 195L224 192C226.831 189.527 229.236 178.574 228 175z"/>
<path style="fill:#656565; stroke:none;" d="M55.6667 176.333L56.3333 176.667L55.6667 176.333z"/>
<path style="fill:#c5c5c5; stroke:none;" d="M174 176L180 179L180 178L174 176z"/>
<path style="fill:#9a9a9a; stroke:none;" d="M179 176L179 177L183 178L179 176z"/>
<path style="fill:#c5c5c5; stroke:none;" d="M54 179L56 182L57 182L57 177L54 179z"/>
<path style="fill:#9a9a9a; stroke:none;" d="M64.3333 177.667L64.6667 178.333L64.3333 177.667z"/>
<path style="fill:#333333; stroke:none;" d="M97 177L93 192L94 192L99 177L97 177z"/>
<path style="fill:#c5c5c5; stroke:none;" d="M171 177C171.222 182.052 174.403 182.851 179 183L179 180L171 177z"/>
<path style="fill:#656565; stroke:none;" d="M188 177L192 181L188 177z"/>
<path style="fill:#9a9a9a; stroke:none;" d="M200 179L200 180L204 181L203 185L206 180L207 180L208 182L210 180L200 179M40.3333 179.667L40.6667 180.333L40.3333 179.667M49.3333 179.667L49.6667 180.333L49.3333 179.667z"/>
<path style="fill:#656565; stroke:none;" d="M87.6667 179.333L88.3333 179.667L87.6667 179.333M180 179C182.029 183.109 184.423 184.58 189 184L189 183L186 183L186 182L188 182L188 181L180 179z"/>
<path style="fill:#010101; stroke:none;" d="M170 180L168 188L186 188C187.649 197.491 197.37 188.061 202 186L202 185L196 183C191.279 187.747 175.456 183.097 170 180z"/>
<path style="fill:#9a9a9a; stroke:none;" d="M186 180L186 181C187.96 181.653 188.554 182 186 182L186 183L188 185L195 186L186 180z"/>
<path style="fill:#333333; stroke:none;" d="M206.333 180.667L206.667 181.333L206.333 180.667z"/>
<path style="fill:#9a9a9a; stroke:none;" d="M83.6667 181.333L84.3333 181.667L83.6667 181.333z"/>
<path style="fill:#656565; stroke:none;" d="M193 181L195 185L199 184L201 182L193 181z"/>
<path style="fill:#c5c5c5; stroke:none;" d="M199 185L203 186L202 181L199 185z"/>
<path style="fill:#333333; stroke:none;" d="M202.667 181.333L203.333 181.667L202.667 181.333z"/>
<path style="fill:#656565; stroke:none;" d="M176 183L176 184L179 184L176 183z"/>
<path style="fill:#9a9a9a; stroke:none;" d="M260 185L256 190L260 185z"/>
<path style="fill:#333333; stroke:none;" d="M167 186L163 195C166.065 192.57 168.364 189.989 167 186z"/>
<path style="fill:#9a9a9a; stroke:none;" d="M165 199L171 201L177 198L186 188L177 191L178 186C167.728 186.036 167.711 190.686 165 199z"/>
<path style="fill:#656565; stroke:none;" d="M178 186L177 191L182 190L178 186z"/>
<path style="fill:#fdfdfd; stroke:none;" d="M169.667 189.333L170.333 189.667L169.667 189.333z"/>
<path style="fill:#c5c5c5; stroke:none;" d="M207 189C207.182 196.045 209.129 199.149 215 203L207 189M185 190C180.626 191.824 178.56 193.091 178 198C183.254 197.502 185.383 198.527 186 204L187 204L187 195L184 196L182 194L182 193L185 190z"/>
<path style="fill:#9a9a9a; stroke:none;" d="M203 190L203 198L200 198L203 199L201 202L201 203L203 206L210 201L210 200L206 203L205 203L203 190z"/>
<path style="fill:#656565; stroke:none;" d="M182 193L182 194L184 196L190 194L182 193z"/>
<path style="fill:#9a9a9a; stroke:none;" d="M226 192L227 203L228 203L226 192z"/>
<path style="fill:#c5c5c5; stroke:none;" d="M222 193L220 195L218 206L226 203L222 193M162 194L162 199C165.102 198.052 165.866 197.251 166 194L162 194z"/>
<path style="fill:#9a9a9a; stroke:none;" d="M191 194L188 206L189 206L190 203L194 203L193 206L197 205L197 204L196 201L191 201L193 195L191 194z"/>
<path style="fill:#c5c5c5; stroke:none;" d="M191 201L200 199L198 197L200 194L191 201M245 195L237 198C238.91 201.056 238.283 202.267 235 204L236 201L230 204L240 207L241 206L239 205L239 204L243 204L243 203L241 202L247 199L247 200L244 207L246 207L245 209L251 210L251 209C247.063 205.251 248.362 201.957 249 197L246 198L247 195L245 195z"/>
<path style="fill:#656565; stroke:none;" d="M254 195L248 199L248 203L259 202L259 201L254 202L254 195z"/>
<path style="fill:#9a9a9a; stroke:none;" d="M215 201L219 201C217.137 203.523 214.972 206.119 219 207L221 197L215 201M263 199L263 200L270 199L263 199z"/>
<path style="fill:#656565; stroke:none;" d="M177.667 199.333L178.333 199.667L177.667 199.333z"/>
<path style="fill:#333333; stroke:none;" d="M197 202L200 199L197 202z"/>
<path style="fill:#fdfdfd; stroke:none;" d="M198 202L203 200L198 202z"/>
<path style="fill:#656565; stroke:none;" d="M237 199L235 204L239 199L237 199z"/>
<path style="fill:#fdfdfd; stroke:none;" d="M241 203L247 200C243.884 198.987 242.622 200.346 241 203z"/>
<path style="fill:#656565; stroke:none;" d="M196 200L195 204L199 204L198 206L203 206L202 201L196 200z"/>
<path style="fill:#9a9a9a; stroke:none;" d="M251 210L245 209L245 210L253 212L256 209L263 200C258.588 201.954 251.943 205.045 251 210M158.333 201.667L158.667 202.333L158.333 201.667z"/>
<path style="fill:#656565; stroke:none;" d="M175.333 201.667L175.667 202.333L175.333 201.667z"/>
<path style="fill:#333333; stroke:none;" d="M212 201L213 207L208 206L215 208L212 201z"/>
<path style="fill:#fdfdfd; stroke:none;" d="M215 207L216 207L219 201C215.679 202.099 215.263 203.59 215 207z"/>
<path style="fill:#9a9a9a; stroke:none;" d="M172 202L166 204C167.305 206.08 168.181 206.941 170 205L171 205L174 208L172 206L172 202z"/>
<path style="fill:#333333; stroke:none;" d="M184 202C183.022 204.158 182.812 204.501 181 203L180 203L176 206L176 207L187 209L189 202L184 202z"/>
<path style="fill:#656565; stroke:none;" d="M207 202L206 206L209 202L207 202z"/>
<path style="fill:#fdfdfd; stroke:none;" d="M248 203C246.798 210.84 255.613 204.995 259 203L248 203z"/>
<path style="fill:#c5c5c5; stroke:none;" d="M147 203L147 204L154 206L147 203z"/>
<path style="fill:#656565; stroke:none;" d="M159 203L156 207L156 208L160 209L161 207L159 203z"/>
<path style="fill:#010101; stroke:none;" d="M173 203L174 208L171 205L170 205L166 206L163 209L162 206L159 207L161 211L191 213L191 214L186 214L186 215L207 214L217 216L222 213L222 214L220 216L235 215L236 211L227 213L227 212L231 209L220 209L222 206L208 208L209 205C207.187 206.556 207.187 207.444 209 209L209 210L199 210L199 204L193 206L194 203L190 203L187 209L173 203z"/>
<path style="fill:#9a9a9a; stroke:none;" d="M225 203L220 209L228 207L228 206L225 206L225 203z"/>
<path style="fill:#333333; stroke:none;" d="M243 203L239 204L239 205L241 206L240 207L234 204C229.654 204.715 227.007 205.975 225 210L231 209L227 212L227 213C230.257 212.635 232.291 212.331 233 209L239 210L239 211L233 216L233 217L242 218L238 212L246 212L246 207L242 207L243 203z"/>
<path style="fill:#fdfdfd; stroke:none;" d="M200.667 204.333L201.333 204.667L200.667 204.333M205 204L207 207L205 204z"/>
<path style="fill:#9a9a9a; stroke:none;" d="M249.333 204.667L249.667 205.333L249.333 204.667z"/>
<path style="fill:#fdfdfd; stroke:none;" d="M234.667 205.333L235.333 205.667L234.667 205.333M242 207L245 205L242 207z"/>
<path style="fill:#656565; stroke:none;" d="M153.667 206.333L154.333 206.667L153.667 206.333z"/>
<path style="fill:#333333; stroke:none;" d="M162 206L163 209L166 206L162 206z"/>
<path style="fill:#c5c5c5; stroke:none;" d="M181.667 206.333L182.333 206.667L181.667 206.333z"/>
<path style="fill:#333333; stroke:none;" d="M198 206L199 210L209 210L198 206z"/>
<path style="fill:#9a9a9a; stroke:none;" d="M153 208L153 209L160 210L153 208M241 208L241 210L243 210L243 208L241 208z"/>
<path style="fill:#333333; stroke:none;" d="M252.667 208.333L253.333 208.667L252.667 208.333z"/>
<path style="fill:#9a9a9a; stroke:none;" d="M264 209L264 210L270 210L264 209z"/>
<path style="fill:#010101; stroke:none;" d="M152.667 209.333L153.333 209.667L152.667 209.333z"/>
<path style="fill:#9a9a9a; stroke:none;" d="M233 209L233 210L239 211L233 209z"/>
<path style="fill:#c5c5c5; stroke:none;" d="M160 210L158 214L163 215L164 215L166 210L160 210z"/>
<path style="fill:#656565; stroke:none;" d="M166 210L171 214L166 210M251 213L251 214L260 213L258 210L251 213z"/>
<path style="fill:#9a9a9a; stroke:none;" d="M196 211L196 212L201 212L196 211z"/>
<path style="fill:#656565; stroke:none;" d="M203 213L206 211L203 213M224.667 211.333L225.333 211.667L224.667 211.333z"/>
<path style="fill:#010101; stroke:none;" d="M238 212L253 218L247 212L252 212L238 212z"/>
<path style="fill:#c5c5c5; stroke:none;" d="M247 212L253 215L253 214C251.04 213.347 250.446 213 253 213L247 212z"/>
<path style="fill:#656565; stroke:none;" d="M164.667 213.333L165.333 213.667L164.667 213.333z"/>
<path style="fill:#333333; stroke:none;" d="M180 213L181 216L177 217L177 218L187 216L188 214L188 213L185 215L180 213z"/>
<path style="fill:#c5c5c5; stroke:none;" d="M181 213L181 214L185 215L181 213z"/>
<path style="fill:#9a9a9a; stroke:none;" d="M188 213L188 214L191 214L188 213z"/>
<path style="fill:#656565; stroke:none;" d="M217 215L217 216L222 214L217 215z"/>
<path style="fill:#333333; stroke:none;" d="M258 213L259 217L267 219L267 218L258 213z"/>
<path style="fill:#656565; stroke:none;" d="M206 214L205 216L207 216L206 214z"/>
<path style="fill:#c5c5c5; stroke:none;" d="M216 214L216 215L219 215L216 214z"/>
<path style="fill:#656565; stroke:none;" d="M226 214L226 215L234 215L226 214z"/>
<path style="fill:#c5c5c5; stroke:none;" d="M240 216L245 217L245 216L243 214L240 216z"/>
<path style="fill:#9a9a9a; stroke:none;" d="M243 214L245 216L245 217L242 218L249 217L249 216L243 214z"/>
<path style="fill:#fdfdfd; stroke:none;" d="M253 216L260 215L253 216z"/>
<path style="fill:#656565; stroke:none;" d="M195 217L201 216L195 217z"/>
<path style="fill:#9a9a9a; stroke:none;" d="M223.667 215.333L224.333 215.667L223.667 215.333z"/>
<path style="fill:#656565; stroke:none;" d="M208 216L208 217L211 217L208 216z"/>
<path style="fill:#9a9a9a; stroke:none;" d="M253 216L253 219L254 219L259 217L259 216L253 216z"/>
<path style="fill:#656565; stroke:none;" d="M229 217L229 218L232 218L229 217M250.667 217.333L251.333 217.667L250.667 217.333z"/>
</svg>
