<?xml version="1.0" encoding="UTF-8" standalone="no"?>
<!DOCTYPE svg PUBLIC "-//W3C//DTD SVG 1.0//EN" "http://www.w3.org/TR/2001/PR-SVG-20010719/DTD/svg10.dtd">
<svg width="21cm" height="18cm" viewBox="48 19 410 358" xmlns="http://www.w3.org/2000/svg" xmlns:xlink="http://www.w3.org/1999/xlink">
  <g>
    <ellipse style="fill: #ffffff" cx="74" cy="44" rx="6" ry="6"/>
    <ellipse style="fill: none; fill-opacity:0; stroke-width: 2; stroke: #000000" cx="74" cy="44" rx="6" ry="6"/>
    <line style="fill: none; fill-opacity:0; stroke-width: 2; stroke: #000000" x1="50" y1="56" x2="98" y2="56"/>
    <line style="fill: none; fill-opacity:0; stroke-width: 2; stroke: #000000" x1="74" y1="50" x2="74" y2="80"/>
    <line style="fill: none; fill-opacity:0; stroke-width: 2; stroke: #000000" x1="74" y1="80" x2="50" y2="106"/>
    <line style="fill: none; fill-opacity:0; stroke-width: 2; stroke: #000000" x1="74" y1="80" x2="98" y2="106"/>
    <text font-size="12.7998" style="fill: #000000;text-anchor:middle;font-family:sans-serif;font-style:normal;font-weight:normal" x="74" y="130.8">
      <tspan x="74" y="130.8">Tony</tspan>
    </text>
  </g>
  <g>
    <rect style="fill: #ffffff" x="145" y="20" width="123.6" height="36"/>
    <rect style="fill: none; fill-opacity:0; stroke-width: 2; stroke: #000000" x="145" y="20" width="123.6" height="36"/>
    <text font-size="12.7998" style="fill: #000000;text-anchor:middle;font-family:sans-serif;font-style:normal;font-weight:normal" x="206.8" y="42.8">
      <tspan x="206.8" y="42.8">Order Taker Frank</tspan>
    </text>
    <line style="fill: none; fill-opacity:0; stroke-width: 1; stroke: #000000" x1="155" y1="45.45" x2="258.6" y2="45.45"/>
  </g>
  <g>
    <rect style="fill: #ffffff" x="314" y="22" width="142.65" height="36"/>
    <rect style="fill: none; fill-opacity:0; stroke-width: 2; stroke: #000000" x="314" y="22" width="142.65" height="36"/>
    <text font-size="12.7998" style="fill: #000000;text-anchor:middle;font-family:sans-serif;font-style:normal;font-weight:normal" x="385.325" y="44.8">
      <tspan x="385.325" y="44.8">Sandwich Artist Laura</tspan>
    </text>
    <line style="fill: none; fill-opacity:0; stroke-width: 1; stroke: #000000" x1="324" y1="47.45" x2="446.65" y2="47.45"/>
  </g>
  <g>
    <line style="fill: none; fill-opacity:0; stroke-width: 1; stroke-dasharray: 8; stroke: #000000" x1="74" y1="134" x2="74" y2="302"/>
    <line style="fill: none; fill-opacity:0; stroke-width: 1; stroke-dasharray: 8; stroke: #000000" x1="74" y1="342" x2="74" y2="376"/>
    <rect style="fill: #ffffff" x="67" y="302" width="14" height="40"/>
    <rect style="fill: none; fill-opacity:0; stroke-width: 2; stroke: #000000" x="67" y="302" width="14" height="40"/>
  </g>
  <g>
    <line style="fill: none; fill-opacity:0; stroke-width: 1; stroke-dasharray: 8; stroke: #000000" x1="206.8" y1="56" x2="206.8" y2="135"/>
    <line style="fill: none; fill-opacity:0; stroke-width: 1; stroke-dasharray: 8; stroke: #000000" x1="206.8" y1="175" x2="206.8" y2="351"/>
    <rect style="fill: #ffffff" x="199.8" y="135" width="14" height="40"/>
    <rect style="fill: none; fill-opacity:0; stroke-width: 2; stroke: #000000" x="199.8" y="135" width="14" height="40"/>
  </g>
  <g>
    <line style="fill: none; fill-opacity:0; stroke-width: 1; stroke-dasharray: 8; stroke: #000000" x1="385.325" y1="58" x2="385.325" y2="197"/>
    <line style="fill: none; fill-opacity:0; stroke-width: 1; stroke-dasharray: 8; stroke: #000000" x1="385.325" y1="237" x2="385.325" y2="361"/>
    <rect style="fill: #ffffff" x="378.325" y="197" width="14" height="40"/>
    <rect style="fill: none; fill-opacity:0; stroke-width: 2; stroke: #000000" x="378.325" y="197" width="14" height="40"/>
  </g>
  <g>
    <polyline style="fill: none; fill-opacity:0; stroke-width: 2; stroke: #000000" points="75,175 85,175 189.8,175 195.328,175 "/>
    <polyline style="fill: none; fill-opacity:0; stroke-width: 2; stroke: #000000" points="187.564,180 197.564,175 187.564,170 "/>
  </g>
  <text font-size="12.7998" style="fill: #000000;text-anchor:start;font-family:sans-serif;font-style:normal;font-weight:normal" x="150" y="173">
    <tspan x="150" y="173"></tspan>
  </text>
  <g>
    <polyline style="fill: none; fill-opacity:0; stroke-width: 2; stroke: #000000" points="209,234 297.162,234 297.162,237 380.853,237 "/>
    <polyline style="fill: none; fill-opacity:0; stroke-width: 2; stroke: #000000" points="373.089,242 383.089,237 373.089,232 "/>
  </g>
  <g>
    <polyline style="fill: none; fill-opacity:0; stroke-width: 2; stroke: #000000" points="385,310 230.5,310 230.5,298 80.4721,298 "/>
    <polyline style="fill: none; fill-opacity:0; stroke-width: 2; stroke: #000000" points="88.2361,293 78.2361,298 88.2361,303 "/>
  </g>
</svg>
