<?xml version="1.0" encoding="UTF-8" standalone="no"?>
<!-- Created with Inkscape (http://www.inkscape.org/) -->

<svg
   xmlns:dc="http://purl.org/dc/elements/1.1/"
   xmlns:cc="http://creativecommons.org/ns#"
   xmlns:rdf="http://www.w3.org/1999/02/22-rdf-syntax-ns#"
   xmlns:svg="http://www.w3.org/2000/svg"
   xmlns="http://www.w3.org/2000/svg"
   xmlns:sodipodi="http://sodipodi.sourceforge.net/DTD/sodipodi-0.dtd"
   xmlns:inkscape="http://www.inkscape.org/namespaces/inkscape"
   width="182.04254"
   height="345.87292"
   id="svg2"
   version="1.1"
   inkscape:version="0.48.4 r9939"
   sodipodi:docname="Protein_backbone_PhiPsiOmega_drawing.svg">
  <defs
     id="defs4">
    <marker
       inkscape:stockid="RazorWire"
       id="RazorWire"
       refX="0"
       refY="0"
       orient="auto">
       style=&quot;overflow:visible&quot;&gt;
      <path
   id="path4121"
   transform="scale(0.8,0.8)"
   style="fill:#808080;fill-opacity:1;fill-rule:evenodd;stroke:#000000;stroke-width:0.1pt"
   d="m 0.02272727,-0.74009011 0,1.4375 -7.78124997,2.31250001 18.4374997,0 -7.1874997,-2.31250001 0,-1.4375 7.2499997,-2.15624999 -18.4687497,0 7.74999997,2.15624999 z"
   inkscape:connector-curvature="0" />
</marker>
    <marker
       inkscape:stockid="Arrow1Mstart"
       orient="auto"
       refY="0"
       refX="0"
       id="Arrow1Mstart"
       style="overflow:visible">
      <path
         id="path3894"
         d="M 0,0 5,-5 -12.5,0 5,5 0,0 z"
         style="fill-rule:evenodd;stroke:#000000;stroke-width:1pt;marker-start:none"
         transform="matrix(0.4,0,0,0.4,4,0)"
         inkscape:connector-curvature="0" />
    </marker>
    <marker
       inkscape:stockid="Tail"
       orient="auto"
       refY="0"
       refX="0"
       id="Tail"
       style="overflow:visible">
      <g
         id="g3924"
         transform="scale(-1.2,-1.2)">
        <path
           id="path3926"
           d="M -3.8048674,-3.9585227 0.54352094,0"
           style="fill:none;stroke:#000000;stroke-width:0.80000001;stroke-linecap:round;marker-start:none;marker-end:none"
           inkscape:connector-curvature="0" />
        <path
           id="path3928"
           d="M -1.2866832,-3.9585227 3.0617053,0"
           style="fill:none;stroke:#000000;stroke-width:0.80000001;stroke-linecap:round;marker-start:none;marker-end:none"
           inkscape:connector-curvature="0" />
        <path
           id="path3930"
           d="M 1.3053582,-3.9585227 5.6537466,0"
           style="fill:none;stroke:#000000;stroke-width:0.80000001;stroke-linecap:round;marker-start:none;marker-end:none"
           inkscape:connector-curvature="0" />
        <path
           id="path3932"
           d="M -3.8048674,4.1775838 0.54352094,0.21974226"
           style="fill:none;stroke:#000000;stroke-width:0.80000001;stroke-linecap:round;marker-start:none;marker-end:none"
           inkscape:connector-curvature="0" />
        <path
           id="path3934"
           d="M -1.2866832,4.1775838 3.0617053,0.21974226"
           style="fill:none;stroke:#000000;stroke-width:0.80000001;stroke-linecap:round;marker-start:none;marker-end:none"
           inkscape:connector-curvature="0" />
        <path
           id="path3936"
           d="M 1.3053582,4.1775838 5.6537466,0.21974226"
           style="fill:none;stroke:#000000;stroke-width:0.80000001;stroke-linecap:round;marker-start:none;marker-end:none"
           inkscape:connector-curvature="0" />
      </g>
    </marker>
    <marker
       inkscape:stockid="TriangleOutM"
       orient="auto"
       refY="0"
       refX="0"
       id="TriangleOutM"
       style="overflow:visible">
      <path
         id="path4034"
         d="m 5.77,0 -8.65,5 0,-10 8.65,5 z"
         style="fill-rule:evenodd;stroke:#000000;stroke-width:1pt;marker-start:none"
         transform="scale(0.4,0.4)"
         inkscape:connector-curvature="0" />
    </marker>
    <marker
       inkscape:stockid="Arrow2Lend"
       orient="auto"
       refY="0"
       refX="0"
       id="Arrow2Lend"
       style="overflow:visible">
      <path
         id="path3909"
         style="font-size:12px;fill-rule:evenodd;stroke-width:0.625;stroke-linejoin:round"
         d="M 8.7185878,4.0337352 -2.2072895,0.01601326 8.7185884,-4.0017078 c -1.7454984,2.3720609 -1.7354408,5.6174519 -6e-7,8.035443 z"
         transform="matrix(-1.1,0,0,-1.1,-1.1,0)"
         inkscape:connector-curvature="0" />
    </marker>
    <marker
       inkscape:stockid="Arrow1Mend"
       orient="auto"
       refY="0"
       refX="0"
       id="Arrow1Mend"
       style="overflow:visible">
      <path
         id="path3897"
         d="M 0,0 5,-5 -12.5,0 5,5 0,0 z"
         style="fill-rule:evenodd;stroke:#000000;stroke-width:1pt;marker-start:none"
         transform="matrix(-0.4,0,0,-0.4,-4,0)"
         inkscape:connector-curvature="0" />
    </marker>
    <marker
       inkscape:stockid="EmptyTriangleOutM"
       orient="auto"
       refY="0"
       refX="0"
       id="EmptyTriangleOutM"
       style="overflow:visible">
      <path
         id="path4052"
         d="m 5.77,0 -8.65,5 0,-10 8.65,5 z"
         style="fill:#ffffff;fill-rule:evenodd;stroke:#000000;stroke-width:1pt;marker-start:none"
         transform="matrix(0.4,0,0,0.4,-1.8,0)"
         inkscape:connector-curvature="0" />
    </marker>
    <marker
       inkscape:stockid="Arrow2Mend"
       orient="auto"
       refY="0"
       refX="0"
       id="Arrow2Mend"
       style="overflow:visible">
      <path
         id="path3915"
         style="font-size:12px;fill-rule:evenodd;stroke-width:0.625;stroke-linejoin:round"
         d="M 8.7185878,4.0337352 -2.2072895,0.01601326 8.7185884,-4.0017078 c -1.7454984,2.3720609 -1.7354408,5.6174519 -6e-7,8.035443 z"
         transform="scale(-0.6,-0.6)"
         inkscape:connector-curvature="0" />
    </marker>
  </defs>
  <sodipodi:namedview
     id="base"
     pagecolor="#ffffff"
     bordercolor="#666666"
     borderopacity="1.0"
     inkscape:pageopacity="0.0"
     inkscape:pageshadow="2"
     inkscape:zoom="1.4"
     inkscape:cx="-73.238026"
     inkscape:cy="129.88633"
     inkscape:document-units="px"
     inkscape:current-layer="layer1"
     showgrid="false"
     fit-margin-top="0"
     fit-margin-left="0"
     fit-margin-right="0"
     fit-margin-bottom="0"
     inkscape:window-width="1440"
     inkscape:window-height="838"
     inkscape:window-x="-8"
     inkscape:window-y="-8"
     inkscape:window-maximized="1" />
  <metadata
     id="metadata7">
    <rdf:RDF>
      <cc:Work
         rdf:about="">
        <dc:format>image/svg+xml</dc:format>
        <dc:type
           rdf:resource="http://purl.org/dc/dcmitype/StillImage" />
        <dc:title />
      </cc:Work>
    </rdf:RDF>
  </metadata>
  <g
     inkscape:label="Layer 1"
     inkscape:groupmode="layer"
     id="layer1"
     transform="translate(-266.03347,-326.4038)">
    <g
       style="font-size:22px;font-style:normal;font-weight:normal;line-height:125%;letter-spacing:0px;word-spacing:0px;fill:#000000;fill-opacity:1;stroke:none;font-family:Times New Roman;-inkscape-font-specification:Times New Roman"
       id="text2998"
       transform="matrix(0.35,0,0,0.35,232.08558,324.57124)" />
    <g
       style="font-size:32px;font-style:normal;font-weight:normal;line-height:125%;letter-spacing:0px;word-spacing:0px;fill:#000000;fill-opacity:1;stroke:none;font-family:Times New Roman;-inkscape-font-specification:Times New Roman"
       id="text3002"
       transform="matrix(0.35,0,0,0.35,232.08558,324.57124)" />
    <g
       style="font-size:36px;font-style:normal;font-weight:normal;line-height:125%;letter-spacing:0px;word-spacing:0px;fill:#000000;fill-opacity:1;stroke:none;font-family:Times New Roman;-inkscape-font-specification:Times New Roman"
       id="text3006"
       transform="matrix(0.35,0,0,0.35,232.08558,324.57124)" />
    <g
       style="font-size:36px;font-style:normal;font-weight:normal;line-height:125%;letter-spacing:0px;word-spacing:0px;fill:#000000;fill-opacity:1;stroke:none;font-family:Times New Roman;-inkscape-font-specification:Times New Roman"
       id="text3010"
       transform="matrix(0.35,0,0,0.35,232.08558,324.57124)">
      <path
         d="m 412.60287,43.082588 0.54493,8.103516 -0.54493,0 c -0.72658,-2.425763 -1.76369,-4.171855 -3.11132,-5.238281 -1.34768,-1.066384 -2.96486,-1.599587 -4.85157,-1.59961 -1.58204,2.3e-5 -3.01173,0.40139 -4.28906,1.204102 -1.27735,0.802755 -2.28223,2.083027 -3.01465,3.84082 -0.73242,1.757829 -1.09863,3.943374 -1.09863,6.556641 0,2.156259 0.3457,4.025398 1.03711,5.607422 0.6914,1.582035 1.73144,2.794925 3.12012,3.638671 1.38866,0.843752 2.97362,1.265626 4.75488,1.265625 1.54686,10e-7 2.91209,-0.331053 4.0957,-0.993164 1.18358,-0.662106 2.48436,-1.977535 3.90235,-3.946289 l 0.54492,0.351563 c -1.19534,2.121097 -2.58987,3.67383 -4.1836,4.658203 -1.59376,0.984375 -3.48634,1.476562 -5.67773,1.476562 -3.94923,0 -7.00782,-1.464842 -9.17578,-4.394531 -1.61719,-2.179681 -2.42578,-4.746085 -2.42578,-7.699219 0,-2.378892 0.5332,-4.564437 1.59961,-6.55664 1.0664,-1.992168 2.53417,-3.536111 4.40332,-4.631836 1.86913,-1.095679 3.91112,-1.64353 6.12597,-1.643555 1.72265,2.5e-5 3.42186,0.421899 5.09766,1.265625 0.49217,0.257836 0.84373,0.386742 1.05469,0.386719 0.31638,2.3e-5 0.59177,-0.111305 0.82617,-0.333984 0.30467,-0.316383 0.52146,-0.755836 0.65039,-1.31836 z"
         id="path6695"
         inkscape:connector-curvature="0" />
      <path
         d="m 428.82748,51.361885 2.98829,0 -1.81055,8.138672 c -0.35158,1.546881 -0.59181,2.496099 -0.7207,2.847656 0.46873,2.156253 1.14842,3.234377 2.03906,3.234375 1.05467,2e-6 1.59959,-0.72656 1.63476,-2.179687 l 0.63282,0 c -0.0352,1.359377 -0.2842,2.458009 -0.74707,3.295898 -0.46291,0.837891 -1.06936,1.256836 -1.81934,1.256836 -0.62111,0 -1.084,-0.251953 -1.38867,-0.755859 -0.3047,-0.503906 -0.63283,-1.535155 -0.98438,-3.09375 -1.21876,2.566407 -3.21095,3.849609 -5.97656,3.849609 -1.88672,0 -3.38672,-0.735351 -4.5,-2.206055 -1.11328,-1.4707 -1.66992,-3.577143 -1.66992,-6.319336 0,-2.695301 0.60937,-4.792955 1.82812,-6.292968 1.21875,-1.499984 2.68359,-2.249984 4.39453,-2.25 1.20703,1.6e-5 2.19726,0.42775 2.97071,1.283203 0.77342,0.855483 1.45897,2.250013 2.05664,4.183594 z m -1.54687,6.890625 c -0.55079,-1.886708 -1.16603,-3.360339 -1.8457,-4.420898 -0.6797,-1.060533 -1.49415,-1.590805 -2.44336,-1.590821 -2.14454,1.6e-5 -3.21681,2.507826 -3.2168,7.523438 -10e-6,4.757815 1.02538,7.136719 3.07617,7.136719 1.78124,0 3.0996,-2.097654 3.95508,-6.292969 z"
         id="path6697"
         inkscape:connector-curvature="0" />
      <path
         d="m 441.08657,79.24525 0,0.42276 c -1.15022,-0.578919 -2.10999,-1.256857 -2.87934,-2.033818 -1.09689,-1.104509 -1.94241,-2.407065 -2.53656,-3.907672 -0.59415,-1.500605 -0.89122,-3.05834 -0.89122,-4.67321 0,-2.361354 0.58272,-4.515142 1.74817,-6.461371 1.16544,-1.946204 2.68509,-3.338264 4.55895,-4.176181 l 0,0.479889 c -0.93693,0.517991 -1.70628,1.226399 -2.30804,2.125225 -0.60177,0.898854 -1.05119,2.037638 -1.34826,3.416357 -0.29708,1.378739 -0.44562,2.818407 -0.44561,4.319006 -1e-5,1.630106 0.12568,3.111668 0.37705,4.444692 0.19805,1.051187 0.43799,1.894801 0.71984,2.530846 0.28183,0.636042 0.66079,1.24733 1.13688,1.833864 0.47607,0.586528 1.09879,1.146399 1.86814,1.679613 z"
         style="font-size:65.00091553%;baseline-shift:sub"
         id="path6699"
         inkscape:connector-curvature="0" />
      <path
         d="m 447.7479,73.05239 0,-5.701546 -5.69012,0 0,-0.936927 5.69012,0 0,-5.678693 0.91407,0 0,5.678693 5.71297,0 0,0.936927 -5.71297,0 0,5.701546 z"
         style="font-size:65.00091553%;baseline-shift:sub"
         id="path6701"
         inkscape:connector-curvature="0" />
      <path
         d="m 457.58563,60.68952 3.77056,-1.839577 0.37706,0 0,13.082704 c -10e-6,0.868374 0.0362,1.409201 0.10855,1.622484 0.0724,0.213285 0.22279,0.377057 0.45132,0.491316 0.22851,0.114259 0.69317,0.179006 1.39397,0.194241 l 0,0.422759 -5.82723,0 0,-0.422759 c 0.73125,-0.01524 1.20352,-0.07808 1.41681,-0.188529 0.21328,-0.11045 0.36182,-0.258987 0.44561,-0.445611 0.0838,-0.186623 0.12568,-0.744589 0.12569,-1.673901 l 0,-8.363789 c -10e-6,-1.127348 -0.0381,-1.85099 -0.11426,-2.170929 -0.0533,-0.24374 -0.15045,-0.422747 -0.29136,-0.53702 -0.14093,-0.114245 -0.31041,-0.171375 -0.50846,-0.171389 -0.28184,1.4e-5 -0.67413,0.118082 -1.17687,0.354204 z"
         style="font-size:65.00091553%;baseline-shift:sub"
         id="path6703"
         inkscape:connector-curvature="0" />
      <path
         d="m 467.06916,58.895647 0,-0.479889 c 1.15783,0.571312 2.12142,1.245442 2.89077,2.022391 1.08927,1.112139 1.93098,2.416599 2.52513,3.913386 0.59414,1.496807 0.89122,3.056446 0.89122,4.678923 0,2.361365 -0.58082,4.515152 -1.74245,6.46137 -1.16164,1.946216 -2.6832,3.338275 -4.56467,4.176182 l 0,-0.42276 c 0.93693,-0.525597 1.70818,-1.235909 2.31376,-2.130938 0.60557,-0.895034 1.05499,-2.033818 1.34826,-3.416357 0.29326,-1.382536 0.43989,-2.824108 0.4399,-4.324719 -1e-5,-1.622477 -0.12569,-3.104039 -0.37706,-4.444691 -0.19043,-1.051176 -0.42847,-1.892886 -0.71412,-2.525134 -0.28565,-0.632222 -0.66461,-1.241605 -1.13688,-1.82815 -0.47227,-0.586517 -1.09689,-1.146388 -1.87386,-1.679614 z"
         style="font-size:65.00091553%;baseline-shift:sub"
         id="path6705"
         inkscape:connector-curvature="0" />
    </g>
    <g
       style="font-size:36px;font-style:normal;font-weight:normal;line-height:125%;letter-spacing:0px;word-spacing:0px;fill:#000000;fill-opacity:1;stroke:none;font-family:Times New Roman;-inkscape-font-specification:Times New Roman"
       id="text3016"
       transform="matrix(0.35,0,0,0.35,232.08558,324.57124)">
      <path
         d="m 442.98236,137.5717 6.46875,0 14.57227,17.87695 0,-13.74609 c -2e-5,-1.46482 -0.16409,-2.37888 -0.49219,-2.74219 -0.43361,-0.49216 -1.11916,-0.73826 -2.05664,-0.73828 l -0.82617,0 0,-0.65039 8.29687,0 0,0.65039 -0.84375,0 c -1.00783,2e-5 -1.72268,0.30471 -2.14453,0.91406 -0.25783,0.37503 -0.38674,1.23049 -0.38672,2.56641 l 0,20.0918 -0.63281,0 -15.71484,-19.19532 0,14.67774 c -10e-6,1.46485 0.15819,2.37891 0.4746,2.74219 0.44531,0.49219 1.13086,0.73828 2.05665,0.73828 l 0.84375,0 0,0.65039 -8.29688,0 0,-0.65039 0.82617,0 c 1.01953,0 1.74023,-0.30469 2.16211,-0.91406 0.25781,-0.375 0.38672,-1.23047 0.38672,-2.56641 l 0,-16.57617 c -0.69141,-0.80857 -1.21582,-1.34178 -1.57324,-1.59961 -0.35743,-0.25779 -0.88184,-0.49803 -1.57324,-0.72071 -0.33985,-0.10544 -0.85547,-0.15818 -1.54688,-0.1582 z"
         id="path6708"
         inkscape:connector-curvature="0" />
      <path
         d="m 476.73949,173.18944 0,0.42276 c -1.15021,-0.57892 -2.10999,-1.25686 -2.87933,-2.03382 -1.0969,-1.10451 -1.94242,-2.40706 -2.53656,-3.90767 -0.59415,-1.5006 -0.89123,-3.05834 -0.89123,-4.67321 0,-2.36135 0.58273,-4.51514 1.74817,-6.46137 1.16545,-1.9462 2.68509,-3.33826 4.55895,-4.17618 l 0,0.47989 c -0.93693,0.51799 -1.70628,1.2264 -2.30804,2.12522 -0.60177,0.89886 -1.05119,2.03764 -1.34826,3.41636 -0.29707,1.37874 -0.44561,2.81841 -0.44561,4.31901 0,1.6301 0.12568,3.11166 0.37706,4.44469 0.19804,1.05118 0.43799,1.8948 0.71983,2.53084 0.28184,0.63605 0.6608,1.24733 1.13688,1.83387 0.47608,0.58653 1.09879,1.1464 1.86814,1.67961 z"
         style="font-size:65.00091553%;baseline-shift:sub"
         id="path6710"
         inkscape:connector-curvature="0" />
      <path
         d="m 483.40082,166.99658 0,-5.70154 -5.69012,0 0,-0.93693 5.69012,0 0,-5.6787 0.91408,0 0,5.6787 5.71297,0 0,0.93693 -5.71297,0 0,5.70154 z"
         style="font-size:65.00091553%;baseline-shift:sub"
         id="path6712"
         inkscape:connector-curvature="0" />
      <path
         d="m 493.23856,154.63371 3.77056,-1.83958 0.37705,0 0,13.08271 c 0,0.86837 0.0362,1.4092 0.10855,1.62248 0.0724,0.21329 0.2228,0.37706 0.45132,0.49132 0.22852,0.11426 0.69317,0.179 1.39397,0.19424 l 0,0.42276 -5.82723,0 0,-0.42276 c 0.73126,-0.0152 1.20353,-0.0781 1.41682,-0.18853 0.21328,-0.11045 0.36181,-0.25899 0.44561,-0.44561 0.0838,-0.18662 0.12568,-0.74459 0.12568,-1.6739 l 0,-8.36379 c 0,-1.12735 -0.0381,-1.85099 -0.11426,-2.17093 -0.0533,-0.24374 -0.15044,-0.42275 -0.29136,-0.53702 -0.14092,-0.11425 -0.31041,-0.17137 -0.50845,-0.17139 -0.28185,2e-5 -0.67414,0.11808 -1.17687,0.35421 z"
         style="font-size:65.00091553%;baseline-shift:sub"
         id="path6714"
         inkscape:connector-curvature="0" />
      <path
         d="m 502.72209,152.83984 0,-0.47989 c 1.15783,0.57131 2.12141,1.24544 2.89076,2.02239 1.08927,1.11214 1.93098,2.4166 2.52513,3.91339 0.59415,1.4968 0.89122,3.05644 0.89123,4.67892 -10e-6,2.36136 -0.58083,4.51515 -1.74246,6.46137 -1.16164,1.94622 -2.68319,3.33827 -4.56466,4.17618 l 0,-0.42276 c 0.93692,-0.5256 1.70817,-1.23591 2.31375,-2.13094 0.60557,-0.89503 1.05499,-2.03382 1.34826,-3.41635 0.29326,-1.38254 0.4399,-2.82411 0.4399,-4.32472 0,-1.62248 -0.12569,-3.10404 -0.37705,-4.44469 -0.19044,-1.05118 -0.42848,-1.89289 -0.71413,-2.52514 -0.28565,-0.63222 -0.66461,-1.2416 -1.13688,-1.82815 -0.47227,-0.58652 -1.09689,-1.14639 -1.87385,-1.67961 z"
         style="font-size:65.00091553%;baseline-shift:sub"
         id="path6716"
         inkscape:connector-curvature="0" />
    </g>
    <g
       style="font-size:36px;font-style:normal;font-weight:normal;line-height:125%;letter-spacing:0px;word-spacing:0px;fill:#000000;fill-opacity:1;stroke:none;font-family:Times New Roman;-inkscape-font-specification:Times New Roman"
       id="text3022"
       transform="matrix(0.35,0,0,0.35,232.08558,324.57124)">
      <path
         d="m 184.89195,250.16385 c 3.09374,2e-5 5.7744,1.17483 8.04199,3.52441 2.26756,2.34963 3.40135,5.28225 3.40137,8.79785 -2e-5,3.62111 -1.1426,6.62696 -3.42773,9.01758 -2.28518,2.39063 -5.0508,3.58594 -8.29688,3.58594 -3.28126,0 -6.03809,-1.16601 -8.27051,-3.49805 -2.23242,-2.33202 -3.34863,-5.3496 -3.34863,-9.05273 0,-3.78514 1.28906,-6.87303 3.86719,-9.26367 2.23827,-2.0742 4.916,-3.11131 8.0332,-3.11133 z m -0.33398,1.2832 c -2.13283,3e-5 -3.84376,0.79104 -5.13281,2.37305 -1.60548,1.96877 -2.40821,4.85158 -2.40821,8.64844 0,3.89063 0.83203,6.88477 2.4961,8.98242 1.27733,1.59375 2.96483,2.39062 5.0625,2.39062 2.23826,0 4.08689,-0.87304 5.54589,-2.61914 1.45897,-1.74609 2.18846,-4.49999 2.18848,-8.26172 -2e-5,-4.07811 -0.80275,-7.11912 -2.4082,-9.12304 -1.28908,-1.59373 -3.07033,-2.3906 -5.34375,-2.39063 z"
         id="path6719"
         inkscape:connector-curvature="0" />
    </g>
    <g
       style="font-size:36px;font-style:normal;font-weight:normal;line-height:125%;letter-spacing:0px;word-spacing:0px;fill:#000000;fill-opacity:1;stroke:none;font-family:Times New Roman;-inkscape-font-specification:Times New Roman"
       id="text3026"
       transform="matrix(0.35,0,0,0.35,232.08558,324.57124)">
      <path
         d="m 305.5267,246.12326 0.54492,8.10352 -0.54492,0 c -0.72658,-2.42577 -1.76369,-4.17186 -3.11133,-5.23829 -1.34767,-1.06638 -2.96485,-1.59958 -4.85156,-1.5996 -1.58204,2e-5 -3.01173,0.40139 -4.28906,1.2041 -1.27735,0.80275 -2.28223,2.08302 -3.01465,3.84082 -0.73243,1.75783 -1.09864,3.94337 -1.09863,6.55664 -1e-5,2.15626 0.3457,4.0254 1.03711,5.60742 0.6914,1.58204 1.73144,2.79492 3.12012,3.63867 1.38866,0.84375 2.97362,1.26563 4.75488,1.26563 1.54686,0 2.91209,-0.33106 4.0957,-0.99317 1.18358,-0.6621 2.48436,-1.97753 3.90234,-3.94629 l 0.54493,0.35157 c -1.19534,2.12109 -2.58987,3.67383 -4.1836,4.6582 -1.59376,0.98437 -3.48634,1.47656 -5.67773,1.47656 -3.94923,0 -7.00782,-1.46484 -9.17578,-4.39453 -1.61719,-2.17968 -2.42579,-4.74608 -2.42578,-7.69922 -10e-6,-2.37889 0.5332,-4.56444 1.59961,-6.55664 1.0664,-1.99217 2.53417,-3.53611 4.40332,-4.63183 1.86913,-1.09568 3.91112,-1.64354 6.12597,-1.64356 1.72264,2e-5 3.42186,0.4219 5.09766,1.26563 0.49217,0.25783 0.84373,0.38674 1.05469,0.38671 0.31638,3e-5 0.59177,-0.1113 0.82617,-0.33398 0.30466,-0.31638 0.52146,-0.75584 0.65039,-1.31836 z"
         id="path6722"
         inkscape:connector-curvature="0" />
    </g>
    <g
       style="font-size:36px;font-style:normal;font-weight:normal;line-height:125%;letter-spacing:0px;word-spacing:0px;fill:#000000;fill-opacity:1;stroke:none;font-family:Times New Roman;-inkscape-font-specification:Times New Roman"
       id="text3030"
       transform="matrix(0.35,0,0,0.35,232.08558,324.57124)">
      <path
         d="m 420.2868,310.14529 c 2.47915,2e-5 4.3613,-0.41925 5.64649,-1.25781 1.28512,-0.83852 2.14189,-1.85935 2.57031,-3.0625 0.42835,-1.2031 0.70635,-3.20831 0.83399,-6.01562 0.12757,-3.11716 0.82483,-5.43682 2.09179,-6.95899 1.26689,-1.5221 3.34957,-2.28316 6.24805,-2.2832 l 0,1.03906 c -1.0391,0.0729 -1.74548,0.47855 -2.11914,1.2168 -0.37374,0.73831 -0.56059,2.30146 -0.56055,4.68945 -4e-5,3.50003 -0.36918,6.2025 -1.10742,8.10742 -0.73832,1.90497 -2.21944,3.44989 -4.44336,4.63477 -2.22399,1.18491 -5.27737,1.82293 -9.16016,1.91406 l 0,8.66797 c -2e-5,2.13282 0.12303,3.51368 0.36914,4.14258 0.24607,0.62891 0.76561,1.13477 1.5586,1.51758 0.79294,0.38281 2.01885,0.57422 3.67773,0.57422 l 0,1.01171 -16.46093,0 0,-1.01171 c 1.62238,-0.0182 2.83006,-0.19597 3.62304,-0.53321 0.79295,-0.33724 1.3216,-0.82942 1.58594,-1.47656 0.2643,-0.64713 0.39647,-2.05533 0.39648,-4.22461 l 0,-8.66797 c -3.91928,-0.0911 -6.96355,-0.72003 -9.13281,-1.88672 -2.16928,-1.16664 -3.64128,-2.69334 -4.41601,-4.58008 -0.77475,-1.88669 -1.16212,-4.62562 -1.16211,-8.21679 -1e-5,-2.29684 -0.17318,-3.82354 -0.51953,-4.58008 -0.34636,-0.75647 -1.06641,-1.18942 -2.16016,-1.29883 l 0,-1.03906 c 1.84114,0.0365 3.32682,0.32816 4.45703,0.875 1.1302,0.54691 2.0371,1.51306 2.7207,2.89844 0.68359,1.38545 1.07096,3.20836 1.16211,5.46875 0.1276,2.78908 0.39648,4.78518 0.80664,5.98828 0.41015,1.20314 1.27148,2.22853 2.58399,3.07617 1.31248,0.84767 3.1992,1.2715 5.66015,1.27148 l 0,-11.92187 c -1e-5,-2.13278 -0.12306,-3.51364 -0.36914,-4.14258 -0.24611,-0.62887 -0.76108,-1.12561 -1.54492,-1.49023 -0.78387,-0.36455 -2.01434,-0.55596 -3.6914,-0.57422 l 0,-1.01172 16.46093,0 0,1.01172 c -1.67711,0.0183 -2.90758,0.20511 -3.6914,0.56054 -0.78388,0.35551 -1.29886,0.85225 -1.54493,1.49024 -0.24611,0.63805 -0.36916,2.02347 -0.36914,4.15625 z"
         style="font-size:56px"
         id="path6725"
         inkscape:connector-curvature="0" />
    </g>
    <g
       style="font-size:36px;font-style:normal;font-weight:normal;line-height:125%;letter-spacing:0px;word-spacing:0px;fill:#000000;fill-opacity:1;stroke:none;font-family:Times New Roman;-inkscape-font-specification:Times New Roman"
       id="text3034"
       transform="matrix(0.35,0,0,0.35,232.08558,324.57124)">
      <path
         d="m 503.38528,369.85175 11.07422,0 0,-6.82032 c -2e-5,-1.21873 -0.0762,-2.02146 -0.22851,-2.4082 -0.11721,-0.29295 -0.3633,-0.5449 -0.73828,-0.75586 -0.50393,-0.28123 -1.03713,-0.42185 -1.59961,-0.42187 l -0.84375,0 0,-0.6504 10.19531,0 0,0.6504 -0.84375,0 c -0.56252,2e-5 -1.09573,0.13478 -1.59961,0.40429 -0.37502,0.18753 -0.6299,0.4717 -0.76465,0.85254 -0.13479,0.38088 -0.20217,1.15725 -0.20215,2.3291 l 0,15.38086 c -2e-5,1.20704 0.0761,2.00391 0.22852,2.39063 0.11716,0.29297 0.3574,0.54492 0.7207,0.75586 0.5156,0.28125 1.05467,0.42187 1.61719,0.42187 l 0.84375,0 0,0.65039 -10.19531,0 0,-0.65039 0.84375,0 c 0.97264,0 1.68162,-0.28711 2.12695,-0.86133 0.29295,-0.37499 0.43943,-1.27734 0.43945,-2.70703 l 0,-7.25976 -11.07422,0 0,7.25976 c 0,1.20704 0.0762,2.00391 0.22852,2.39063 0.11718,0.29297 0.36327,0.54492 0.73828,0.75586 0.5039,0.28125 1.0371,0.42187 1.59961,0.42187 l 0.86133,0 0,0.65039 -10.21289,0 0,-0.65039 0.84375,0 c 0.98437,0 1.69921,-0.28711 2.14453,-0.86133 0.28125,-0.37499 0.42187,-1.27734 0.42187,-2.70703 l 0,-15.38086 c 0,-1.21873 -0.0762,-2.02146 -0.22851,-2.4082 -0.11719,-0.29295 -0.35743,-0.5449 -0.7207,-0.75586 -0.51563,-0.28123 -1.05469,-0.42185 -1.61719,-0.42187 l -0.84375,0 0,-0.6504 10.21289,0 0,0.6504 -0.86133,0 c -0.56251,2e-5 -1.09571,0.13478 -1.59961,0.40429 -0.36329,0.18753 -0.61524,0.4717 -0.75586,0.85254 -0.14063,0.38088 -0.21094,1.15725 -0.21094,2.3291 z"
         id="path6728"
         inkscape:connector-curvature="0" />
    </g>
    <g
       style="font-size:36px;font-style:normal;font-weight:normal;line-height:125%;letter-spacing:0px;word-spacing:0px;fill:#000000;fill-opacity:1;stroke:none;font-family:Times New Roman;-inkscape-font-specification:Times New Roman"
       id="text3042"
       transform="matrix(0.35,0,0,0.35,232.08558,324.57124)">
      <path
         d="m 210.64728,523.44995 6.46875,0 14.57226,17.87695 0,-13.74609 c -2e-5,-1.46482 -0.16408,-2.37888 -0.49218,-2.74219 -0.43362,-0.49216 -1.11916,-0.73826 -2.05664,-0.73828 l -0.82618,0 0,-0.65039 8.29688,0 0,0.65039 -0.84375,0 c -1.00784,2e-5 -1.72268,0.30471 -2.14453,0.91406 -0.25784,0.37503 -0.38674,1.23049 -0.38672,2.56641 l 0,20.0918 -0.63281,0 -15.71485,-19.19532 0,14.67774 c 0,1.46485 0.1582,2.37891 0.47461,2.74219 0.44531,0.49219 1.13085,0.73828 2.05664,0.73828 l 0.84375,0 0,0.65039 -8.29687,0 0,-0.65039 0.82617,0 c 1.01953,0 1.74023,-0.30469 2.16211,-0.91406 0.25781,-0.375 0.38671,-1.23047 0.38672,-2.56641 l 0,-16.57617 c -0.69141,-0.80857 -1.21583,-1.34178 -1.57324,-1.59961 -0.35743,-0.25779 -0.88184,-0.49803 -1.57325,-0.72071 -0.33984,-0.10544 -0.85547,-0.15818 -1.54687,-0.1582 z"
         id="path6734"
         inkscape:connector-curvature="0" />
    </g>
    <g
       style="font-size:36px;font-style:normal;font-weight:normal;line-height:125%;letter-spacing:0px;word-spacing:0px;fill:#000000;fill-opacity:1;stroke:none;font-family:Times New Roman;-inkscape-font-specification:Times New Roman"
       id="text3046"
       transform="matrix(0.35,0,0,0.35,232.08558,324.57124)">
      <path
         d="m 109.4258,543.59796 11.07422,0 0,-6.82031 c -2e-5,-1.21873 -0.0762,-2.02146 -0.22851,-2.4082 -0.11721,-0.29295 -0.3633,-0.5449 -0.73828,-0.75586 -0.50393,-0.28123 -1.03713,-0.42186 -1.59961,-0.42188 l -0.84375,0 0,-0.65039 10.19531,0 0,0.65039 -0.84375,0 c -0.56252,2e-5 -1.09573,0.13479 -1.59961,0.4043 -0.37502,0.18752 -0.62991,0.4717 -0.76465,0.85254 -0.13479,0.38088 -0.20217,1.15724 -0.20215,2.3291 l 0,15.38086 c -2e-5,1.20703 0.0761,2.00391 0.22852,2.39062 0.11716,0.29297 0.3574,0.54493 0.7207,0.75586 0.5156,0.28125 1.05467,0.42188 1.61719,0.42188 l 0.84375,0 0,0.65039 -10.19531,0 0,-0.65039 0.84375,0 c 0.97264,0 1.68162,-0.28711 2.12695,-0.86133 0.29295,-0.375 0.43943,-1.27734 0.43945,-2.70703 l 0,-7.25977 -11.07422,0 0,7.25977 c 0,1.20703 0.0762,2.00391 0.22852,2.39062 0.11718,0.29297 0.36327,0.54493 0.73828,0.75586 0.5039,0.28125 1.0371,0.42188 1.59961,0.42188 l 0.86133,0 0,0.65039 -10.21289,0 0,-0.65039 0.84375,0 c 0.98437,0 1.69921,-0.28711 2.14453,-0.86133 0.28125,-0.375 0.42187,-1.27734 0.42187,-2.70703 l 0,-15.38086 c 0,-1.21873 -0.0762,-2.02146 -0.22851,-2.4082 -0.11719,-0.29295 -0.35743,-0.5449 -0.7207,-0.75586 -0.51563,-0.28123 -1.05469,-0.42186 -1.61719,-0.42188 l -0.84375,0 0,-0.65039 10.21289,0 0,0.65039 -0.86133,0 c -0.56251,2e-5 -1.09571,0.13479 -1.59961,0.4043 -0.36329,0.18752 -0.61524,0.4717 -0.75586,0.85254 -0.14063,0.38088 -0.21094,1.15724 -0.21094,2.3291 z"
         id="path6737"
         inkscape:connector-curvature="0" />
    </g>
    <g
       style="font-size:36px;font-style:normal;font-weight:normal;line-height:125%;letter-spacing:0px;word-spacing:0px;fill:#000000;fill-opacity:1;stroke:none;font-family:Times New Roman;-inkscape-font-specification:Times New Roman"
       id="text3010-1"
       transform="matrix(0.35,0,0,0.35,232.08558,324.57124)">
      <path
         d="m 187.89124,882.54657 0.54492,8.10352 -0.54492,0 c -0.72659,-2.42577 -1.7637,-4.17186 -3.11133,-5.23829 -1.34768,-1.06638 -2.96486,-1.59958 -4.85157,-1.59961 -1.58204,3e-5 -3.01172,0.40139 -4.28906,1.20411 -1.27735,0.80275 -2.28223,2.08302 -3.01465,3.84082 -0.73242,1.75783 -1.09863,3.94337 -1.09863,6.55664 0,2.15626 0.3457,4.0254 1.03711,5.60742 0.6914,1.58203 1.73144,2.79492 3.12012,3.63867 1.38866,0.84375 2.97362,1.26563 4.75488,1.26563 1.54686,0 2.91209,-0.33106 4.0957,-0.99317 1.18358,-0.6621 2.48436,-1.97753 3.90235,-3.94629 l 0.54492,0.35157 c -1.19533,2.12109 -2.58986,3.67383 -4.18359,4.6582 -1.59377,0.98437 -3.48635,1.47656 -5.67774,1.47656 -3.94923,0 -7.00782,-1.46484 -9.17578,-4.39453 -1.61719,-2.17968 -2.42578,-4.74609 -2.42578,-7.69922 0,-2.37889 0.5332,-4.56444 1.59961,-6.55664 1.0664,-1.99217 2.53417,-3.53611 4.40332,-4.63184 1.86913,-1.09567 3.91112,-1.64353 6.12597,-1.64355 1.72265,2e-5 3.42186,0.4219 5.09766,1.26562 0.49217,0.25784 0.84373,0.38675 1.05469,0.38672 0.31638,3e-5 0.59178,-0.1113 0.82617,-0.33398 0.30467,-0.31638 0.52146,-0.75584 0.65039,-1.31836 z"
         id="path6740"
         inkscape:connector-curvature="0" />
      <path
         d="m 204.11584,890.82587 2.98829,0 -1.81055,8.13867 c -0.35158,1.54688 -0.59181,2.4961 -0.7207,2.84765 0.46873,2.15626 1.14842,3.23438 2.03906,3.23438 1.05467,0 1.59959,-0.72656 1.63476,-2.17969 l 0.63282,0 c -0.0352,1.35938 -0.2842,2.45801 -0.74707,3.2959 -0.46291,0.83789 -1.06936,1.25684 -1.81934,1.25684 -0.62111,0 -1.084,-0.25196 -1.38867,-0.75586 -0.3047,-0.50391 -0.63283,-1.53516 -0.98438,-3.09375 -1.21876,2.5664 -3.21094,3.84961 -5.97656,3.84961 -1.88672,0 -3.38672,-0.73535 -4.5,-2.20606 -1.11328,-1.4707 -1.66992,-3.57714 -1.66992,-6.31933 0,-2.69531 0.60937,-4.79296 1.82812,-6.29297 1.21875,-1.49999 2.68359,-2.24999 4.39454,-2.25 1.20702,10e-6 2.19725,0.42775 2.9707,1.2832 0.77342,0.85548 1.45897,2.25001 2.05664,4.18359 z m -1.54687,6.89062 c -0.55079,-1.88671 -1.16603,-3.36034 -1.8457,-4.4209 -0.6797,-1.06053 -1.49415,-1.5908 -2.44336,-1.59082 -2.14454,2e-5 -3.2168,2.50783 -3.2168,7.52344 0,4.75782 1.02539,7.13672 3.07617,7.13672 1.78124,0 3.0996,-2.09765 3.95508,-6.29297 z"
         id="path6742"
         inkscape:connector-curvature="0" />
      <path
         d="m 216.37493,918.70923 0,0.42276 c -1.15022,-0.57892 -2.10999,-1.25686 -2.87934,-2.03382 -1.09689,-1.10451 -1.94241,-2.40706 -2.53656,-3.90767 -0.59415,-1.5006 -0.89122,-3.05834 -0.89122,-4.67321 0,-2.36135 0.58272,-4.51514 1.74817,-6.46137 1.16544,-1.9462 2.68509,-3.33826 4.55895,-4.17618 l 0,0.47989 c -0.93693,0.51799 -1.70628,1.2264 -2.30804,2.12522 -0.60177,0.89886 -1.05119,2.03764 -1.34826,3.41636 -0.29708,1.37874 -0.44561,2.81841 -0.44561,4.31901 0,1.6301 0.12568,3.11166 0.37705,4.44469 0.19805,1.05119 0.43799,1.8948 0.71984,2.53084 0.28183,0.63605 0.66079,1.24733 1.13688,1.83387 0.47607,0.58653 1.09879,1.1464 1.86814,1.67961 z"
         style="font-size:65.00091553%;baseline-shift:sub"
         id="path6744"
         inkscape:connector-curvature="0" />
      <path
         d="m 223.03626,912.51637 0,-5.70154 -5.69012,0 0,-0.93693 5.69012,0 0,-5.67869 0.91407,0 0,5.67869 5.71297,0 0,0.93693 -5.71297,0 0,5.70154 z"
         style="font-size:65.00091553%;baseline-shift:sub"
         id="path6746"
         inkscape:connector-curvature="0" />
      <path
         d="m 232.87399,900.1535 3.77056,-1.83957 0.37706,0 0,13.0827 c -1e-5,0.86837 0.0362,1.4092 0.10855,1.62248 0.0724,0.21329 0.2228,0.37706 0.45132,0.49132 0.22851,0.11426 0.69317,0.179 1.39397,0.19424 l 0,0.42276 -5.82723,0 0,-0.42276 c 0.73125,-0.0152 1.20352,-0.0781 1.41681,-0.18853 0.21328,-0.11045 0.36182,-0.25899 0.44561,-0.44561 0.0838,-0.18662 0.12568,-0.74459 0.12569,-1.6739 l 0,-8.36379 c -10e-6,-1.12735 -0.0381,-1.85099 -0.11426,-2.17093 -0.0533,-0.24374 -0.15045,-0.42275 -0.29136,-0.53702 -0.14093,-0.11424 -0.31041,-0.17137 -0.50846,-0.17139 -0.28184,2e-5 -0.67413,0.11808 -1.17687,0.35421 z"
         style="font-size:65.00091553%;baseline-shift:sub"
         id="path6748"
         inkscape:connector-curvature="0" />
      <path
         d="m 242.35753,898.35963 0,-0.47989 c 1.15782,0.57131 2.12141,1.24544 2.89076,2.02239 1.08927,1.11214 1.93098,2.4166 2.52513,3.91339 0.59414,1.4968 0.89122,3.05644 0.89123,4.67892 -1e-5,2.36136 -0.58083,4.51515 -1.74246,6.46137 -1.16164,1.94622 -2.6832,3.33828 -4.56466,4.17618 l 0,-0.42276 c 0.93692,-0.5256 1.70817,-1.23591 2.31375,-2.13094 0.60557,-0.89503 1.05499,-2.03381 1.34826,-3.41635 0.29326,-1.38254 0.43989,-2.82411 0.4399,-4.32472 -1e-5,-1.62248 -0.12569,-3.10404 -0.37706,-4.44469 -0.19043,-1.05118 -0.42847,-1.89289 -0.71412,-2.52514 -0.28565,-0.63222 -0.66461,-1.2416 -1.13688,-1.82815 -0.47227,-0.58651 -1.09689,-1.14639 -1.87385,-1.67961 z"
         style="font-size:65.00091553%;baseline-shift:sub"
         id="path6750"
         inkscape:connector-curvature="0" />
    </g>
    <g
       style="font-size:36px;font-style:normal;font-weight:normal;line-height:125%;letter-spacing:0px;word-spacing:0px;fill:#000000;fill-opacity:1;stroke:none;font-family:Times New Roman;-inkscape-font-specification:Times New Roman"
       id="text3074"
       transform="matrix(0.35,0,0,0.35,232.08558,324.57124)">
      <path
         d="m 308.55716,778.47363 0.54492,8.10352 -0.54492,0 c -0.72658,-2.42576 -1.76369,-4.17186 -3.11133,-5.23828 -1.34767,-1.06639 -2.96486,-1.59959 -4.85156,-1.59961 -1.58204,2e-5 -3.01173,0.40139 -4.28906,1.2041 -1.27736,0.80275 -2.28224,2.08303 -3.01465,3.84082 -0.73243,1.75783 -1.09864,3.94337 -1.09863,6.55664 -1e-5,2.15626 0.34569,4.0254 1.0371,5.60742 0.6914,1.58204 1.73144,2.79493 3.12012,3.63867 1.38866,0.84376 2.97362,1.26563 4.75488,1.26563 1.54686,0 2.9121,-0.33105 4.09571,-0.99317 1.18357,-0.6621 2.48435,-1.97753 3.90234,-3.94628 l 0.54492,0.35156 c -1.19533,2.1211 -2.58986,3.67383 -4.18359,4.6582 -1.59377,0.98438 -3.48634,1.47656 -5.67773,1.47656 -3.94923,0 -7.00782,-1.46484 -9.17579,-4.39453 -1.61719,-2.17968 -2.42578,-4.74608 -2.42578,-7.69922 0,-2.37889 0.5332,-4.56443 1.59961,-6.55664 1.0664,-1.99216 2.53418,-3.53611 4.40332,-4.63183 1.86913,-1.09568 3.91112,-1.64353 6.12598,-1.64356 1.72264,3e-5 3.42186,0.4219 5.09766,1.26563 0.49216,0.25783 0.84373,0.38674 1.05468,0.38672 0.31639,2e-5 0.59178,-0.11131 0.82617,-0.33399 0.30467,-0.31638 0.52147,-0.75583 0.6504,-1.31836 z"
         id="path6753"
         inkscape:connector-curvature="0" />
      <path
         d="m 318.19711,814.63629 0,0.42276 c -1.15022,-0.57891 -2.11,-1.25685 -2.87934,-2.03381 -1.0969,-1.10451 -1.94241,-2.40707 -2.53656,-3.90768 -0.59415,-1.5006 -0.89123,-3.05834 -0.89122,-4.67321 -1e-5,-2.36135 0.58272,-4.51514 1.74816,-6.46137 1.16545,-1.9462 2.6851,-3.33826 4.55896,-4.17618 l 0,0.47989 c -0.93694,0.51799 -1.70628,1.2264 -2.30804,2.12523 -0.60178,0.89885 -1.0512,2.03763 -1.34827,3.41635 -0.29707,1.37874 -0.44561,2.81841 -0.44561,4.31901 0,1.63011 0.12568,3.11167 0.37706,4.44469 0.19804,1.05119 0.43799,1.8948 0.71983,2.53085 0.28184,0.63604 0.6608,1.24733 1.13688,1.83386 0.47608,0.58653 1.09879,1.1464 1.86815,1.67961 z"
         style="font-size:65.00091553%;baseline-shift:sub"
         id="path6755"
         inkscape:connector-curvature="0" />
      <path
         d="m 319.6939,803.94161 5.90722,0 0,1.72532 -5.90722,0 z"
         style="font-size:65.00091553%;baseline-shift:sub"
         id="path6757"
         inkscape:connector-curvature="0" />
      <path
         d="m 329.30312,796.08056 3.77056,-1.83957 0.37706,0 0,13.0827 c -10e-6,0.86838 0.0362,1.4092 0.10854,1.62249 0.0724,0.21328 0.2228,0.37705 0.45133,0.49131 0.22851,0.11426 0.69316,0.17901 1.39396,0.19424 l 0,0.42276 -5.82723,0 0,-0.42276 c 0.73126,-0.0152 1.20353,-0.0781 1.41682,-0.18853 0.21328,-0.11045 0.36182,-0.25898 0.44561,-0.44561 0.0838,-0.18662 0.12568,-0.74459 0.12569,-1.6739 l 0,-8.36379 c -10e-6,-1.12735 -0.0381,-1.85099 -0.11426,-2.17093 -0.0533,-0.24374 -0.15045,-0.42274 -0.29136,-0.53702 -0.14093,-0.11424 -0.31041,-0.17137 -0.50846,-0.17139 -0.28184,2e-5 -0.67413,0.11809 -1.17687,0.35421 z"
         style="font-size:65.00091553%;baseline-shift:sub"
         id="path6759"
         inkscape:connector-curvature="0" />
      <path
         d="m 338.78665,794.28669 0,-0.47989 c 1.15783,0.57131 2.12142,1.24544 2.89077,2.02239 1.08926,1.11214 1.93097,2.4166 2.52513,3.91339 0.59414,1.49681 0.89122,3.05645 0.89122,4.67892 0,2.36137 -0.58082,4.51516 -1.74245,6.46137 -1.16165,1.94622 -2.6832,3.33828 -4.56467,4.17618 l 0,-0.42276 c 0.93693,-0.52559 1.70818,-1.2359 2.31376,-2.13093 0.60557,-0.89504 1.05499,-2.03382 1.34826,-3.41636 0.29326,-1.38254 0.43989,-2.82411 0.4399,-4.32472 -1e-5,-1.62248 -0.12569,-3.10404 -0.37706,-4.44469 -0.19044,-1.05118 -0.42848,-1.89289 -0.71412,-2.52513 -0.28565,-0.63223 -0.66461,-1.24161 -1.13688,-1.82815 -0.47228,-0.58652 -1.0969,-1.14639 -1.87386,-1.67962 z"
         style="font-size:65.00091553%;baseline-shift:sub"
         id="path6761"
         inkscape:connector-curvature="0" />
    </g>
    <g
       style="font-size:36px;font-style:normal;font-weight:normal;line-height:125%;letter-spacing:0px;word-spacing:0px;fill:#000000;fill-opacity:1;stroke:none;font-family:Times New Roman;-inkscape-font-specification:Times New Roman"
       id="text3080"
       transform="matrix(0.35,0,0,0.35,232.08558,324.57124)">
      <path
         d="m 502.07983,721.90509 c 3.09374,2e-5 5.7744,1.17483 8.042,3.52441 2.26755,2.34963 3.40134,5.28225 3.40136,8.79786 -2e-5,3.6211 -1.1426,6.62695 -3.42773,9.01757 -2.28518,2.39063 -5.0508,3.58594 -8.29688,3.58594 -3.28126,0 -6.03809,-1.16601 -8.2705,-3.49805 -2.23243,-2.33202 -3.34864,-5.3496 -3.34864,-9.05273 0,-3.78514 1.28906,-6.87303 3.86719,-9.26367 2.23827,-2.0742 4.91601,-3.11131 8.0332,-3.11133 z m -0.33398,1.2832 c -2.13282,3e-5 -3.84376,0.79104 -5.13281,2.37305 -1.60548,1.96877 -2.40821,4.85158 -2.40821,8.64844 0,3.89063 0.83203,6.88477 2.4961,8.98242 1.27733,1.59375 2.96483,2.39063 5.0625,2.39062 2.23826,10e-6 4.08689,-0.87304 5.5459,-2.61914 1.45896,-1.74608 2.18845,-4.49999 2.18847,-8.26171 -2e-5,-4.07811 -0.80275,-7.11913 -2.4082,-9.12305 -1.28908,-1.59373 -3.07033,-2.3906 -5.34375,-2.39063 z"
         id="path6764"
         inkscape:connector-curvature="0" />
      <path
         d="m 522.19634,758.06775 0,0.42276 c -1.15022,-0.57892 -2.10999,-1.25686 -2.87933,-2.03382 -1.0969,-1.10451 -1.94242,-2.40706 -2.53656,-3.90767 -0.59415,-1.5006 -0.89123,-3.05834 -0.89123,-4.67321 0,-2.36135 0.58272,-4.51514 1.74817,-6.46137 1.16544,-1.9462 2.68509,-3.33826 4.55895,-4.17618 l 0,0.47989 c -0.93693,0.51799 -1.70628,1.2264 -2.30804,2.12522 -0.60177,0.89886 -1.05119,2.03764 -1.34826,3.41636 -0.29708,1.37874 -0.44561,2.81841 -0.44561,4.31901 0,1.6301 0.12568,3.11167 0.37706,4.44469 0.19804,1.05119 0.43799,1.8948 0.71983,2.53085 0.28184,0.63604 0.6608,1.24732 1.13688,1.83386 0.47608,0.58653 1.09879,1.1464 1.86814,1.67961 z"
         style="font-size:65.00091553%;baseline-shift:sub"
         id="path6766"
         inkscape:connector-curvature="0" />
      <path
         d="m 523.69314,747.37307 5.90721,0 0,1.72532 -5.90721,0 z"
         style="font-size:65.00091553%;baseline-shift:sub"
         id="path6768"
         inkscape:connector-curvature="0" />
      <path
         d="m 533.30236,739.51202 3.77056,-1.83957 0.37705,0 0,13.0827 c 0,0.86837 0.0362,1.4092 0.10855,1.62248 0.0724,0.21329 0.2228,0.37706 0.45133,0.49132 0.22851,0.11426 0.69316,0.17901 1.39396,0.19424 l 0,0.42276 -5.82723,0 0,-0.42276 c 0.73126,-0.0152 1.20353,-0.0781 1.41682,-0.18853 0.21328,-0.11045 0.36181,-0.25899 0.44561,-0.44561 0.0838,-0.18662 0.12568,-0.74459 0.12568,-1.6739 l 0,-8.36379 c 0,-1.12735 -0.0381,-1.85099 -0.11426,-2.17093 -0.0533,-0.24374 -0.15044,-0.42275 -0.29136,-0.53702 -0.14092,-0.11424 -0.31041,-0.17137 -0.50845,-0.17139 -0.28185,2e-5 -0.67414,0.11808 -1.17687,0.35421 z"
         style="font-size:65.00091553%;baseline-shift:sub"
         id="path6770"
         inkscape:connector-curvature="0" />
      <path
         d="m 542.78589,737.71815 0,-0.47989 c 1.15783,0.57131 2.12141,1.24544 2.89076,2.02239 1.08927,1.11214 1.93098,2.4166 2.52514,3.91339 0.59414,1.4968 0.89121,3.05644 0.89122,4.67892 -1e-5,2.36136 -0.58083,4.51515 -1.74246,6.46137 -1.16164,1.94622 -2.68319,3.33828 -4.56466,4.17618 l 0,-0.42276 c 0.93693,-0.5256 1.70818,-1.23591 2.31375,-2.13094 0.60557,-0.89503 1.05499,-2.03381 1.34826,-3.41635 0.29327,-1.38254 0.4399,-2.82411 0.4399,-4.32472 0,-1.62248 -0.12569,-3.10404 -0.37705,-4.44469 -0.19044,-1.05118 -0.42848,-1.89289 -0.71413,-2.52514 -0.28565,-0.63222 -0.66461,-1.2416 -1.13688,-1.82815 -0.47227,-0.58651 -1.09689,-1.14638 -1.87385,-1.67961 z"
         style="font-size:65.00091553%;baseline-shift:sub"
         id="path6772"
         inkscape:connector-curvature="0" />
    </g>
    <g
       style="font-size:36px;font-style:normal;font-weight:normal;line-height:125%;letter-spacing:0px;word-spacing:0px;fill:#000000;fill-opacity:1;stroke:none;font-family:Times New Roman;-inkscape-font-specification:Times New Roman"
       id="text3086"
       transform="matrix(0.35,0,0,0.35,232.08558,324.57124)">
      <path
         d="m 569.17651,490.5802 0.54493,8.10352 -0.54493,0 c -0.72658,-2.42577 -1.76369,-4.17186 -3.11132,-5.23829 -1.34768,-1.06638 -2.96486,-1.59958 -4.85157,-1.5996 -1.58204,2e-5 -3.01173,0.40139 -4.28906,1.2041 -1.27735,0.80275 -2.28223,2.08302 -3.01465,3.84082 -0.73243,1.75783 -1.09864,3.94337 -1.09863,6.55664 -10e-6,2.15626 0.3457,4.0254 1.03711,5.60742 0.6914,1.58204 1.73144,2.79492 3.12012,3.63867 1.38866,0.84375 2.97362,1.26563 4.75488,1.26563 1.54686,0 2.91209,-0.33106 4.0957,-0.99317 1.18358,-0.6621 2.48436,-1.97753 3.90235,-3.94629 l 0.54492,0.35157 c -1.19534,2.12109 -2.58987,3.67383 -4.1836,4.6582 -1.59376,0.98437 -3.48634,1.47656 -5.67773,1.47656 -3.94923,0 -7.00782,-1.46484 -9.17578,-4.39453 -1.61719,-2.17968 -2.42578,-4.74608 -2.42578,-7.69922 0,-2.37889 0.5332,-4.56444 1.59961,-6.55664 1.0664,-1.99217 2.53417,-3.53611 4.40332,-4.63184 1.86913,-1.09567 3.91112,-1.64353 6.12597,-1.64355 1.72264,2e-5 3.42186,0.4219 5.09766,1.26563 0.49217,0.25783 0.84373,0.38674 1.05469,0.38671 0.31638,3e-5 0.59177,-0.1113 0.82617,-0.33398 0.30467,-0.31638 0.52146,-0.75584 0.65039,-1.31836 z"
         id="path6775"
         inkscape:connector-curvature="0" />
      <path
         d="m 576.38354,522.66028 -2.90039,0 c 0.42188,-1.98048 0.63281,-3.77344 0.63282,-5.37891 l 0,-19.14258 c -10e-6,-1.99216 0.1787,-3.47459 0.53613,-4.44726 0.35742,-0.97264 1.05468,-1.83103 2.0918,-2.5752 1.0371,-0.74411 2.33495,-1.11618 3.89355,-1.11621 1.85155,3e-5 3.40722,0.48928 4.66699,1.46778 1.25975,0.97853 1.88964,2.37013 1.88965,4.1748 -10e-6,2.10939 -1.00197,3.83791 -3.00586,5.18555 2.98827,1.40626 4.48241,3.61524 4.48242,6.62695 -10e-6,1.64063 -0.39552,3.1084 -1.18652,4.40332 -0.79103,1.29492 -1.70509,2.21777 -2.74219,2.76856 -1.03712,0.55078 -2.27637,0.82617 -3.71777,0.82617 -1.64063,0 -2.97657,-0.61524 -4.00781,-1.84571 l 0,3.26954 c -10e-6,2.24999 -0.21095,4.17772 -0.63282,5.7832 z m 0.63282,-10.63477 c 0.91405,1.51172 2.1914,2.26758 3.83203,2.26758 1.58202,0 2.74217,-0.57715 3.48047,-1.73144 0.73827,-1.1543 1.10741,-2.55762 1.10742,-4.20997 -10e-6,-1.26561 -0.24318,-2.5576 -0.72949,-3.87597 -0.48634,-1.31835 -1.11037,-2.32323 -1.87207,-3.01465 -0.70314,0.17579 -1.33595,0.26368 -1.89844,0.26367 -1.1836,10e-6 -1.7754,-0.31053 -1.77539,-0.93164 -10e-6,-0.56248 0.49804,-0.84373 1.49414,-0.84375 0.62108,2e-5 1.39452,0.14064 2.32031,0.42188 0.83202,-1.40624 1.24804,-2.93553 1.24805,-4.58789 -10e-6,-1.47655 -0.32521,-2.6074 -0.97559,-3.39258 -0.6504,-0.78514 -1.49708,-1.17771 -2.54004,-1.17774 -0.83204,3e-5 -1.54395,0.2344 -2.13574,0.70313 -0.5918,0.46877 -0.99903,1.02834 -1.22168,1.67871 -0.22266,0.65041 -0.33399,1.71389 -0.33398,3.19043 z"
         id="path6777"
         inkscape:connector-curvature="0" />
    </g>
    <g
       style="font-size:56px;font-style:normal;font-weight:normal;line-height:125%;letter-spacing:0px;word-spacing:0px;fill:#000000;fill-opacity:1;stroke:none;font-family:Times New Roman;-inkscape-font-specification:Times New Roman"
       id="text3090"
       transform="matrix(0.35,0,0,0.35,232.08558,324.57124)">
      <path
         d="m 411.39313,529.49292 c -3e-5,3.71876 -1.05732,6.77214 -3.17188,9.16016 -1.987,2.26041 -4.64845,3.64583 -7.98437,4.15625 l 0,11.40234 -2.95313,0 0,-11.29297 c -3.53647,-0.34635 -6.31641,-1.58594 -8.33984,-3.71875 -2.13282,-2.27864 -3.19922,-5.35937 -3.19922,-9.24219 0,-3.79165 1.09375,-6.8906 3.28125,-9.29687 2.07812,-2.27862 4.83072,-3.63669 8.25781,-4.07422 l 0,-13.23438 2.95313,0 0,13.23438 c 3.44529,0.40107 6.13409,1.66799 8.0664,3.80078 2.05987,2.26044 3.08982,5.29559 3.08985,9.10547 z m -5.08594,2.29687 c -2e-5,-2.97134 -0.46487,-5.5781 -1.39453,-7.82031 -1.05731,-2.57029 -2.61591,-4.28383 -4.67578,-5.14062 l 0,22.23047 c 4.04685,-0.80209 6.07029,-3.89193 6.07031,-9.26954 z m -9.02344,8.9961 0,-22.44922 c -2.11459,0.30992 -3.73699,1.33075 -4.86719,3.0625 -1.05729,1.62241 -1.58594,3.70965 -1.58593,6.26172 -10e-6,3.08074 0.49218,5.76042 1.47656,8.03906 1.1302,2.62501 2.78905,4.32032 4.97656,5.08594 z"
         id="path6780"
         inkscape:connector-curvature="0" />
    </g>
    <g
       style="font-size:36px;font-style:normal;font-weight:normal;line-height:125%;letter-spacing:0px;word-spacing:0px;fill:#000000;fill-opacity:1;stroke:none;font-family:Times New Roman;-inkscape-font-specification:Times New Roman"
       id="text3094"
       transform="matrix(0.35,0,0,0.35,232.08558,324.57124)">
      <path
         d="m 348.24603,633.19104 c -1.01954,2.32031 -2.57813,3.48047 -4.67578,3.48047 -1.46485,0 -2.80957,-0.67676 -4.03418,-2.03027 -1.22461,-1.35352 -1.83691,-3.30176 -1.83691,-5.84473 0,-2.08593 0.36621,-3.78808 1.09863,-5.10645 0.73242,-1.31834 1.69043,-2.32908 2.87402,-3.03222 1.18359,-0.70311 2.75976,-1.05467 4.72852,-1.05469 l 0,0.65039 c -1.73438,2e-5 -3.08204,0.71486 -4.04297,2.14453 -0.96094,1.4297 -1.44141,3.45704 -1.44141,6.08203 0,2.66016 0.31348,4.48243 0.94043,5.4668 0.62695,0.98438 1.36816,1.47656 2.22364,1.47656 0.55077,0 1.0869,-0.16992 1.6084,-0.50976 0.52147,-0.33985 0.88768,-0.7002 1.09863,-1.08106 0.21093,-0.38086 0.53319,-1.16308 0.9668,-2.34668 -0.7383,-1.54687 -1.10744,-3.18163 -1.10743,-4.90429 -10e-6,-2.61327 0.5332,-3.91991 1.59961,-3.91993 1.0664,2e-5 1.5996,1.20705 1.59961,3.6211 -10e-6,1.66407 -0.38673,3.39844 -1.16015,5.20312 0.84373,2.625 2.05076,3.9375 3.62109,3.9375 0.87889,0 1.63768,-0.45996 2.27637,-1.37988 0.63865,-0.91992 0.95799,-2.65722 0.958,-5.21191 -1e-5,-2.13281 -0.20802,-3.76464 -0.62402,-4.89551 -0.41603,-1.13085 -1.0342,-2.01561 -1.85449,-2.6543 -0.82033,-0.63866 -1.82228,-0.98143 -3.00586,-1.02832 l 0,-0.65039 c 1.96873,2e-5 3.5449,0.35744 4.72852,1.07227 1.18357,0.71485 2.13865,1.72267 2.86523,3.02343 0.72654,1.30079 1.08982,2.98243 1.08984,5.04492 -2e-5,2.57813 -0.58889,4.54395 -1.7666,5.89747 -1.17775,1.35351 -2.55177,2.03027 -4.12207,2.03027 -2.15626,0 -3.69142,-1.16016 -4.60547,-3.48047 z"
         id="path6783"
         inkscape:connector-curvature="0" />
    </g>
    <g
       style="font-size:36px;font-style:normal;font-weight:normal;line-height:125%;letter-spacing:0px;word-spacing:0px;fill:#000000;fill-opacity:1;stroke:none;font-family:Times New Roman;-inkscape-font-specification:Times New Roman"
       id="text3098"
       transform="matrix(0.35,0,0,0.35,232.08558,324.57124)">
      <path
         d="m 558.94366,197.11566 11.07422,0 0,-6.82031 c -2e-5,-1.21873 -0.0762,-2.02146 -0.22851,-2.4082 -0.11721,-0.29295 -0.3633,-0.5449 -0.73828,-0.75586 -0.50393,-0.28123 -1.03713,-0.42186 -1.59961,-0.42188 l -0.84375,0 0,-0.65039 10.19531,0 0,0.65039 -0.84375,0 c -0.56252,2e-5 -1.09573,0.13479 -1.59961,0.4043 -0.37502,0.18752 -0.6299,0.4717 -0.76465,0.85254 -0.13479,0.38088 -0.20217,1.15724 -0.20215,2.3291 l 0,15.38086 c -2e-5,1.20703 0.0761,2.00391 0.22852,2.39062 0.11716,0.29297 0.3574,0.54493 0.7207,0.75586 0.5156,0.28125 1.05467,0.42188 1.61719,0.42188 l 0.84375,0 0,0.65039 -10.19531,0 0,-0.65039 0.84375,0 c 0.97264,0 1.68162,-0.28711 2.12695,-0.86133 0.29295,-0.375 0.43943,-1.27734 0.43945,-2.70703 l 0,-7.25977 -11.07422,0 0,7.25977 c 0,1.20703 0.0762,2.00391 0.22852,2.39062 0.11718,0.29297 0.36327,0.54493 0.73828,0.75586 0.5039,0.28125 1.0371,0.42188 1.59961,0.42188 l 0.86133,0 0,0.65039 -10.21289,0 0,-0.65039 0.84375,0 c 0.98437,0 1.69921,-0.28711 2.14453,-0.86133 0.28125,-0.375 0.42187,-1.27734 0.42187,-2.70703 l 0,-15.38086 c 0,-1.21873 -0.0762,-2.02146 -0.22851,-2.4082 -0.11719,-0.29295 -0.35743,-0.5449 -0.7207,-0.75586 -0.51563,-0.28123 -1.05469,-0.42186 -1.61719,-0.42188 l -0.84375,0 0,-0.65039 10.21289,0 0,0.65039 -0.86133,0 c -0.56251,2e-5 -1.09571,0.13479 -1.59961,0.4043 -0.36329,0.18752 -0.61524,0.4717 -0.75586,0.85254 -0.14063,0.38088 -0.21094,1.15724 -0.21094,2.3291 z"
         id="path6786"
         inkscape:connector-curvature="0" />
      <path
         d="m 584.8258,221.67676 0,0.42276 c -1.15022,-0.57892 -2.11,-1.25686 -2.87934,-2.03382 -1.09689,-1.10451 -1.94241,-2.40706 -2.53656,-3.90767 -0.59415,-1.5006 -0.89122,-3.05834 -0.89122,-4.67321 0,-2.36135 0.58272,-4.51514 1.74817,-6.46137 1.16544,-1.9462 2.68509,-3.33826 4.55895,-4.17618 l 0,0.47989 c -0.93694,0.51799 -1.70628,1.2264 -2.30804,2.12522 -0.60177,0.89886 -1.05119,2.03764 -1.34826,3.41636 -0.29708,1.37874 -0.44562,2.81841 -0.44562,4.31901 0,1.6301 0.12569,3.11166 0.37706,4.44469 0.19805,1.05118 0.43799,1.8948 0.71984,2.53084 0.28183,0.63605 0.66079,1.24733 1.13688,1.83387 0.47607,0.58653 1.09878,1.1464 1.86814,1.67961 z"
         style="font-size:65.00091553%;baseline-shift:sub"
         id="path6788"
         inkscape:connector-curvature="0" />
      <path
         d="m 591.48712,215.4839 0,-5.70154 -5.69012,0 0,-0.93693 5.69012,0 0,-5.6787 0.91408,0 0,5.6787 5.71297,0 0,0.93693 -5.71297,0 0,5.70154 z"
         style="font-size:65.00091553%;baseline-shift:sub"
         id="path6790"
         inkscape:connector-curvature="0" />
      <path
         d="m 601.32486,203.12103 3.77056,-1.83958 0.37706,0 0,13.08271 c -10e-6,0.86837 0.0362,1.4092 0.10854,1.62248 0.0724,0.21329 0.2228,0.37706 0.45133,0.49132 0.22851,0.11426 0.69316,0.179 1.39396,0.19424 l 0,0.42276 -5.82723,0 0,-0.42276 c 0.73126,-0.0152 1.20353,-0.0781 1.41682,-0.18853 0.21328,-0.11045 0.36182,-0.25899 0.44561,-0.44561 0.0838,-0.18662 0.12568,-0.74459 0.12569,-1.6739 l 0,-8.36379 c -1e-5,-1.12735 -0.0381,-1.85099 -0.11426,-2.17093 -0.0533,-0.24374 -0.15045,-0.42275 -0.29136,-0.53702 -0.14093,-0.11425 -0.31041,-0.17138 -0.50846,-0.17139 -0.28184,1e-5 -0.67413,0.11808 -1.17687,0.35421 z"
         style="font-size:65.00091553%;baseline-shift:sub"
         id="path6792"
         inkscape:connector-curvature="0" />
      <path
         d="m 610.80839,201.32716 0,-0.47989 c 1.15783,0.57131 2.12142,1.24544 2.89077,2.02239 1.08926,1.11214 1.93097,2.4166 2.52513,3.91339 0.59414,1.4968 0.89122,3.05644 0.89122,4.67892 0,2.36136 -0.58082,4.51515 -1.74245,6.46137 -1.16165,1.94622 -2.6832,3.33827 -4.56467,4.17618 l 0,-0.42276 c 0.93693,-0.5256 1.70818,-1.23591 2.31376,-2.13094 0.60557,-0.89503 1.05499,-2.03382 1.34826,-3.41635 0.29326,-1.38254 0.43989,-2.82411 0.4399,-4.32472 -10e-6,-1.62248 -0.12569,-3.10404 -0.37706,-4.44469 -0.19044,-1.05118 -0.42848,-1.89289 -0.71412,-2.52514 -0.28565,-0.63222 -0.66461,-1.2416 -1.13688,-1.82815 -0.47228,-0.58652 -1.0969,-1.14639 -1.87386,-1.67961 z"
         style="font-size:65.00091553%;baseline-shift:sub"
         id="path6794"
         inkscape:connector-curvature="0" />
    </g>
    <path
       style="fill:none;stroke:#000000;stroke-width:1.04999995;stroke-linecap:butt;stroke-linejoin:miter;stroke-miterlimit:4;stroke-opacity:1;stroke-dasharray:none;marker-end:url(#Arrow1Mend)"
       d="m 335.21058,464.27301 c -0.34331,-23.26925 29.75471,-41.09974 45.875,-15.625"
       id="path3115"
       inkscape:connector-curvature="0"
       sodipodi:nodetypes="cc" />
    <path
       style="fill:none;stroke:#000000;stroke-width:1.04999995;stroke-linecap:butt;stroke-linejoin:miter;stroke-miterlimit:4;stroke-opacity:1;stroke-dasharray:none;marker-end:url(#Arrow1Mend)"
       d="m 326.33558,502.148 c 5.65829,-33.71814 40.89127,-5.76408 38.125,24.5"
       id="path6081"
       inkscape:connector-curvature="0"
       sodipodi:nodetypes="cc" />
    <path
       style="fill:none;stroke:#000000;stroke-width:1.04999995;stroke-linecap:butt;stroke-linejoin:miter;stroke-miterlimit:4;stroke-opacity:1;stroke-dasharray:none;marker-end:url(#Arrow1Mend)"
       d="m 313.46058,567.14801 c 1.22041,-23.40037 25.9502,-35.79021 41,-7.875"
       id="path6487"
       inkscape:connector-curvature="0"
       sodipodi:nodetypes="cc" />
    <path
       style="fill:#000000"
       d="m 278.6027,672.21552 c -0.74937,-0.14431 -0.81415,-0.71812 -1.50932,-13.36751 -0.31208,-5.67875 -0.67213,-11.49388 -0.80011,-12.92251 l -0.23269,-2.5975 -2.275,-0.70867 c -2.99129,-0.9318 -6.21906,-3.98756 -7.13797,-6.75757 -1.76482,-5.32 0.36564,-10.82789 5.21297,-13.47714 1.883,-1.02913 2.38934,-1.14702 4.9,-1.14091 1.54,0.004 3.38363,0.13822 4.09696,0.29883 1.46818,0.33056 1.11601,0.52619 8.76804,-4.87052 4.79795,-3.38383 6.99567,-4.91963 14.085,-9.84282 2.5025,-1.73787 6.78952,-4.7227 9.52671,-6.63297 2.73719,-1.91027 7.89532,-5.4921 11.4625,-7.95963 3.56718,-2.46752 6.48579,-4.62385 6.48579,-4.79184 0,-0.16799 -0.13952,-0.39167 -0.31004,-0.49706 -0.17052,-0.10539 -0.58668,-1.21359 -0.92479,-2.46268 -1.06129,-3.92073 -0.0792,-8.06598 2.55291,-10.77554 l 1.27599,-1.31353 -0.41911,-1.83647 c -1.0105,-4.42776 -6.2831,-24.78629 -6.46695,-24.97013 l -0.39053,-1.71634 c 0.0735,-0.1925 -0.38359,-2.3975 -1.01575,-4.9 l -1.14938,-4.55 -2.3663,-0.23505 c -4.89575,-0.48629 -8.38291,-3.51281 -9.44728,-8.19933 l -0.46873,-2.06392 -3.47252,-0.7772 c -1.90989,-0.42745 -5.44127,-1.18602 -7.84752,-1.68569 -2.40625,-0.49968 -5.32,-1.13012 -6.475,-1.40099 -2.63415,-0.61775 -12.28118,-2.74378 -14.9625,-3.29746 -1.10688,-0.22856 -2.0125,-0.5793 -2.0125,-0.77942 0,-0.46586 0.43604,-0.38594 12.775,2.34147 14.01968,3.09892 19.77105,4.31575 20.9898,4.44085 0.86179,0.0885 1.09764,-0.0569 1.37766,-0.84894 0.18583,-0.52562 0.25203,-1.0415 0.14712,-1.14641 -0.20449,-0.20449 -1.80169,-0.48409 -13.76458,-2.40959 -22.5192,-3.62459 -21.71483,-3.47302 -21.37244,-4.02702 0.0902,-0.14593 2.65214,0.16266 5.69321,0.68576 9.58753,1.64918 26.88282,4.41556 28.71496,4.59297 1.00412,0.0972 1.28928,-0.0922 2.4608,-1.6349 0.92429,-1.2171 2.00992,-2.10114 3.58927,-2.92279 2.14609,-1.11649 2.40113,-1.16738 4.8892,-0.97572 1.44375,0.11122 3.0975,0.28649 3.675,0.3895 0.92283,0.16461 1.77551,-0.35371 7.04016,-4.27942 3.29458,-2.45669 9.16216,-6.80601 13.03906,-9.66515 3.87689,-2.85915 7.1496,-5.36138 7.27268,-5.56053 l 9.28728,-6.64375 1.63918,-1.34841 -0.52199,-1.2493 c -1.23465,-2.95494 -0.39785,-7.61945 1.83486,-10.22787 l 1.24268,-1.45179 -7.25288,-14.60995 c -3.98909,-8.03548 -7.61097,-15.39745 -8.04863,-16.35995 -0.43766,-0.9625 -1.02422,-2.05277 -1.30347,-2.42281 l -0.97837,-1.98377 -0.7683,-1.64672 c -0.42256,-0.90568 -0.80683,-1.70835 -0.85394,-1.78369 -0.0471,-0.0754 -1.33918,-0.10678 -2.87129,-0.0699 -2.36276,0.057 -3.04887,-0.0662 -4.51959,-0.81151 -1.96787,-0.9972 -4.05553,-3.2442 -4.62925,-4.98257 -0.43314,-1.31243 -0.19915,-1.26052 -6.10819,-1.35505 -1.7325,-0.0277 -10.87866,-0.17368 -20.32481,-0.32436 l -17.1748,-0.27397 -0.6307,1.65145 c -0.86619,2.26811 -2.30656,3.7962 -4.44567,4.71641 -8.52376,3.66683 -16.16744,-5.49395 -11.16536,-13.38142 0.77433,-1.22099 1.52718,-1.84014 3.29683,-2.71134 2.02081,-0.99484 2.55486,-1.11136 4.49393,-0.98053 3.62875,0.24483 6.34413,2.03129 7.68092,5.05331 l 0.64204,1.45144 10.06381,0.21752 c 5.53509,0.11964 12.11131,0.29254 14.61381,0.38424 4.0166,0.14718 17.21712,0.30042 18.2321,0.21164 0.21015,-0.0184 0.56119,-0.63116 0.78007,-1.36174 0.54791,-1.82874 2.5459,-4.05581 4.47755,-4.9909 1.6547,-0.80103 4.7116,-1.08985 6.43528,-0.60802 0.77725,0.21727 1.85604,-0.64309 9.65688,-7.70158 4.83004,-4.3704 10.78801,-9.85757 13.23994,-12.19373 l 4.45806,-4.24756 -0.55244,-1.62717 c -1.02799,-3.02787 -0.60541,-6.07043 1.17378,-8.45124 l 1.02865,-1.37647 -3.6156,-7 c -1.98858,-3.85 -5.08905,-9.86977 -6.88993,-13.37726 l -3.27434,-6.37727 -1.79048,0.20743 c -4.71225,0.5459 -8.6535,-2.98516 -8.6535,-7.7529 0,-4.46569 3.43007,-7.81109 8.05855,-7.85964 l 1.46458,-0.0154 4.13542,-5.3251 c 2.27449,-2.9288 4.49548,-5.84255 4.93555,-6.475 0.95299,-1.36961 1.43943,-1.43031 2.49113,-0.31083 l 0.78826,0.83906 -4.42468,6.53285 -4.42468,6.53285 1.08439,1.68987 c 1.94008,3.02335 1.73495,6.72317 -0.53796,9.70311 l -0.90813,1.19062 3.49316,6.02379 c 5.32198,9.17747 8.22625,14.15993 9.93772,17.04878 l 1.55515,2.625 2.24776,0.20762 c 1.23627,0.11418 2.79901,0.44529 3.47276,0.73577 2.42798,1.04683 4.51317,3.90384 5.07363,6.95161 l 0.22895,1.24501 3.38621,0.43251 c 5.83992,0.74592 26.65469,2.84031 28.32371,2.84995 0.24062,0.001 0.4375,0.18034 0.4375,0.39767 0,0.43807 -3.06808,0.27849 -11.2,-0.58255 -3.88211,-0.41106 -19.32993,-1.94814 -19.95,-1.98507 -0.68459,-0.0408 -1.06235,0.11934 -0.90028,0.38157 0.20852,0.33739 1.92578,0.58566 7.55028,1.09153 6.7451,0.60667 14.49669,1.39154 17.15,1.73649 1.44375,0.1877 3.52133,0.34613 4.61684,0.35208 1.09552,0.006 2.09566,0.17878 2.22255,0.38409 0.53883,0.87184 1.35741,0.92629 -21.36439,-1.42108 -5.5825,-0.57673 -10.32333,-1.0494 -10.53518,-1.0504 -0.21185,-0.001 -0.8779,0.79081 -1.48011,1.75956 -0.88983,1.43144 -1.50606,1.95587 -3.28982,2.79973 -2.45941,1.16349 -4.23887,1.29582 -6.39489,0.47554 -0.77,-0.29295 -1.66441,-0.61648 -1.98757,-0.71894 -0.41227,-0.13071 -1.50874,0.78929 -3.675,3.08356 -3.66647,3.88311 -9.23154,9.7263 -14.79956,15.5392 -2.22083,2.3185 -4.54191,4.75975 -5.15795,5.425 l -1.12008,1.20955 0.68258,2.06683 c 1.05867,3.20561 0.91436,5.31263 -0.55724,8.13591 l -1.23982,2.37861 0.77237,1.50173 2.1863,3.76538 c 0,0.26058 1.61394,2.96628 3.31645,6.01266 1.70252,3.04638 5.06887,9.08263 7.48079,13.41388 8.47842,15.22527 7.47846,13.78602 9.74632,14.02787 2.22319,0.23707 3.57055,0.74313 5.115,1.92114 0.61364,0.46804 1.25132,0.85099 1.41707,0.85099 0.4025,0 8.6784,-6.81751 17.32193,-14.26944 4.45646,-3.84208 5.78584,-4.8348 6.08023,-4.54041 0.17699,0.17699 -6.99732,6.36889 -19.56209,16.88335 -3.21954,2.69418 -5.70178,4.94914 -5.5161,5.01104 0.30714,0.10238 8.09624,-5.60588 19.71025,-14.44473 2.45513,-1.86847 4.64798,-3.33586 4.873,-3.26085 0.45372,0.15123 -1.07671,1.37197 -11.96777,9.54604 -4.10377,3.08 -7.91639,5.99375 -8.47248,6.475 l -1.01109,0.875 0.58424,1.39583 c 0.44207,1.05614 0.54693,2.10704 0.43087,4.31819 l -0.15339,2.92234 1.63802,1.28182 c 0.9009,0.705 3.59027,2.84519 5.97636,4.75597 2.3861,1.91078 6.22836,4.97286 8.53836,6.80463 2.31,1.83177 5.14433,4.08777 6.29852,5.01335 3.59033,2.61817 2.17827,1.54172 4.71391,0.14849 3.80204,-2.06933 7.929,-1.4526 11.0079,1.64501 1.98435,1.99642 2.65467,3.62008 2.65467,6.43012 0,2.47697 -0.89117,4.76117 -2.50722,6.4264 -1.938,1.99699 -3.78963,2.76576 -6.6841,2.77516 -3.01371,0.01 -4.98117,-0.87775 -7.0523,-3.18134 -2.19033,-2.43617 -2.61471,-4.50964 -1.887,-9.2196 0.0848,-0.54876 -2.44914,-2.39831 -12.84438,-9.3753 -9.12783,-6.12634 -13.15661,-8.6427 -13.65,-8.52573 -0.385,0.0913 -1.645,0.50651 -2.8,0.92277 -2.62427,0.94577 -4.84851,0.81268 -7.61906,-0.45591 l -2.01907,-0.92449 -4.19166,3.51419 -7.73872,6.51716 c -1.03482,0.93109 -4.63775,4.04314 -8.0065,6.91565 -3.36875,2.87251 -6.20375,5.3107 -6.3,5.4182 -0.0962,0.1075 -1.66063,1.45133 -3.47639,2.98628 -5.98538,5.05972 -5.67328,4.68471 -5.2309,6.28519 0.82895,2.99907 -0.5607,7.37074 -3.12686,9.83671 l -1.42453,1.36892 1.56482,4.54298 c 0.86066,2.49864 1.67823,4.64948 1.81684,4.77964 l 0.77703,2.22311 c 0,0.43423 2.4374,7.41908 7.26849,20.82926 0.86686,2.40625 1.73405,4.47646 1.92708,4.60048 0.19303,0.12402 0.97369,0.32507 1.73481,0.44677 4.83226,0.77271 8.65435,5.7604 8.66583,11.30858 0.004,1.71013 0.0672,1.84512 0.96629,2.0476 0.52937,0.11922 1.51375,0.35065 2.1875,0.51429 0.67375,0.16365 2.87875,0.62645 4.9,1.02845 2.02125,0.40201 6.11625,1.27517 9.1,1.94037 7.59324,1.69283 20.7391,4.54627 23.42487,5.08461 2.17231,0.43542 2.26734,0.42463 2.75717,-0.31308 0.87942,-1.32449 3.66418,-3.11541 5.81672,-3.74083 6.87178,-1.9966 13.55793,3.06545 13.57357,10.27648 0.01,4.47099 -2.13785,8.02806 -6.09781,10.10002 -1.56615,0.81945 -2.27852,0.96876 -4.64952,0.97449 -2.53271,0.006 -3.01162,-0.10797 -5.01684,-1.19514 -1.21926,-0.66104 -2.74061,-1.84229 -3.38077,-2.625 -1.05035,-1.28423 -2.62739,-5.04018 -2.62739,-6.25751 0,-0.32917 -3.90326,-1.6591 -12.3375,-4.20366 -22.56906,-6.80897 -28.83136,-8.63711 -29.51242,-8.61554 -0.37129,0.0118 -1.14758,0.66869 -1.72508,1.45984 -0.6488,0.88882 -1.9127,1.9104 -3.30779,2.67361 -2.06698,1.13078 -2.50137,1.23517 -5.14002,1.23517 -2.53401,0 -3.13504,-0.13038 -4.97459,-1.07911 l -2.09234,-1.0791 -1.34263,1.08636 c -0.73845,0.5975 -1.42138,1.17974 -1.51763,1.29388 -0.14936,0.17711 -5.47013,4.28156 -8.36018,6.44906 -0.50315,0.37736 -3.51357,2.7279 -6.68982,5.22344 -3.17625,2.49554 -6.71084,5.25804 -7.85464,6.1389 -3.67637,2.83123 -12.8528,10.08504 -16.92569,13.37946 -2.94612,2.38303 -3.8958,3.34258 -3.72202,3.76072 1.20779,2.90611 1.02072,7.21423 -0.42891,9.87768 -1.13555,2.0864 -3.17225,3.96387 -5.31387,4.89844 l -1.52013,0.66336 0.22823,1.83596 c 0.12553,1.00977 0.44908,2.93845 0.71901,4.28595 0.44596,2.22627 1.81571,9.41556 3.63134,19.05952 0.71407,3.79288 0.67852,4.54339 -0.18141,3.82971 -0.37474,-0.311 -0.7067,-0.32055 -1.28134,-0.0369 -0.81422,0.40198 -3.19368,0.68076 -4.18345,0.49014 z m -4.11712,-31.08181 c -2.57406,-1.06574 -3.71804,-1.8719 -4.98574,-3.51344 -1.21684,-1.57568 -1.73411,-3.27226 -0.99767,-3.27226 0.17412,0 0.78568,0.83118 1.35901,1.84706 0.7827,1.38687 1.47864,2.08449 2.79327,2.8 0.96298,0.52412 2.1233,0.94644 2.57849,0.93851 0.6612,-0.0115 0.5145,-0.1699 -0.72943,-0.7875 -1.5818,-0.78536 -2.49765,-1.95952 -1.20229,-1.54139 3.11562,1.00568 3.59224,1.06674 5.01032,0.64187 0.7896,-0.23657 1.9657,-0.89553 2.61355,-1.46434 0.64785,-0.56882 1.36553,-1.03421 1.59486,-1.03421 0.87575,0 0.11509,1.26844 -1.45967,2.43408 -1.8435,1.36456 -1.96033,1.76259 -0.25914,0.88287 2.3644,-1.22268 3.82964,-3.49497 4.15184,-6.43868 0.11418,-1.0432 0.40447,-1.96195 0.6451,-2.04167 0.71927,-0.23828 0.54536,3.43057 -0.24758,5.22315 -0.83347,1.8842 -1.47989,2.64243 -3.47993,4.08188 -0.84701,0.6096 -1.38252,1.10837 -1.19002,1.10837 0.61233,0 3.15054,-2.00926 4.05955,-3.21357 3.02193,-4.00361 2.60842,-9.35931 -1.00351,-12.99735 -0.72948,-0.73475 -1.78835,-1.57483 -2.35305,-1.86685 -1.29797,-0.67121 -4.24672,-0.98438 -6.32884,-0.67215 -2.17872,0.32672 -5.29132,2.70072 -6.78162,5.17239 -1.01591,1.68489 -1.13668,2.16532 -1.12981,4.49454 0.009,2.97762 0.63659,4.69791 2.48122,6.79883 1.21847,1.38776 4.15342,2.99644 5.38609,2.95219 0.48573,-0.0174 0.32502,-0.18039 -0.525,-0.53233 z m 8.46722,-14.49263 c -1.20688,-1.45344 -1.2476,-2.37479 -0.0773,-1.74845 0.59702,0.31952 2.11004,2.4235 2.11004,2.93419 0,0.63476 -1.0106,0.0453 -2.03278,-1.18574 z m 117.7018,-18.9004 c -3.37263,-1.06979 -6.02828,-4.14648 -6.21506,-7.20044 -0.11841,-1.9359 0.5709,-1.79265 1.04849,0.2179 0.7967,3.35391 3.17571,5.6752 6.51929,6.36112 4.49137,0.92137 8.87472,-2.47979 9.58857,-7.44004 0.30455,-2.11622 0.90408,-2.5366 1.07546,-0.75408 0.26972,2.80555 -2.53739,7.37587 -5.21034,8.48304 -0.57633,0.23873 -0.97119,0.51073 -0.87746,0.60446 0.26966,0.26966 3.08171,-1.50181 4.12077,-2.59591 2.60557,-2.74359 3.27111,-7.56782 1.5339,-11.11857 -2.86005,-5.84572 -10.13686,-7.21868 -15.11475,-2.85178 -5.35103,4.69422 -4.22906,13.18515 2.13711,16.17336 0.9625,0.45178 2.14375,0.81412 2.625,0.80519 0.53466,-0.01 0.0559,-0.27607 -1.23098,-0.68425 z m 1.25693,-1.35517 c -0.46698,-0.1275 -0.91731,-0.43657 -1.00073,-0.68683 -0.11699,-0.35098 0.21123,-0.40061 1.43531,-0.21705 2.6211,0.39306 5.77712,-1.15351 6.56094,-3.21509 0.35795,-0.9415 1.02853,-1.09737 1.02853,-0.23907 0,0.92546 -1.67718,2.87018 -3.08278,3.57455 -1.51448,0.75894 -3.7392,1.11169 -4.94127,0.78349 z m 8.20353,-12.21201 c -1.37169,-2.16538 -1.37518,-2.17549 -0.75146,-2.17549 0.61832,0 2.20244,1.95751 2.37813,2.93869 0.22593,1.26167 -0.58502,0.8812 -1.62667,-0.7632 z m -4.66386,14.03542 c -0.25265,-0.10111 -0.55453,-0.0887 -0.67083,0.0276 -0.1163,0.1163 0.0904,0.19903 0.45937,0.18383 0.40774,-0.0168 0.49067,-0.0997 0.21146,-0.21146 z m -12.81835,-11.22341 c 0.11583,-0.52938 0.35508,-1.41913 0.53167,-1.97723 0.17658,-0.5581 0.32106,-1.1358 0.32106,-1.28377 0,-0.2434 -1.33022,-0.57164 -9.275,-2.28865 -1.3475,-0.29122 -3.78875,-0.82575 -5.425,-1.18785 -7.07013,-1.56462 -16.9769,-3.69332 -19.6,-4.21151 -0.86625,-0.17113 -3.465,-0.7098 -5.775,-1.19704 -4.73992,-0.99979 -5.7752,-1.08118 -5.77454,-0.45395 2.8e-4,0.26207 2.42111,1.17294 6.0375,2.27167 12.1605,3.6946 28.4835,8.57702 30.18704,9.02932 0.9625,0.25555 2.93125,0.85341 4.375,1.32856 3.55685,1.17061 4.13551,1.16672 4.39727,-0.0295 z m -53.57227,-6.2734 c -0.385,-0.0851 -1.13313,-0.29487 -1.6625,-0.46619 -0.52938,-0.17133 -0.9625,-0.23587 -0.9625,-0.14343 0,0.30392 1.5575,0.80151 2.45,0.78273 0.68725,-0.0145 0.7248,-0.0516 0.175,-0.17311 z m 3.98125,0.0171 c 0.60156,-0.12031 1.09375,-0.36586 1.09375,-0.54565 0,-0.1798 -0.17344,-0.21972 -0.38541,-0.0887 -0.21198,0.13101 -1.19636,0.3569 -2.1875,0.50199 -1.23962,0.18146 -1.4607,0.27742 -0.70834,0.30746 0.60156,0.024 1.58594,-0.0548 2.1875,-0.17509 z m -0.077,-1.70281 c 2.03567,-0.60453 4.61458,-2.82461 3.99771,-3.44147 -0.68506,-0.68507 -0.39272,-1.85722 0.70774,-2.83773 0.99739,-0.88868 1.06609,-1.09053 0.85355,-2.50785 -0.18253,-1.21721 -0.1248,-1.54139 0.27448,-1.54139 0.5886,0 0.9135,1.00414 0.96257,2.975 0.0336,1.34747 0.0462,1.36214 0.33692,0.39109 0.6531,-2.18142 -0.73617,-6.12694 -2.86905,-8.14805 -2.04133,-1.93434 -3.9245,-2.68515 -6.72479,-2.68112 -3.07004,0.004 -5.40816,1.06701 -7.44867,3.38515 -2.70695,3.07526 -3.35474,8.29584 -1.35487,10.91909 0.44815,0.58785 0.44485,0.45302 -0.0235,-0.96052 -0.55874,-1.68644 -0.5602,-3.25564 -0.003,-3.25564 0.17233,0 0.54184,0.7875 0.82112,1.75 0.61864,2.13199 0.99505,2.625 2.00416,2.625 1.06447,0 1.95935,1.06161 1.70731,2.0254 -0.11141,0.42603 -0.14481,0.77697 -0.0742,0.77987 0.0706,0.003 0.75832,0.23223 1.52832,0.50963 1.81278,0.65308 3.13927,0.65646 5.30425,0.0136 z m -5.04175,-0.51777 c -1.49269,-0.64089 -0.77943,-0.95227 2.10513,-0.91902 2.49864,0.0288 3.02946,-0.0739 3.8972,-0.75415 0.55251,-0.43313 1.14083,-0.7875 1.30737,-0.7875 0.6808,0 0.23249,0.97034 -0.80149,1.73479 -1.232,0.91086 -5.07824,1.33984 -6.50821,0.72588 z m 7.7,-13.59764 c -1.57711,-1.38586 -1.80675,-1.81303 -0.97468,-1.81303 0.68908,0 2.98718,2.04736 2.98718,2.66125 0,0.74285 -0.38793,0.57935 -2.0125,-0.84822 z m -24.53613,-42.4393 c -2.1189,-0.41661 -4.30876,-1.78472 -5.38472,-3.3641 -1.0809,-1.58666 -1.85199,-4.02181 -1.53504,-4.84778 0.35586,-0.92735 1.14283,-0.0376 1.40239,1.58562 0.41881,2.61909 3.68767,5.2817 6.41456,5.22489 1.18836,-0.0247 1.23535,-0.058 0.45144,-0.31938 -0.48125,-0.16047 -1.26875,-0.37744 -1.75,-0.48217 -1.20624,-0.2625 -2.25555,-1.08598 -1.97083,-1.54666 0.16619,-0.2689 0.59332,-0.2328 1.44223,0.1219 0.66336,0.27717 1.6443,0.50049 2.17986,0.49626 1.59692,-0.0126 3.84749,-1.23128 4.45952,-2.41481 0.57024,-1.10274 1.58922,-1.47421 1.58922,-0.57936 0,0.27398 -0.41335,0.98938 -0.91855,1.58978 -0.50521,0.6004 -0.80484,1.20311 -0.66586,1.33936 0.53742,0.52684 2.2925,-2.19931 2.70659,-4.20414 0.27552,-1.33396 0.58954,-2.02314 0.92181,-2.02314 0.8925,0 0.26651,3.67069 -0.97881,5.73963 l -1.07464,1.78537 1.00303,-1.14986 c 1.90965,-2.18918 2.43056,-6.57964 1.09195,-9.20353 -2.91771,-5.71918 -9.89118,-6.89929 -14.3603,-2.43017 -3.51252,3.51252 -3.58103,8.41498 -0.17034,12.1902 1.54746,1.71286 3.79528,2.88101 5.44512,2.82973 1.20539,-0.0375 1.20061,-0.0429 -0.29863,-0.33764 z m 6.837,-12.94563 c -1.19719,-1.33358 -1.65528,-2.4281 -1.01625,-2.4281 0.59321,0 1.86131,1.1494 2.38466,2.16146 0.89052,1.72207 0.08,1.88002 -1.36841,0.26664 z m 89.5144,-0.009 c 4.68051,-1.17857 7.14298,-6.93109 4.89663,-11.43891 -2.33206,-4.67984 -8.6251,-5.99471 -12.48664,-2.60897 -0.57396,0.50325 -0.52428,0.61801 0.79462,1.83561 1.4652,1.35266 1.56564,2.13864 0.35603,2.786 -0.42425,0.22706 -1.04758,0.10403 -2.0927,-0.41306 -1.24442,-0.61569 -1.53942,-0.65596 -1.79923,-0.24559 -0.55643,0.87886 -0.33264,3.93232 0.40793,5.56583 0.95963,2.11671 1.91018,3.08447 3.99559,4.0679 1.91978,0.90533 3.61253,1.03417 5.92777,0.45119 z m -5.75943,-1.00144 c -2.4802,-1.31177 -4.43309,-4.3017 -4.13611,-6.33249 0.21043,-1.43895 0.89772,-1.13897 1.14336,0.49904 0.31809,2.1212 1.46885,3.73358 3.3389,4.6783 1.85383,0.93653 3.3149,0.99349 5.34093,0.20821 2.07423,-0.80397 2.69286,-1.4093 3.66352,-3.58481 0.62001,-1.38961 0.94608,-1.78588 1.23323,-1.49873 0.60909,0.60909 -0.25829,2.9901 -1.56545,4.29726 -2.34976,2.34976 -6.38599,3.12547 -9.01838,1.73322 z m 1.58166,-1.36502 c -1.2601,-0.40974 -2.02767,-1.00334 -1.7915,-1.38547 0.16016,-0.25914 0.6045,-0.21931 1.4379,0.12891 1.80391,0.75372 3.01236,0.61759 4.84723,-0.54605 2.46469,-1.56306 3.19574,-1.30908 1.34252,0.46641 -1.46377,1.40238 -3.9101,1.96247 -5.83615,1.3362 z m 7.38326,-8.60244 c -0.49954,-0.8524 -0.90826,-1.71865 -0.90826,-1.925 0,-1.23552 1.86033,0.82306 2.28967,2.53367 0.36458,1.45261 -0.36071,1.13303 -1.38141,-0.60867 z m -9.83326,0.2388 c 0,-0.38993 -5.38688,-4.81453 -15.38433,-12.63618 -2.12612,-1.6634 -4.07618,-3.2244 -4.33347,-3.46888 -0.25729,-0.24448 -1.04479,-0.87504 -1.75,-1.40125 -2.27098,-1.25753 -3.73526,-3.78403 -6.20379,-4.63266 -0.39937,0 -2.25403,2.5151 -2.25279,3.05499 3.5e-4,0.1485 4.60722,3.33845 10.2375,7.08877 5.63028,3.75032 12.12688,8.12002 14.43688,9.71046 3.95165,2.72072 5.25,3.28575 5.25,2.28475 z m -32.66513,-18.88034 c 2.87865,-1.56676 4.49013,-4.36582 4.49013,-7.79915 0,-2.14601 -0.54732,-4.20948 -1.11654,-4.20948 -0.19142,0 -0.73732,0.3062 -1.21309,0.68044 -1.7804,1.40046 -2.67949,-0.2337 -1.07683,-1.95721 l 1.0245,-1.10176 -1.34652,-0.92154 c -2.13048,-1.45806 -4.59329,-2.0486 -6.63866,-1.59184 -1.92518,0.42992 -4.13425,1.62294 -5.27004,2.8461 -1.34156,1.44476 -2.32523,4.67829 -2.1181,6.9626 0.10053,1.1087 0.35871,2.30661 0.57372,2.66202 0.30183,0.49892 0.33967,0.14765 0.16603,-1.54131 -0.14917,-1.45106 -0.0998,-2.1875 0.14674,-2.1875 0.38485,0 0.55611,0.42793 0.94547,2.3625 0.26093,1.29643 0.4095,1.35327 1.51446,0.57933 1.05168,-0.73663 2.27984,-0.39788 2.81487,0.7764 0.38218,0.83879 0.32825,1.03708 -0.52397,1.92661 l -0.95,0.99159 1.27274,0.53178 c 2.80181,1.17068 5.89356,0.41869 8.21356,-1.99774 1.30635,-1.36064 1.83166,-2.86793 1.83166,-5.25566 0,-1.29827 0.12428,-1.66481 0.5645,-1.66481 0.47773,0 0.54361,0.36955 0.42864,2.40427 -0.17405,3.0802 -1.46838,5.32768 -3.95155,6.86147 -1.51623,0.93654 -2.02202,1.05873 -4.36575,1.05472 -2.00527,-0.003 -2.8879,-0.16414 -3.62426,-0.65991 -1.1076,-0.74571 -1.78219,-0.47201 -0.75103,0.30471 1.91851,1.44512 6.25041,1.41774 8.95932,-0.0566 z m -5.22242,-1.59597 c 0.0802,-0.24054 0.90349,-0.54573 1.82958,-0.6782 1.28018,-0.18312 1.99766,-0.54733 2.99313,-1.51938 1.3272,-1.29598 2.12982,-1.19775 1.39728,0.171 -0.71931,1.34405 -2.84089,2.46392 -4.66786,2.46392 -1.20244,0 -1.65537,-0.12762 -1.55213,-0.43734 z m 3.91749,-13.00905 c -0.37336,-0.27301 -0.56163,-0.61359 -0.41837,-0.75685 0.33047,-0.33047 2.01343,0.41825 2.01343,0.89573 0,0.51104 -0.8017,0.44124 -1.59506,-0.13888 z m -32.98329,-41.68769 c -2.6855,-0.58312 -4.36625,-1.57721 -5.50834,-3.25794 -0.84235,-1.23963 -1.17832,-3.20798 -0.54755,-3.20798 0.17367,0 0.49323,0.50908 0.71013,1.13129 0.38727,1.1109 2.34003,3.41871 2.89277,3.41871 0.15474,0 0.28134,-0.23763 0.28134,-0.52806 0,-0.43292 0.34022,-0.48807 1.88841,-0.30611 1.39286,0.1637 2.18527,0.0738 3.01967,-0.3424 0.62219,-0.3104 1.47242,-0.47872 1.8894,-0.37407 1.11288,0.27932 1.98558,-0.89853 2.25076,-3.03778 0.31432,-2.53567 1.10176,-2.7122 1.10176,-0.247 0,1.44391 -0.21004,2.18201 -0.91694,3.22231 -0.53624,0.78916 -0.71788,1.28771 -0.4375,1.20082 0.8082,-0.25046 2.02457,-3.14997 2.04001,-4.86287 0.023,-2.55109 -0.87636,-4.63013 -2.7686,-6.4001 -1.99951,-1.87031 -3.88812,-2.49022 -6.567,-2.15551 -4.46101,0.55736 -7.66537,5.63142 -6.43707,10.19298 0.93127,3.45847 4.31793,6.10952 7.7371,6.05654 l 1.575,-0.0244 -2.20335,-0.47843 z m 5.58542,-11.56577 c -1.25743,-1.78393 -1.29493,-1.90015 -0.61318,-1.90015 0.59204,0 2.30611,1.95569 2.30611,2.63119 0,1.04044 -0.63866,0.76465 -1.69293,-0.73104 z m -61.12281,9.71744 c -0.10776,-0.10776 -0.39018,-2.2e-4 -0.62759,0.23897 -0.3431,0.34567 -0.3029,0.38587 0.19592,0.19593 0.34518,-0.13143 0.53943,-0.32714 0.43167,-0.4349 z m -6.48426,-0.25126 c 0,-0.10101 -0.40655,-0.33823 -0.90345,-0.52715 -1.01494,-0.38588 -0.96036,-1.28375 0.0661,-1.08766 0.36428,0.0696 1.46849,0.2011 2.4538,0.29223 1.63386,0.15112 1.90487,0.0661 3.08047,-0.96606 1.57513,-1.38299 2.38652,-0.99429 1.19997,0.57484 l -0.77317,1.02247 1.13728,-1.05 c 0.6675,-0.61628 1.30186,-1.66444 1.53572,-2.5375 0.38658,-1.44323 1.0616,-1.94184 1.42146,-1.05 0.0971,0.24062 0.18551,-0.27125 0.19648,-1.1375 0.0794,-6.27356 -7.69693,-9.66921 -12.69738,-5.54446 -1.52723,1.25977 -2.66831,3.44671 -2.61901,5.01946 0.0182,0.57935 0.10466,0.77545 0.19297,0.4375 0.088,-0.33688 0.36526,-0.6125 0.61606,-0.6125 0.30045,0 0.51086,0.66158 0.61684,1.93951 0.0981,1.18261 0.43487,2.30947 0.86302,2.8875 1.02374,1.38211 3.61282,3.05855 3.61282,2.33932 z m 7.35,-8.82883 c 0,-0.17646 -0.46813,-0.78021 -1.04028,-1.34167 -1.1185,-1.09759 -1.35891,-1.89583 -0.57098,-1.89583 0.62157,0 2.73991,2.38905 2.57008,2.89853 -0.16186,0.48558 -0.95882,0.76733 -0.95882,0.33897 z m 46.2,3.4125 0,-1.05 -2.3625,10e-4 c -1.29938,7e-4 -10.68388,-0.2472 -20.85445,-0.55115 -10.17057,-0.30395 -18.71494,-0.46706 -18.9875,-0.36247 -0.27255,0.10467 -0.49555,0.64981 -0.49555,1.21151 0,1.33303 0.15597,1.3539 10.66271,1.4265 4.61324,0.0319 8.45886,0.12911 8.54583,0.21608 0.087,0.087 5.40812,0.15813 11.82479,0.15813 l 11.66667,0 z m 48.68527,-30.85818 c 1.84546,-0.63316 3.25626,-1.87284 4.136,-3.63437 1.14452,-2.29167 0.95095,-5.76911 -0.43222,-7.76503 -3.11512,-4.49512 -9.93979,-4.2476 -12.69897,0.46058 -0.95222,1.62485 -1.19472,4.45998 -0.52898,6.1845 0.45198,1.17079 1.26362,1.33475 0.86625,0.175 -0.381,-1.11202 -0.36326,-2.50586 0.0345,-2.7125 0.18528,-0.0962 0.47655,0.41562 0.64727,1.1375 0.17072,0.72187 0.50976,1.3125 0.75343,1.3125 0.74215,0 2.28743,1.41052 2.28743,2.08795 0,0.35044 0.21843,0.72097 0.48539,0.82341 0.3405,0.13067 0.43279,-0.0149 0.30918,-0.48755 -0.15747,-0.60216 0.02,-0.67381 1.6688,-0.67381 1.70128,0 1.95016,-0.11053 3.19462,-1.41873 1.09877,-1.15505 1.39048,-1.31222 1.56952,-0.84566 0.4051,1.05569 0.84121,-0.23853 0.76267,-2.26334 -0.0758,-1.95476 0.49164,-2.81933 0.88548,-1.34909 0.68835,2.56971 -0.0933,5.16124 -2.08372,6.9089 -2.11555,1.85747 -4.61866,2.14749 -7.6272,0.88372 -0.47801,-0.2008 -0.61709,-0.14785 -0.50387,0.19181 0.37894,1.13681 4.11944,1.72355 6.27441,0.98421 z m 0.88929,-11.63531 c -0.63885,-0.52255 -0.85936,-0.9055 -0.61011,-1.05954 0.48455,-0.29948 2.5685,1.13565 2.29401,1.57979 -0.2934,0.47472 -0.57315,0.38829 -1.6839,-0.52025 z m -24.72456,-29.95651 c 0.38797,-0.25073 0.1596,-0.34269 -0.875,-0.35233 -2.21754,-0.0207 -4.17158,-1.10091 -5.2164,-2.88377 -1.02975,-1.75712 -1.2495,-4.1139 -0.3836,-4.1139 0.35153,0 0.525,0.35154 0.525,1.06394 0,1.49845 1.14457,3.5509 2.38319,4.27356 1.39612,0.81455 4.15188,0.79907 5.40978,-0.0304 2.14137,-1.41202 3.0073,-3.72558 2.23424,-5.96939 -0.26753,-0.77652 -0.40185,-1.49642 -0.29848,-1.59979 0.42165,-0.42165 0.83258,-0.12837 1.33049,0.94956 0.5066,1.09676 0.51796,1.10172 0.31728,0.13855 -0.48157,-2.31131 -2.83426,-4.27602 -5.56933,-4.6509 -1.20338,-0.16495 -1.94813,-0.0204 -3.45966,0.67164 -4.11179,1.88244 -5.22905,6.89285 -2.28478,10.24618 1.20248,1.36956 2.05,1.90496 3.61227,2.28198 1.48519,0.35843 1.68517,0.35623 2.275,-0.0249 z m 5.61843,-4.96847 c 0.20767,-0.7712 0.30346,-1.47631 0.21288,-1.56689 -0.0906,-0.0906 -0.27542,0.35844 -0.41076,0.99783 -0.13533,0.63939 -0.55801,1.71378 -0.93927,2.38753 l -0.69321,1.225 0.72639,-0.82064 c 0.39952,-0.45134 0.89631,-1.45162 1.10397,-2.22283 z"
       id="path2996"
       inkscape:connector-curvature="0"
       sodipodi:nodetypes="ssscssssssssssssscsccscsscsssssssscsssssssssscccsscssccscssssscsssssscsscssssscsscsscssscssscccsscsscssscscssssssssscssssssscsscccssssssssssssscsscsssccsssssssssscccssssscsccscssssssssssssssssssssscscssssssscssssssssssscssssssssssssssssssscssssssssssssssssscssssssssssssccccccsssssscsssccssscssssssscssssssssssssssscsccssssssssssssssssssssssssssscssssssssssssssssssssssssssssssssssssssssssccssssssssscssssssssssscsssssscssssssssssssscssssssssssssssssscccsssscsscsssssscsssssssssssssssscccscsssscccsssssssssscssssssssccsssssssssssssssssssssssscss" />
    <g
       transform="matrix(0.35,0,0,0.35,328.20147,168.98311)"
       style="font-size:36px;font-style:normal;font-weight:normal;line-height:125%;letter-spacing:0px;word-spacing:0px;fill:#000000;fill-opacity:1;stroke:none;font-family:Times New Roman;-inkscape-font-specification:Times New Roman"
       id="text3010-1-9">
      <path
         d="m 187.89124,882.54657 0.54492,8.10352 -0.54492,0 c -0.72659,-2.42577 -1.7637,-4.17186 -3.11133,-5.23829 -1.34768,-1.06638 -2.96486,-1.59958 -4.85157,-1.59961 -1.58204,3e-5 -3.01172,0.40139 -4.28906,1.20411 -1.27735,0.80275 -2.28223,2.08302 -3.01465,3.84082 -0.73242,1.75783 -1.09863,3.94337 -1.09863,6.55664 0,2.15626 0.3457,4.0254 1.03711,5.60742 0.6914,1.58203 1.73144,2.79492 3.12012,3.63867 1.38866,0.84375 2.97362,1.26563 4.75488,1.26563 1.54686,0 2.91209,-0.33106 4.0957,-0.99317 1.18358,-0.6621 2.48436,-1.97753 3.90235,-3.94629 l 0.54492,0.35157 c -1.19533,2.12109 -2.58986,3.67383 -4.18359,4.6582 -1.59377,0.98437 -3.48635,1.47656 -5.67774,1.47656 -3.94923,0 -7.00782,-1.46484 -9.17578,-4.39453 -1.61719,-2.17968 -2.42578,-4.74609 -2.42578,-7.69922 0,-2.37889 0.5332,-4.56444 1.59961,-6.55664 1.0664,-1.99217 2.53417,-3.53611 4.40332,-4.63184 1.86913,-1.09567 3.91112,-1.64353 6.12597,-1.64355 1.72265,2e-5 3.42186,0.4219 5.09766,1.26562 0.49217,0.25784 0.84373,0.38675 1.05469,0.38672 0.31638,3e-5 0.59178,-0.1113 0.82617,-0.33398 0.30467,-0.31638 0.52146,-0.75584 0.65039,-1.31836 z"
         id="path6740-5"
         inkscape:connector-curvature="0" />
      <path
         d="m 204.11584,890.82587 2.98829,0 -1.81055,8.13867 c -0.35158,1.54688 -0.59181,2.4961 -0.7207,2.84765 0.46873,2.15626 1.14842,3.23438 2.03906,3.23438 1.05467,0 1.59959,-0.72656 1.63476,-2.17969 l 0.63282,0 c -0.0352,1.35938 -0.2842,2.45801 -0.74707,3.2959 -0.46291,0.83789 -1.06936,1.25684 -1.81934,1.25684 -0.62111,0 -1.084,-0.25196 -1.38867,-0.75586 -0.3047,-0.50391 -0.63283,-1.53516 -0.98438,-3.09375 -1.21876,2.5664 -3.21094,3.84961 -5.97656,3.84961 -1.88672,0 -3.38672,-0.73535 -4.5,-2.20606 -1.11328,-1.4707 -1.66992,-3.57714 -1.66992,-6.31933 0,-2.69531 0.60937,-4.79296 1.82812,-6.29297 1.21875,-1.49999 2.68359,-2.24999 4.39454,-2.25 1.20702,10e-6 2.19725,0.42775 2.9707,1.2832 0.77342,0.85548 1.45897,2.25001 2.05664,4.18359 z m -1.54687,6.89062 c -0.55079,-1.88671 -1.16603,-3.36034 -1.8457,-4.4209 -0.6797,-1.06053 -1.49415,-1.5908 -2.44336,-1.59082 -2.14454,2e-5 -3.2168,2.50783 -3.2168,7.52344 0,4.75782 1.02539,7.13672 3.07617,7.13672 1.78124,0 3.0996,-2.09765 3.95508,-6.29297 z"
         id="path6742-7"
         inkscape:connector-curvature="0" />
    </g>
  </g>
</svg>
