<?xml version="1.0" encoding="UTF-8" standalone="no"?>
<!-- Generator: Adobe Fireworks 10, Export SVG Extension by Aaron Beall (http://fireworks.abeall.com) . Version: 0.6.1  -->

<svg
   xmlns:dc="http://purl.org/dc/elements/1.1/"
   xmlns:cc="http://creativecommons.org/ns#"
   xmlns:rdf="http://www.w3.org/1999/02/22-rdf-syntax-ns#"
   xmlns:svg="http://www.w3.org/2000/svg"
   xmlns="http://www.w3.org/2000/svg"
   xmlns:sodipodi="http://sodipodi.sourceforge.net/DTD/sodipodi-0.dtd"
   xmlns:inkscape="http://www.inkscape.org/namespaces/inkscape"
   id="webrtc-icon-Page%201"
   viewBox="0 0 230 222"
   version="1.1"
   xml:space="preserve"
   x="0px"
   y="0px"
   width="230"
   height="222"
   inkscape:version="0.48.2 r9819"
   sodipodi:docname="webrtc.svg"><metadata
   id="metadata30"><rdf:RDF><cc:Work
       rdf:about=""><dc:format>image/svg+xml</dc:format><dc:type
         rdf:resource="http://purl.org/dc/dcmitype/StillImage" /></cc:Work></rdf:RDF></metadata><defs
   id="defs28" /><sodipodi:namedview
   pagecolor="#ffffff"
   bordercolor="#666666"
   borderopacity="1"
   objecttolerance="10"
   gridtolerance="10"
   guidetolerance="10"
   inkscape:pageopacity="0"
   inkscape:pageshadow="2"
   inkscape:window-width="640"
   inkscape:window-height="480"
   id="namedview26"
   showgrid="false"
   fit-margin-top="0"
   fit-margin-left="0"
   fit-margin-right="0"
   fit-margin-bottom="0"
   inkscape:zoom="0.944"
   inkscape:cx="112.5"
   inkscape:cy="112.5"
   inkscape:window-x="0"
   inkscape:window-y="0"
   inkscape:window-maximized="0"
   inkscape:current-layer="webrtc-icon-Page%201" />
	<g
   id="Layer%201"
   transform="translate(-12.5,-15.5)">
		<path
   d="m 177.5,61.5 c 0,2 0,2 -1,2 -8,2 -18,7 -26,17 l -48,0 c -7,-9 -19,-17 -28,-18 l 0,-3 c 5,-29 30,-44 51,-44 23,0 52,19 52,46 z"
   id="path4"
   inkscape:connector-curvature="0"
   style="fill:#a3290f" />
		<path
   d="m 242.5,114.5 c 0,15 -11,38 -30,46 -5,-9 -18,-21 -25,-22 l 0,-49 c -2,-3 -6,-7 -10,-9 1,-5 2,-11 2,-17 3,0 8,-1 10,-1 30,0 53,25 53,52 z"
   id="path6"
   inkscape:connector-curvature="0"
   style="fill:#f1cc2a" />
		<path
   d="m 218.5,185.5 c 0,31 -26,52 -52,52 -2,0 -13,-2 -18,-4 -4,-1 -21,-11 -21,-15 0,-6 17,-19 11,-37 1,-1 3,-1 35,-1 8,-2 13,-7 14,-15 5,1 17,-2 24,-5 4,4 7,19 7,25 z"
   id="path8"
   inkscape:connector-curvature="0"
   style="fill:#55943c" />
		<path
   d="m 59.5,163.5 c -4,8 12,20 21,16 l -11,33 1,1 46,-22 c 1,9 3,18 12,27 -12,13 -29,18 -40,18 -31,0 -51,-26 -51,-52 0,-8 3,-18 6,-25 5,2 11,3 16,4 z"
   id="path10"
   inkscape:connector-curvature="0"
   style="fill:#da6f1c" />
		<path
   d="m 75.5,61.5 c 0,5 0,10 1,17 -2,-1 -17,4 -17,11 l 0,53 c -6,5 -12,11 -16,17 -22,-10 -31,-31 -31,-48 0,-31 25,-51 52,-51 3,0 8,1 11,1 z"
   id="path12"
   inkscape:connector-curvature="0"
   style="fill:#4a83c6" />
		<path
   d="m 178.5,73.5 c -1,2 -1,4 -2,6 -1,-1 -3,-1 -24,-1 7,-9 17,-14 26,-16 l 0,11 z"
   id="path14"
   inkscape:connector-curvature="0"
   style="fill:#d13419" />
		<path
   d="m 212.5,159.5 c -1,0 -12,6 -17,6 l -7,0 0,-26 c 6,2 19,10 24,20 z"
   id="path16"
   inkscape:connector-curvature="0"
   style="fill:#75c722" />
		<path
   d="m 77.5,61.5 c 7,3 16,6 24,16 l -27,0 c 1,-2 1,-4 0,-16 l 3,0 z"
   id="path18"
   inkscape:connector-curvature="0"
   style="fill:#581204" />
		<path
   d="m 139.5,181.5 c 1,11 -3,25 -11,38 -4,-3 -12,-19 -12,-25 0,-4 20,-13 22,-13 12,0 25,0 37,0 l -36,0 z"
   id="path20"
   inkscape:connector-curvature="0"
   style="fill:#3e6c0f" />
		<path
   d="m 57.5,163.5 -4,0 c -3,-1 -7,-2 -11,-4 4,-5 9,-11 15,-15 l 0,19 z"
   id="path22"
   inkscape:connector-curvature="0"
   style="fill:#315a82" />
		<path
   d="M 176.5313,76.3279 C 180.6875,77.3705 189,80.4985 189,85.7117 l 0,84.4545 c -1.0391,2.0852 -7.2734,9.3838 -11.4297,9.3838 l -36.3672,0 L 68.4688,215 78.8594,179.55 C 74.7031,179.55 56,180.5926 56,167.0382 L 56,87.797 c 0,-5.2132 7.2734,-13.5544 12.4688,-11.4691 l 108.0625,0 z"
   id="path24"
   inkscape:connector-curvature="0"
   style="fill:#ffffff" />
	</g>
</svg>
