<?xml version="1.0" encoding="UTF-8" standalone="no"?>
<!-- Generator: Adobe Fireworks 10, Export SVG Extension by Aaron Beall (http://fireworks.abeall.com) . Version: 0.6.1  -->

<svg
   xmlns:dc="http://purl.org/dc/elements/1.1/"
   xmlns:cc="http://creativecommons.org/ns#"
   xmlns:rdf="http://www.w3.org/1999/02/22-rdf-syntax-ns#"
   xmlns:svg="http://www.w3.org/2000/svg"
   xmlns="http://www.w3.org/2000/svg"
   xmlns:sodipodi="http://sodipodi.sourceforge.net/DTD/sodipodi-0.dtd"
   xmlns:inkscape="http://www.inkscape.org/namespaces/inkscape"
   id="Logo-webrtc-Page%201"
   viewBox="0 0 172.30469 164.48828"
   version="1.1"
   xml:space="preserve"
   x="0px"
   y="0px"
   width="172.30469"
   height="164.48828"
   inkscape:version="0.48.2 r9819"
   sodipodi:docname="webrtclogo.svg"><metadata
   id="metadata34"><rdf:RDF><cc:Work
       rdf:about=""><dc:format>image/svg+xml</dc:format><dc:type
         rdf:resource="http://purl.org/dc/dcmitype/StillImage" /></cc:Work></rdf:RDF></metadata><defs
   id="defs32" /><sodipodi:namedview
   pagecolor="#ffffff"
   bordercolor="#666666"
   borderopacity="1"
   objecttolerance="10"
   gridtolerance="10"
   guidetolerance="10"
   inkscape:pageopacity="0"
   inkscape:pageshadow="2"
   inkscape:window-width="640"
   inkscape:window-height="480"
   id="namedview30"
   showgrid="false"
   fit-margin-top="0"
   fit-margin-left="0"
   fit-margin-right="0"
   fit-margin-bottom="0"
   inkscape:zoom="1.0733333"
   inkscape:cx="91.316406"
   inkscape:cy="75.488281"
   inkscape:window-x="179"
   inkscape:window-y="99"
   inkscape:window-maximized="0"
   inkscape:current-layer="Logo-webrtc-Page%201" />
	<g
   id="Layer%201"
   transform="translate(-58.683594,-16)">
		<path
   d="m 174.0652,38.7928 c 0,0.991 0,0.991 -0.4913,0.991 -3.9304,0.991 -8.8435,3.4685 -12.7739,8.4234 l -23.5826,0 c -3.4391,-4.4595 -9.3348,-8.4234 -13.7565,-8.9189 l 0,-1.4865 C 125.9174,23.4324 138.2,16 148.5174,16 c 11.3,0 25.5478,9.4144 25.5478,22.7928 z"
   id="path4"
   inkscape:connector-curvature="0"
   style="fill:#a3290f" />
		<path
   d="m 206,65.0541 c 0,7.4324 -5.4043,18.8288 -14.7391,22.7927 -2.4565,-4.4594 -8.8435,-10.4054 -12.2826,-10.9009 l 0,-24.2792 c -0.9826,-1.4865 -2.9479,-3.4685 -4.9131,-4.4595 0.4913,-2.4775 0.9826,-5.4504 0.9826,-8.4234 1.4739,0 3.9305,-0.4955 4.9131,-0.4955 C 194.7,39.2883 206,51.6757 206,65.0541 z"
   id="path6"
   inkscape:connector-curvature="0"
   style="fill:#f1cc2a" />
		<path
   d="m 194.2087,100.2342 c 0,15.3604 -12.7739,25.7658 -25.5478,25.7658 -0.9826,0 -6.387,-0.991 -8.8435,-1.982 -1.9652,-0.4955 -10.3174,-5.4504 -10.3174,-7.4324 0,-2.973 8.3522,-9.4144 5.4043,-18.3333 0.4913,-0.4955 1.474,-0.4955 17.1957,-0.4955 3.9304,-0.991 6.387,-3.4685 6.8783,-7.4325 2.4565,0.4955 8.3521,-0.991 11.7913,-2.4775 1.9652,1.982 3.4391,9.4145 3.4391,12.3874 z"
   id="path8"
   inkscape:connector-curvature="0"
   style="fill:#55943c" />
		<path
   d="m 116.0913,89.3333 c -1.9652,3.964 5.8957,9.9099 10.3174,7.928 l -5.4044,16.3513 0.4914,0.4955 22.6,-10.9009 c 0.4913,4.4595 1.4739,8.9189 5.8956,13.3784 -5.8956,6.4414 -14.2478,8.9189 -19.6522,8.9189 -15.2304,0 -25.0565,-12.8829 -25.0565,-25.7658 0,-3.9639 1.4739,-8.9189 2.9478,-12.3874 2.4566,0.991 5.4044,1.4865 7.8609,1.982 z"
   id="path10"
   inkscape:connector-curvature="0"
   style="fill:#da6f1c" />
		<path
   d="m 123.9522,38.7928 c 0,2.4775 0,4.9549 0.4913,8.4234 -0.9826,-0.4955 -8.3522,1.982 -8.3522,5.4505 l 0,26.2612 c -2.9478,2.4775 -5.8956,5.4505 -7.8609,8.4234 C 97.4217,82.3964 93,71.991 93,63.5676 c 0,-15.3604 12.2826,-25.2703 25.5478,-25.2703 1.4739,0 3.9305,0.4955 5.4044,0.4955 z"
   id="path12"
   inkscape:connector-curvature="0"
   style="fill:#4a83c6" />
		<path
   d="m 174.5565,44.7387 c -0.4913,0.991 -0.4913,1.982 -0.9826,2.973 -0.4913,-0.4955 -1.4739,-0.4955 -11.7913,-0.4955 3.4391,-4.4594 8.3522,-6.9369 12.7739,-7.9279 l 0,5.4504 z"
   id="path14"
   inkscape:connector-curvature="0"
   style="fill:#d13419" />
		<path
   d="m 191.2609,87.3513 c -0.4913,0 -5.8957,2.973 -8.3522,2.973 l -3.4391,0 0,-12.8829 c 2.9478,0.991 9.3348,4.955 11.7913,9.9099 z"
   id="path16"
   inkscape:connector-curvature="0"
   style="fill:#75c722" />
		<path
   d="m 124.9348,38.7928 c 3.4391,1.4865 7.8609,2.973 11.7913,7.9279 l -13.2652,0 c 0.4913,-0.991 0.4913,-1.982 0,-7.9279 l 1.4739,0 z"
   id="path18"
   inkscape:connector-curvature="0"
   style="fill:#581204" />
		<path
   d="m 155.3956,98.2523 c 0.4914,5.4504 -1.4739,12.3873 -5.4043,18.8288 -1.9652,-1.4865 -5.8956,-9.4144 -5.8956,-12.3874 0,-1.982 9.826,-6.4414 10.8086,-6.4414 5.8957,0 12.2827,0 18.1783,0 l -17.687,0 z"
   id="path20"
   inkscape:connector-curvature="0"
   style="fill:#3e6c0f" />
		<path
   d="m 115.1087,89.3333 -1.9652,0 c -1.4739,-0.4955 -3.4392,-0.991 -5.4044,-1.982 1.9652,-2.4774 4.4218,-5.4504 7.3696,-7.4324 l 0,9.4144 z"
   id="path22"
   inkscape:connector-curvature="0"
   style="fill:#315a82" />
		<path
   d="m 173.5893,46.1399 c 2.042,0.5167 6.1259,2.0666 6.1259,4.6497 l 0,41.8468 c -0.5105,1.0332 -3.5735,4.6496 -5.6154,4.6496 l -17.8674,0 -35.7347,17.5653 5.1049,-17.5653 c -2.0419,0 -11.2309,0.5167 -11.2309,-6.1995 l 0,-39.2637 c 0,-2.5831 3.5735,-6.7161 6.126,-5.6829 l 53.0916,0 z"
   id="path24"
   inkscape:connector-curvature="0"
   style="fill:#ffffff" />
		<text
   x="58"
   y="180"
   width="185"
   style="font-size:40px;text-align:left;color:#000000;fill:#000000;font-family:Arial Rounded MT Bold"
   id="text26"><tspan
     id="tspan28">Web RTC</tspan></text>

	</g>
</svg>
