<?xml version="1.0" encoding="UTF-8"?>
<!DOCTYPE svg PUBLIC "-//W3C//DTD SVG 1.1//EN" "http://www.w3.org/Graphics/SVG/1.1/DTD/svg11.dtd">
<svg version="1.1" xmlns="http://www.w3.org/2000/svg" xmlns:xlink="http://www.w3.org/1999/xlink" x="0" y="0" width="894.167" height="472.258" viewBox="0, 0, 894.167, 472.258">
  <g id="value-chain">
    <path d="M721.94,371.992 L801.94,211.992 L721.94,51.992" fill-opacity="0" stroke="#000000" stroke-width="4" id="path3789"/>
    <path d="M841.94,211.992 L761.94,371.992 L181.94,371.992 L181.94,51.992 L761.94,51.992 z" fill-opacity="0" stroke="#000000" stroke-width="4" id="path3781"/>
    <path d="M801.94,211.992 L181.94,211.992" fill-opacity="0" stroke="#000000" stroke-width="2" id="path3785"/>
    <path d="M181.94,171.992 L781.94,171.992" fill-opacity="0" stroke="#000000" stroke-width="2" id="path3795"/>
    <path d="M181.94,131.992 L761.94,131.992" fill-opacity="0" stroke="#000000" stroke-width="2" id="path3797"/>
    <g id="path3799">
      <path d="M181.94,91.992 L741.94,91.992" fill="#0000FF"/>
      <path d="M181.94,91.992 L741.94,91.992" fill-opacity="0" stroke="#000000" stroke-width="2"/>
    </g>
    <path d="M301.94,371.992 L301.94,211.992" fill-opacity="0" stroke="#000000" stroke-width="2" id="path3803"/>
    <path d="M421.94,371.992 L421.94,211.992" fill-opacity="0" stroke="#000000" stroke-width="2" id="path3805"/>
    <path d="M541.94,371.992 C541.94,351.992 541.94,211.992 541.94,211.992" fill-opacity="0" stroke="#000000" stroke-width="2" id="path3807"/>
    <path d="M661.94,371.992 L661.94,211.992" fill-opacity="0" stroke="#000000" stroke-width="2" id="path3809"/>
    <path d="M301.94,211.992 C301.94,191.992 301.94,91.992 301.94,91.992" fill-opacity="0" stroke="#000000" stroke-width="2" stroke-dasharray="6,6" id="path3811"/>
    <path d="M421.94,211.992 L421.94,91.992" fill-opacity="0" stroke="#000000" stroke-width="2" stroke-dasharray="6,6" id="path3813"/>
    <path d="M541.94,211.992 L541.94,91.992" fill-opacity="0" stroke="#000000" stroke-width="2" stroke-dasharray="6,6" id="path3815"/>
    <path d="M661.94,211.992 L661.94,91.992" fill-opacity="0" stroke="#000000" stroke-width="2" stroke-dasharray="6,6" id="path3817"/>
    <path d="M181.94,381.992 C181.94,391.992 191.94,391.992 191.94,391.992 C191.94,391.992 431.94,391.992 441.94,391.992 C451.94,391.992 451.94,401.992 451.94,401.992 C451.94,401.992 451.94,391.992 461.94,391.992 C471.94,391.992 711.94,391.992 711.94,391.992 C711.94,391.992 721.94,391.992 721.94,381.992" fill-opacity="0" stroke="#000000" stroke-width="2" id="path3819"/>
    <path d="M171.94,51.992 C161.94,51.992 161.94,61.992 161.94,61.992 C161.94,61.992 161.94,111.992 161.94,121.992 C161.94,131.992 151.94,131.992 151.94,131.992 C151.94,131.992 161.94,131.992 161.94,141.992 C161.94,151.992 161.94,201.992 161.94,201.992 C161.94,201.992 161.94,211.992 171.94,211.992" fill-opacity="0" stroke="#000000" stroke-width="2" id="path3839"/>
    <text transform="matrix(1.25, 0, -0, 1.25, 460.101, 79.089)" id="tspan3843">
      <tspan x="-90.581" y="-2.5" font-family="Helvetica" font-size="9.6" kerning="2" fill="#000000">INFORMATION SYSTEMS (IS)</tspan>
    </text>
    <g>
      <text transform="matrix(1.25, 0, -0, 1.25, 243.152, 284.714)" id="tspan3932">
        <tspan x="-29.134" y="3" font-family="Helvetica" font-size="9.6" kerning="2" fill="#000000">INBOUND</tspan>
      </text>
      <text transform="matrix(1.25, 0, -0, 1.25, 243.152, 299.714)" id="tspan3940">
        <tspan x="-34.605" y="3" font-family="Helvetica" font-size="9.6" kerning="2" fill="#000000">LOGISTICS</tspan>
      </text>
    </g>
    <text transform="matrix(1.25, 0, -0, 1.25, 361.94, 312.839)" id="tspan3948">
      <tspan x="-42.266" y="-13.5" font-family="Helvetica" font-size="9.6" kerning="2" fill="#000000">PRODUCTION </tspan>
      <tspan x="-46.315" y="-2.5" font-family="Helvetica" font-size="9.6" kerning="2" fill="#000000">(OPERATIONS)</tspan>
    </text>
    <g>
      <text transform="matrix(1.25, 0, -0, 1.25, 482.938, 284.714)" id="tspan3954">
        <tspan x="-35.466" y="3" font-family="Helvetica" font-size="9.6" kerning="2" fill="#000000">OUTBOUND</tspan>
      </text>
      <text transform="matrix(1.25, 0, -0, 1.25, 482.938, 299.714)" id="tspan3956">
        <tspan x="-34.605" y="3" font-family="Helvetica" font-size="9.6" kerning="2" fill="#000000">LOGISTICS</tspan>
      </text>
    </g>
    <path d="M578.581,121.602 C565.108,120.188 550.926,121.236 537.331,121.016 C520.333,121.091 502.576,120.779 485.338,121.016 C482.601,121.124 481.709,116.686 479.713,119.844 C472.35,123.254 464.1,119.389 456.51,121.055 C451.276,119.485 445.402,122.722 440.26,120.352 C437.315,121.988 433.457,120.94 431.042,119.453 C428.184,122.534 423.392,121.051 420.534,119.805 C413.365,123.379 405.161,119.388 397.643,121.328 C395.151,121.372 392.373,120.82 390.651,118.906 C390.121,123.703 379.845,119.722 375.26,120.938 C365.544,120.634 355.561,121.54 346.002,120.898 C342.562,119.37 338.468,122.207 334.674,121.016 C327.84,121.109 328.695,112.893 329.557,108.398 C328.568,104.518 326.271,101.568 332.682,103.008 C342.386,103.198 352.272,102.206 361.745,103.828 C364.786,101.313 367.943,105.141 370.534,102.773 C373.38,102.042 375.167,105.189 377.292,102.383 C380.902,101.733 384.437,103.058 388.073,103.086 C390.807,106.076 394.039,101.484 397.838,102.852 C400.453,103.956 402.225,103.683 404.792,102.734 C409.771,103.076 414.449,103.543 419.401,102.852 C422.963,103.002 426.211,102.167 429.713,103.594 C435.426,102.647 441.705,102.913 447.604,103.008 C450.444,104.124 452.27,105.257 454.987,103.32 C462.486,101.749 470.242,104.271 477.565,102.539 C480.445,101.966 481.537,107.359 483.19,103.672 C487.99,101.305 493.189,104.067 498.229,104.023 C500.378,103.951 503.757,100.879 506.002,103.789 C509.155,101.389 513.317,103.261 516.94,102.617 C519.347,103.178 520.543,105.373 522.838,103.32 C526.195,101.865 528.2,107.053 530.729,103.711 C536.446,102.192 542.721,102.823 548.62,102.93 C555.828,104.443 562.598,102.137 570.299,103.008 C577.515,103.953 595.588,98.183 595.065,110.977 C593.282,115.664 590.417,123.023 583.932,121.25 C581.848,119.226 581.037,122.219 578.581,121.602 z" fill="#FFFFFF" id="text3988"/>
    <text transform="matrix(1.25, 0, -0, 1.25, 462.895, 112.214)" id="tspan3974">
      <tspan x="-110.477" y="3" font-family="Helvetica" font-size="9.6" kerning="2" fill="#000000">HUMAN RESOURCES (PERSONNEL)</tspan>
    </text>
    <path d="M472.213,161.68 C468.048,159.31 463.534,161.746 458.854,160.977 C452.92,162.586 457.441,157.684 452.721,160.781 C448.572,162.981 445.003,158.598 441.198,161.055 C437.302,162.106 434.193,158.07 430.807,160.82 C427.026,162.449 423.786,158.492 420.221,160.937 C415.671,162.254 411.51,159.965 407.135,161.172 C404.17,159.251 401.923,161.691 398.542,160.898 C390.616,161.067 382.765,160.971 375.104,160.781 C370.749,159.549 365.838,162.367 361.046,160.982 C357.461,159.202 347.239,164.535 351.229,157.999 C353.809,153.855 347.715,151.17 349.401,146.68 C349.781,139.331 360.717,144.589 365.885,143.008 C370.212,142.101 372.665,144.576 376.315,142.891 C385.788,143.506 395.882,142.175 404.987,143.555 C408.661,141.574 412.347,144.917 415.729,142.344 C418.789,141.08 420.839,145.618 422.409,145.391 C425.7,141.969 431.082,142.792 434.557,144.258 C441.05,141.726 448.58,142.898 455.378,143.125 C457.799,145.955 460.166,142.347 463.385,142.813 C476.63,143.263 490.536,143.122 503.776,142.461 C506.965,142.933 507.544,147.558 510.182,143.789 C514.416,141.584 518.986,144.413 523.463,142.852 C526.947,143.069 530.484,142.823 533.932,143.867 C540.111,142.028 549.155,143.206 556.354,143.242 C562.007,143.74 571.786,139.79 574.088,147.305 C573.521,150.49 572.641,153.818 572.018,157.305 C567.553,164.402 557.519,159.647 550.885,160.938 C542.985,159.888 534.012,163.07 526.706,159.453 C523.485,163.414 518.482,158.827 514.635,161.406 C506.241,160.238 497.007,161.368 488.151,160.977 C487.726,159.528 483.507,162.424 482.018,159.609 C479.599,158.951 475.589,162.563 472.213,161.68 z M456.706,153.359 C456.067,151.834 457.028,155.889 456.706,153.359 z" fill="#FFFFFF" id="text3992"/>
    <text transform="matrix(1.25, 0, -0, 1.25, 452.895, 156.496)" id="tspan3978">
      <tspan x="-99.485" y="-2.5" font-family="Helvetica" font-size="9.6" kerning="2" fill="#000000">RESEARCH AND DEVELOPMENT</tspan>
    </text>
    <path d="M406.588,201.758 C402.542,200.726 402.014,196.859 402.917,193.398 C401.188,188.782 403.065,181.645 409.167,182.812 C414.499,183.992 420.75,181.946 425.495,184.375 C428.458,181.633 433.518,183.024 436.081,184.531 C444.397,180.903 454.35,183.735 463.151,183.32 C466.439,184.535 470.198,181.37 473.893,182.773 C482.037,184.519 489.55,182.171 498.151,183.008 C505.122,184.459 512.829,180.711 519.323,184.102 C523.541,187.552 519.213,192.212 519.44,196.562 C516.157,204.188 505.893,200.029 499.752,200.977 C485.517,200.761 471.217,201.15 457.057,200.898 C453.689,199.694 449.517,202.705 446.237,199.727 C442.776,202.401 438.167,200.414 434.987,199.805 C430.458,202.848 425.48,199.262 420.651,201.133 C416.575,202.508 413.051,198.219 409.909,201.445 C408.877,201.848 407.667,202.024 406.588,201.758 z" fill="#FFFFFF" id="text3996"/>
    <text transform="matrix(1.25, 0, -0, 1.25, 449.607, 197.617)" id="tspan3982">
      <tspan x="-87.873" y="-2.5" font-family="Helvetica" font-size="9.6" kerning="2" fill="#000000">ACCOUNTING AND FINANCE</tspan>
    </text>
    <g>
      <text transform="matrix(1.25, 0, -0, 1.25, 602.938, 284.714)" id="tspan4033">
        <tspan x="-37.535" y="3" font-family="Helvetica" font-size="9.6" kerning="2" fill="#000000">MARKETING</tspan>
      </text>
      <text transform="matrix(1.25, 0, -0, 1.25, 602.938, 299.714)" id="tspan4037">
        <tspan x="-27.011" y="3" font-family="Helvetica" font-size="9.6" kerning="2" fill="#000000">&amp; SALES</tspan>
      </text>
    </g>
    <text transform="matrix(1.25, 0, -0, 1.25, 711.032, 292.214)" id="tspan4041">
      <tspan x="-27.988" y="3" font-family="Helvetica" font-size="9.6" kerning="2" fill="#000000">SERVICE</tspan>
    </text>
    <text transform="matrix(1.25, 0, -0, 1.25, 453.092, 418.28)" id="tspan4045">
      <tspan x="-66.909" y="3" font-family="Helvetica" font-size="9.6" kerning="2" fill="#000000">PRIMARY ACTIVITIES</tspan>
    </text>
    <g>
      <text transform="matrix(1.25, 0, -0, 1.25, 88.033, 124.714)" id="tspan4051">
        <tspan x="-30.619" y="3" font-family="Helvetica" font-size="9.6" kerning="2" fill="#000000">SUPPORT</tspan>
      </text>
      <text transform="matrix(1.25, 0, -0, 1.25, 95.557, 139.714)" id="tspan4055">
        <tspan x="-36.638" y="3" font-family="Helvetica" font-size="9.6" kerning="2" fill="#000000">ACTIVITIES</tspan>
      </text>
    </g>
    <text transform="matrix(0.567, 1.114, -1.114, 0.567, 782.215, 132.912)" id="tspan4073">
      <tspan x="-25.2" y="3" font-family="Helvetica" font-size="9.6" kerning="2" fill="#000000">MARGIN</tspan>
    </text>
    <text transform="matrix(0.567, -1.114, 1.114, 0.567, 782.664, 291.242)" id="tspan4097">
      <tspan x="-25.2" y="3" font-family="Helvetica" font-size="9.6" kerning="2" fill="#000000">MARGIN</tspan>
    </text>
  </g>
</svg>
