<svg width="640" height="480" xmlns="http://www.w3.org/2000/svg">
 <!-- Created with SVG-edit - http://svg-edit.googlecode.com/ -->
 <g>
  <title>Layer 1</title>
  <text xml:space="preserve" text-anchor="middle" font-family="serif" font-size="24" id="svg_1" y="100" x="139" stroke-width="0" stroke="#000000" fill="#000000">Revenues</text>
  <line id="svg_2" y2="411" x2="43" y1="40" x1="42" stroke-width="5" stroke="#000000" fill="none"/>
  <line id="svg_3" y2="410" x2="42" y1="412" x1="556" stroke-width="5" stroke="#000000" fill="none"/>
  <text xml:space="preserve" text-anchor="middle" font-family="serif" font-size="24" id="svg_4" y="435" x="187" stroke-width="0" stroke="#000000" fill="#000000">3</text>
  <text xml:space="preserve" text-anchor="middle" font-family="serif" font-size="24" id="svg_5" y="436" x="328" stroke-width="0" stroke="#000000" fill="#000000">6</text>
  <text xml:space="preserve" text-anchor="middle" font-family="serif" font-size="24" id="svg_6" y="441" x="510" stroke-width="0" stroke="#000000" fill="#000000">10 years</text>
  <path d="m44,389c1,0 2.82375,-0.48627 5,-1c3.893,-0.91901 9,0 15,0c6,0 12,0 16,0c3,0 6.09789,-0.82443 8,-2c0.85065,-0.52573 2.29289,0.70709 3,0c0.70711,-0.70709 1.38687,-1.9176 4,-3c0.92388,-0.38269 1.95517,-0.54916 3,-4c0.57957,-1.91418 1,-4 2,-5c2,-2 2.58578,-4.58578 4,-6c0.70711,-0.70709 2,-1 3,-2c1,-1 3.07612,-1.61731 4,-2c1.30656,-0.5412 2,-1 3,-2c1,-1 0.92807,-2.61105 3,-5c1.46507,-1.68924 1.31074,-3.08026 2,-6c0.51374,-2.17624 1,-3 2,-6c0,0 1,-2 1,-2c0,-1 -0.52573,-3.14935 0,-4c1.17557,-1.9021 2,-2 2,-3c0,-1 0.61732,-2.07611 1,-3c0.5412,-1.30655 1.29289,-1.29291 2,-2c0.70711,-0.70709 1.4588,-0.69345 2,-2c0.38269,-0.92389 0.29289,-1.29291 1,-2c1.41422,-1.41422 2.07613,-0.61731 3,-1c1.30656,-0.5412 1.61731,-2.07611 2,-3c0.5412,-1.30655 3,-1 4,-2c1,-1 3,-3 3,-4c0,-1 0.07613,-1.61731 1,-2c1.30656,-0.5412 0.29289,-2.29291 1,-3c1.41422,-1.41422 2,-1 2,-2c0,-1 2.69255,-3.186 4,-5c0.8269,-1.14728 2.02675,-2.77023 3,-3c2.17625,-0.51373 1.58578,-2.58578 3,-4c0.70711,-0.70709 1.69344,-1.4588 3,-2c1.84776,-0.76538 2,-1 3,-2c1,-1 2.61731,-3.07611 3,-4c0.5412,-1.30655 1.77025,-4.02676 2,-5c0.51375,-2.17624 2.48625,-2.82376 3,-5c0.4595,-1.9465 0.08099,-5.10699 1,-9c1.02748,-4.35251 2,-6 3,-8c0,0 0.48625,-1.82376 1,-4c0.68925,-2.91974 1.49345,-5.87856 2,-9c0.16019,-0.98709 0.5405,-2.0535 1,-4c0.51375,-2.17625 2.9176,-2.38687 4,-5c0.76537,-1.84776 1.23463,-3.15224 2,-5c0.5412,-1.30656 0.94853,-1.29869 2,-3c1.17557,-1.90211 2,-3 3,-4c0,0 0.23463,-0.15224 1,-2c0.5412,-1.30656 4.29289,-2.29289 5,-3c1.41422,-1.41422 1,-3 2,-3c1,0 1.85274,-2.1731 3,-3c1.814,-1.30745 2.29289,-1.29289 3,-2c0.70711,-0.70711 1.29289,-0.29289 2,-1c1.41422,-1.41422 1.29289,-1.29289 2,-2c0.70711,-0.70711 2.29289,-0.29289 3,-1c1.41422,-1.41422 1.82375,-3.48625 4,-4c0.97325,-0.22975 3,-2 3,-2c1,0 2,0 3,0c1,0 2,0 3,0c0,0 2.02675,1.77025 3,2c2.17625,0.51375 3,1 5,3c1,1 1.70546,2.34619 4,4c1.814,1.30745 3,1 3,1c1,0 1,2 2,2c1,0 3,0 5,0c1,0 3,0 3,0c2,0 3.15224,-0.76537 5,0c1.30656,0.5412 2,1 3,1c1,0 1.58578,0.58578 3,2c0.70709,0.70711 -0.70709,1.29289 0,2c0.70709,0.70711 1.29291,1.29289 2,2c0.70709,0.70711 2,1 2,2c0,0 1,0 1,1c0,1 1,2 1,3c0,1 -0.52573,2.14935 0,3c1.17557,1.90211 2,2 2,4c0,0 0.58578,-0.41422 2,1c0.70709,0.70711 0,2 0,2c1,0 2,0 3,0c1,0 2,0 3,0c1,0 2.87857,-0.49345 6,-1c0.98709,-0.16019 2.69345,-1.4588 4,-2c0.92389,-0.38269 1.38687,-0.9176 4,-2c0.92389,-0.38269 2,0 2,0c2,-1 3,-1 4,-1c2,0 4,0 4,0c1,0 1.29291,-0.29289 2,-1c1.41422,-1.41422 2,-1 4,-1c1,0 2.29291,0.70711 3,0c1.41422,-1.41422 1.29291,-2.29289 2,-3c0.70709,-0.70711 2,0 3,-1c1,-1 2.61731,-2.07613 3,-3c0.5412,-1.30656 2.29291,-1.29289 3,-2c0.70709,-0.70711 0.5405,-2.0535 1,-4c0.51373,-2.17625 1.31073,-5.08025 2,-8c0.51373,-2.17625 1.9335,-5.01721 3,-9c1.88312,-7.03235 4.3851,-15.37201 7,-19c0.8269,-1.14726 1,-2 1,-3c0,-1 1.41885,-0.41885 3,-2c1.58115,-1.58115 3.38687,-5.9176 6,-7c0.92389,-0.38269 2,0 3,0c2,0 3,0 5,0c1,0 3,0 5,0c1,0 2,0 4,0c1,0 2,0 4,0c0,0 1.29291,-0.29289 2,-1c0.70709,-0.70711 2,0 3,0c1,0 3,-1 4,-1c2,0 3,0 4,0c1,0 2,0 3,0c1,0 2,0 3,0c1,0 3,0 4,0c2,0 2.69345,0.4588 4,1c0.92389,0.38269 2,0 2,1c0,0 0.58578,-0.41422 2,1c0.70709,0.70711 1,1 2,2c1,1 0.61731,2.07613 1,3c0.5412,1.30656 0.29291,2.29289 1,3c1.41422,1.41422 2,0 2,2c0,1 0,2 0,2c2,3 3.29291,5.29289 4,6c0.70709,0.70711 0.47427,2.14935 1,3c1.17557,1.90211 3,1 3,1c1,0 2,0 4,0c1,0 2,0 4,0c1,0 2,0 3,0c3,0 4,0 4,0c2,0 4,0 5,0c1,0 2.02249,-0.36655 5,0c4.09222,0.50377 7,1 10,1c3,0 6,0 9,0c3,0 3.0979,-0.82443 5,-2c2.55194,-1.57719 3.38687,-0.9176 6,-2c0.92389,-0.38269 2,0 3,-1c2,-2 4,-5 7,-8c1,-1 1,-3 2,-4c2,-2 2.4588,-1.69344 3,-3c0.76538,-1.84776 2.07611,-2.61731 3,-3c1.30655,-0.5412 2.186,-2.69255 4,-4c1.14728,-0.8269 1,-2 3,-4c1,-1 2,-3 3,-3c1,0 1,-1 1,-2c0,-1 1.61731,-1.07613 2,-2c0.5412,-1.30656 1.84283,-2.11096 4,-5c4.67282,-6.25816 6.85196,-11.22836 8,-14c1.6236,-3.91969 3.29291,-4.29289 4,-5c0.70709,-0.70711 1.29291,-1.29289 2,-2c0.70709,-0.70711 0.29291,-1.29289 1,-2c0.70709,-0.70711 2,0 3,0c2,0 4,0 7,0c3,0 4,0 5,0c1,0 1,0 3,0c1,0 2.08026,0.31075 5,1c2.17627,0.51375 3.1593,0.61064 6,2c3.23889,1.58411 5.29291,3.29289 6,4c0.70709,0.70711 1.29291,0.29289 2,1c1.41418,1.41422 1,2 1,2c0,1 1,1 1,2c0,1 0,3 0,3c0,2 0,3 0,5c0,1 0,1 0,2c0,1 0,2 0,2c0,2 0,3 0,5c0,1 0,3 0,3c0,1 0,3 0,3c0,2 1,3 1,4c0,1 0,2 0,3c0,2 0,2 0,4c0,1 0.4588,1.69344 1,3c0.38269,0.92387 1.4588,2.69344 2,4c0.38269,0.92387 1,1 1,3c0,1 1,1 1,2c0,1 2.1731,2.85274 3,4c1.30743,1.814 1,3 2,4l0,1l0,0l0,1" id="svg_7" stroke-width="5" stroke="#000000" fill="none"/>
  <text xml:space="preserve" text-anchor="middle" font-family="serif" font-size="24" id="svg_8" y="177" x="213" stroke-width="0" stroke="#000000" fill="#000000">$</text>
  <text xml:space="preserve" text-anchor="middle" font-family="serif" font-size="24" id="svg_9" y="132" x="355" stroke-width="0" stroke="#000000" fill="#000000">$</text>
  <text xml:space="preserve" text-anchor="middle" font-family="serif" font-size="24" id="svg_10" y="106" x="525" stroke-width="0" stroke="#000000" fill="#000000">$</text>
 </g>
</svg>
